<?xml version="1.0" encoding="UTF-8" standalone="no"?>
<svg
   xmlns:dc="http://purl.org/dc/elements/1.1/"
   xmlns:cc="http://creativecommons.org/ns#"
   xmlns:rdf="http://www.w3.org/1999/02/22-rdf-syntax-ns#"
   xmlns:svg="http://www.w3.org/2000/svg"
   xmlns="http://www.w3.org/2000/svg"
   xmlns:sodipodi="http://sodipodi.sourceforge.net/DTD/sodipodi-0.dtd"
   xmlns:inkscape="http://www.inkscape.org/namespaces/inkscape"
   inkscape:version="1.0 (4035a4fb49, 2020-05-01)"
   sodipodi:docname="FirstHomeContentSvg.svg"
   width="386.03574mm"
   height="300.42471mm"
   viewBox="0 0 386.03573 300.42472"
   version="1.1"
   id="svg8">
  <sodipodi:namedview
     inkscape:current-layer="g895"
     inkscape:window-maximized="1"
     inkscape:window-y="-9"
     inkscape:window-x="-9"
     inkscape:cy="675.69766"
     inkscape:cx="243.80996"
     inkscape:zoom="0.44680673"
     showgrid="false"
     id="namedview135"
     inkscape:window-height="1001"
     inkscape:window-width="1920"
     inkscape:pageshadow="2"
     inkscape:pageopacity="0"
     guidetolerance="10"
     gridtolerance="10"
     objecttolerance="10"
     borderopacity="1"
     bordercolor="#666666"
     pagecolor="#ffffff" />
  <defs
     id="defs2" />
  <metadata
     id="metadata5">
    <rdf:RDF>
      <cc:Work
         rdf:about="">
        <dc:format>image/svg+xml</dc:format>
        <dc:type
           rdf:resource="http://purl.org/dc/dcmitype/StillImage" />
        <dc:title />
      </cc:Work>
    </rdf:RDF>
  </metadata>
  <g
     transform="translate(-147.87934,-68.544526)"
     id="g895">
    <path
       id="path1051"
       d="m 341.1138,192.03473 c 0.24253,-0.0979 0.63941,-0.0979 0.88194,0 0.24254,0.0979 0.0441,0.17794 -0.44097,0.17794 -0.48507,0 -0.68351,-0.0801 -0.44097,-0.17794 z"
       style="fill:#ebebeb;stroke-width:1" />
    <path
       id="path1049"
       d="m 334.41102,192.03473 c 0.24253,-0.0979 0.63941,-0.0979 0.88194,0 0.24254,0.0979 0.0441,0.17794 -0.44097,0.17794 -0.48507,0 -0.68351,-0.0801 -0.44097,-0.17794 z"
       style="fill:#ebebeb;stroke-width:1" />
    <path
       id="path1047"
       d="m 343.60529,192.38016 c 0.25466,-0.10191 0.55893,-0.0894 0.67616,0.0279 0.11722,0.11722 -0.0911,0.2006 -0.46302,0.18528 -0.41097,-0.0169 -0.49456,-0.10052 -0.21314,-0.21313 z"
       style="fill:#ebebeb;stroke-width:1" />
    <path
       id="path1045"
       d="m 304.16032,195.48656 c 0,-0.3558 1.0203,-1.272 1.18446,-1.0636 0.06,0.0762 -0.18198,0.41628 -0.5377,0.75582 -0.35571,0.33955 -0.64676,0.47805 -0.64676,0.30778 z"
       style="fill:#ebebeb;stroke-width:1" />
    <path
       id="path1043"
       d="m 356.32644,198.35378 c -0.43881,-0.55952 -0.42634,-0.572 0.13319,-0.13319 0.58764,0.46086 0.77452,0.75056 0.48417,0.75056 -0.0733,0 -0.35107,-0.27782 -0.61736,-0.61737 z"
       style="fill:#ebebeb;stroke-width:1" />
    <path
       id="path1041"
       d="m 317.90392,200.29406 c 0.86501,-0.92163 1.61907,-1.67569 1.67569,-1.67569 0.26489,0 -0.0152,0.31673 -1.57276,1.77863 l -1.67569,1.57276 z"
       style="fill:#ebebeb;stroke-width:1" />
    <path
       id="path1039"
       d="m 359.34785,200.99962 -1.03614,-1.14653 1.14653,1.03614 c 0.63059,0.56988 1.14653,1.08581 1.14653,1.14653 0,0.27254 -0.29109,0.0326 -1.25692,-1.03614 z"
       style="fill:#ebebeb;stroke-width:1" />
    <path
       id="path1037"
       d="m 315.2284,199.14753 c 7e-4,-2.1343 0.0589,-2.96194 0.12912,-1.8392 0.0702,1.12275 0.0696,2.86899 -0.001,3.88056 -0.071,1.01156 -0.12847,0.093 -0.12768,-2.04136 z"
       style="fill:#ebebeb;stroke-width:1" />
    <path
       id="path1035"
       d="m 362.87563,204.17462 -1.03614,-1.14653 1.14653,1.03614 c 0.63059,0.56988 1.14653,1.08581 1.14653,1.14653 0,0.27254 -0.29109,0.0326 -1.25692,-1.03614 z"
       style="fill:#ebebeb;stroke-width:1" />
    <path
       id="path1033"
       d="m 366.40341,207.34962 -1.03614,-1.14653 1.14653,1.03614 c 0.63059,0.56988 1.14653,1.08581 1.14653,1.14653 0,0.27254 -0.29109,0.0326 -1.25692,-1.03614 z"
       style="fill:#ebebeb;stroke-width:1" />
    <path
       id="path1031"
       d="m 369.93119,210.52462 -1.03614,-1.14653 1.14653,1.03614 c 0.63059,0.56988 1.14652,1.08582 1.14652,1.14653 0,0.27254 -0.29108,0.0326 -1.25691,-1.03614 z"
       style="fill:#ebebeb;stroke-width:1" />
    <path
       id="path1029"
       d="m 373.45897,213.69962 -1.03614,-1.14653 1.14652,1.03614 c 0.63059,0.56988 1.14653,1.08582 1.14653,1.14653 0,0.27254 -0.29109,0.0326 -1.25691,-1.03614 z"
       style="fill:#ebebeb;stroke-width:1" />
    <path
       id="path1027"
       d="m 376.80585,216.69823 -0.85525,-0.97014 0.97014,0.85524 c 0.53358,0.47039 0.97014,0.90695 0.97014,0.97014 0,0.27668 -0.28568,0.0515 -1.08503,-0.85524 z"
       style="fill:#ebebeb;stroke-width:1" />
    <path
       id="path1025"
       d="m 298.1631,219.33523 c 0,-0.0534 1.23031,-1.28367 2.73403,-2.73403 l 2.73403,-2.637 -2.63701,2.73403 c -2.44919,2.5393 -2.83105,2.89499 -2.83105,2.637 z"
       style="fill:#ebebeb;stroke-width:1" />
    <path
       id="path1023"
       d="m 380.33362,219.87323 -0.85524,-0.97014 0.97014,0.85524 c 0.53358,0.47039 0.97014,0.90695 0.97014,0.97014 0,0.27668 -0.28568,0.0515 -1.08504,-0.85524 z"
       style="fill:#ebebeb;stroke-width:1" />
    <path
       id="path1021"
       d="m 383.8614,223.04823 -0.85524,-0.97014 0.97014,0.85524 c 0.53357,0.47039 0.97014,0.90695 0.97014,0.97014 0,0.27668 -0.28568,0.0515 -1.08504,-0.85524 z"
       style="fill:#ebebeb;stroke-width:1" />
    <path
       id="path1019"
       d="m 387.38918,226.22323 -0.85524,-0.97014 0.97014,0.85524 c 0.53357,0.47039 0.97013,0.90695 0.97013,0.97014 0,0.27668 -0.28568,0.0515 -1.08503,-0.85524 z"
       style="fill:#ebebeb;stroke-width:1" />
    <path
       id="path1017"
       d="m 291.63671,225.42948 c 1.54312,-1.55222 2.88505,-2.82222 2.98206,-2.82222 0.097,0 -1.08616,1.27 -2.62928,2.82222 -1.54312,1.55222 -2.88504,2.82222 -2.98206,2.82222 -0.097,0 1.08617,-1.27 2.62928,-2.82222 z"
       style="fill:#ebebeb;stroke-width:1" />
    <path
       id="path1015"
       d="m 390.91696,229.39823 -0.85525,-0.97014 0.97014,0.85525 c 0.53358,0.47038 0.97014,0.90694 0.97014,0.97013 0,0.27668 -0.28568,0.0515 -1.08503,-0.85524 z"
       style="fill:#ebebeb;stroke-width:1" />
    <path
       id="path1013"
       d="m 394.44473,232.57323 -0.85524,-0.97014 0.97014,0.85525 c 0.53358,0.47038 0.97014,0.90694 0.97014,0.97013 0,0.27668 -0.28568,0.0515 -1.08504,-0.85524 z"
       style="fill:#ebebeb;stroke-width:1" />
    <path
       id="path1011"
       d="m 397.80063,235.57184 -1.03614,-1.14652 1.14653,1.03614 c 0.63059,0.56987 1.14653,1.08581 1.14653,1.14652 0,0.27255 -0.29109,0.0326 -1.25692,-1.03614 z"
       style="fill:#ebebeb;stroke-width:1" />
    <path
       id="path1009"
       d="m 280.17143,236.62135 c 0,-0.0534 1.23032,-1.28368 2.73403,-2.73403 l 2.73403,-2.637 -2.637,2.73402 c -2.4492,2.53931 -2.83106,2.89499 -2.83106,2.63701 z"
       style="fill:#ebebeb;stroke-width:1" />
    <path
       id="path1007"
       d="m 401.32841,238.74684 -1.03614,-1.14652 1.14653,1.03614 c 0.63059,0.56987 1.14653,1.08581 1.14653,1.14652 0,0.27255 -0.29109,0.0326 -1.25692,-1.03614 z"
       style="fill:#ebebeb;stroke-width:1" />
    <path
       id="path1005"
       d="m 404.85619,241.92184 -1.03614,-1.14652 1.14653,1.03614 c 0.63059,0.56987 1.14652,1.08581 1.14652,1.14652 0,0.27255 -0.29108,0.0326 -1.25691,-1.03614 z"
       style="fill:#ebebeb;stroke-width:1" />
    <path
       id="path1003"
       d="m 270.99921,245.44079 c 0,-0.0534 1.23031,-1.28367 2.73403,-2.73403 l 2.73403,-2.637 -2.63701,2.73403 c -2.44919,2.5393 -2.83105,2.89499 -2.83105,2.637 z"
       style="fill:#ebebeb;stroke-width:1" />
    <path
       id="path1001"
       d="m 408.38397,245.09684 -1.03614,-1.14652 1.14652,1.03614 c 0.63059,0.56987 1.14653,1.08581 1.14653,1.14652 0,0.27255 -0.29109,0.0326 -1.25691,-1.03614 z"
       style="fill:#ebebeb;stroke-width:1" />
    <path
       id="path999"
       d="m 411.91174,248.27184 -1.03614,-1.14652 1.14653,1.03614 c 0.63059,0.56987 1.14653,1.08581 1.14653,1.14652 0,0.27255 -0.29109,0.0326 -1.25692,-1.03614 z"
       style="fill:#ebebeb;stroke-width:1" />
    <path
       id="path997"
       d="m 415.43952,251.44684 -1.03614,-1.14652 1.14653,1.03614 c 0.63059,0.56987 1.14653,1.08581 1.14653,1.14652 0,0.27255 -0.29109,0.0326 -1.25692,-1.03614 z"
       style="fill:#ebebeb;stroke-width:1" />
    <path
       id="path995"
       d="m 172.95484,252.38759 c 0.0169,-0.41097 0.10052,-0.49456 0.21313,-0.21314 0.10191,0.25466 0.0894,0.55893 -0.0278,0.67616 -0.11722,0.11722 -0.2006,-0.0911 -0.18528,-0.46302 z"
       style="fill:#ebebeb;stroke-width:1" />
    <path
       id="path993"
       d="m 264.12004,251.88782 c 1.54312,-1.55223 2.88505,-2.82223 2.98206,-2.82223 0.097,0 -1.08616,1.27 -2.62928,2.82223 -1.54312,1.55222 -2.88504,2.82222 -2.98206,2.82222 -0.097,0 1.08617,-1.27 2.62928,-2.82222 z"
       style="fill:#ebebeb;stroke-width:1" />
    <path
       id="path991"
       d="m 172.24928,255.20981 c 0.0169,-0.41097 0.10052,-0.49456 0.21314,-0.21314 0.1019,0.25466 0.0894,0.55893 -0.0278,0.67616 -0.11723,0.11722 -0.2006,-0.0911 -0.18529,-0.46302 z"
       style="fill:#ebebeb;stroke-width:1" />
    <path
       id="path989"
       d="m 171.93743,257.70865 c 0.007,-0.58208 0.0863,-0.7775 0.1757,-0.43426 0.0894,0.34324 0.0836,0.81949 -0.0131,1.05833 -0.0966,0.23884 -0.16982,-0.042 -0.16263,-0.62407 z"
       style="fill:#ebebeb;stroke-width:1" />
    <path
       id="path987"
       d="m 171.93743,265.11698 c 0.007,-0.58208 0.0863,-0.7775 0.1757,-0.43426 0.0894,0.34325 0.0836,0.8195 -0.0131,1.05834 -0.0966,0.23884 -0.16982,-0.042 -0.16263,-0.62408 z"
       style="fill:#ebebeb;stroke-width:1" />
    <path
       id="path985"
       d="m 172.27713,267.41004 c 0,-0.48507 0.0801,-0.68351 0.17794,-0.44097 0.0979,0.24253 0.0979,0.63941 0,0.88194 -0.0979,0.24253 -0.17794,0.0441 -0.17794,-0.44097 z"
       style="fill:#ebebeb;stroke-width:1" />
    <path
       id="path983"
       d="m 172.60206,268.96814 c 0.0169,-0.41097 0.10052,-0.49456 0.21314,-0.21314 0.1019,0.25466 0.0894,0.55894 -0.0278,0.67616 -0.11723,0.11723 -0.20061,-0.0911 -0.18529,-0.46302 z"
       style="fill:#ebebeb;stroke-width:1" />
    <path
       id="path981"
       d="m 173.32055,271.60874 c -0.21646,-0.62095 -0.38238,-1.30374 -0.36871,-1.51732 0.0137,-0.21358 0.25243,0.23281 0.53058,0.99198 0.27814,0.75917 0.44405,1.44196 0.3687,1.51732 -0.0754,0.0754 -0.31411,-0.37104 -0.53057,-0.99198 z"
       style="fill:#ebebeb;stroke-width:1" />
    <path
       id="path979"
       d="m 174.20529,273.92279 c -0.34042,-0.88713 -0.24,-1.11603 0.17587,-0.40088 0.20592,0.3541 0.30008,0.71814 0.20925,0.80897 -0.0908,0.0908 -0.26414,-0.0928 -0.38512,-0.40809 z"
       style="fill:#ebebeb;stroke-width:1" />
    <path
       id="path977"
       d="m 176.10199,277.64059 c -0.20768,-0.38805 -0.29823,-0.70555 -0.20122,-0.70555 0.097,0 0.34632,0.3175 0.554,0.70555 0.20768,0.38806 0.29822,0.70556 0.20121,0.70556 -0.097,0 -0.34631,-0.3175 -0.55399,-0.70556 z"
       style="fill:#ebebeb;stroke-width:1" />
    <path
       id="path975"
       d="m 177.82088,280.19823 c -0.43881,-0.55952 -0.42634,-0.572 0.13319,-0.13319 0.33955,0.26629 0.61736,0.5441 0.61736,0.61736 0,0.29035 -0.2897,0.10347 -0.75055,-0.48417 z"
       style="fill:#ebebeb;stroke-width:1" />
    <path
       id="path973"
       d="m 352.13036,275.23716 c -0.009,-8.15718 -0.21256,-9.07214 -2.50682,-11.24883 -1.66901,-1.58349 -3.4552,-2.23118 -6.78167,-2.45909 -5.55334,-0.38049 -9.52047,0.99219 -11.33102,3.9207 -0.95891,1.55099 -1.06673,2.03883 -1.19068,5.38726 l -0.13629,3.68183 -1.05324,-0.99686 c -1.68997,-1.5995 -4.07887,-5.13716 -5.35656,-7.93237 -1.59464,-3.48861 -2.32465,-6.49874 -2.57436,-10.61518 l -0.20866,-3.43958 h 28.97908 28.97907 v 2.43841 c 0,14.17216 -10.89722,26.30315 -25.48819,28.37392 l -1.32292,0.18775 -0.008,-7.29796 z"
       style="fill:#ebebeb;stroke-width:1" />
    <path
       id="path971"
       d="m 179.43118,282.13851 -1.03614,-1.14653 1.14653,1.03614 c 1.06873,0.96583 1.30868,1.25692 1.03614,1.25692 -0.0607,0 -0.57665,-0.51594 -1.14653,-1.14653 z"
       style="fill:#ebebeb;stroke-width:1" />
    <path
       id="path969"
       d="m 205.17204,284.12519 c -0.69454,-0.15915 -0.75365,-0.47514 -0.96885,-5.17913 -0.12604,-2.7553 -0.22976,-7.8539 -0.23047,-11.33024 -7e-4,-3.47633 -0.12035,-6.20183 -0.26587,-6.05667 -0.14552,0.14517 -0.34396,5.07994 -0.44097,10.96617 -0.097,5.88622 -0.28702,10.81256 -0.42223,10.94742 -0.40731,0.40622 -5.21113,-1.21446 -8.21172,-2.77042 -8.20026,-4.25227 -13.54995,-11.11637 -16.13349,-20.70062 -1.07592,-3.99134 -1.00812,-10.73851 0.15065,-14.99305 0.47561,-1.74625 0.99992,-3.4925 1.16515,-3.88056 0.27368,-0.64278 0.23961,-0.66253 -0.38301,-0.22194 -0.37587,0.26599 0.60074,-0.76588 2.17025,-2.29305 15.40499,-14.9894 40.892,-10.5467 50.40894,8.7869 0.88073,1.7892 1.92889,4.52309 2.32923,6.07532 0.90907,3.52467 1.23748,9.10073 0.72804,12.36147 -0.34068,2.18054 -2.44718,9.64396 -2.50088,8.86069 -0.0112,-0.1635 -0.85381,0.4569 -1.87246,1.37866 -3.80405,3.44224 -8.24837,5.84216 -13.49375,7.2866 -2.39824,0.66041 -10.29068,1.16069 -12.02856,0.76245 z"
       style="fill:#ebebeb;stroke-width:1" />
    <path
       id="path967"
       d="m 225.1381,284.93854 c 0,-0.0607 0.51594,-0.57665 1.14653,-1.14653 l 1.14652,-1.03614 -1.03614,1.14653 c -0.96582,1.06873 -1.25691,1.30868 -1.25691,1.03614 z"
       style="fill:#ebebeb;stroke-width:1" />
    <path
       id="path965"
       d="m 182.60618,285.31351 -1.03614,-1.14653 1.14653,1.03614 c 1.06873,0.96583 1.30868,1.25692 1.03614,1.25692 -0.0607,0 -0.57665,-0.51594 -1.14653,-1.14653 z"
       style="fill:#ebebeb;stroke-width:1" />
    <path
       id="path963"
       d="m 184.52365,286.90101 c -0.43881,-0.55953 -0.42633,-0.572 0.1332,-0.13319 0.33955,0.26629 0.61736,0.5441 0.61736,0.61736 0,0.29035 -0.2897,0.10347 -0.75056,-0.48417 z"
       style="fill:#ebebeb;stroke-width:1" />
    <path
       id="path961"
       d="m 187.19372,288.73363 c -0.65758,-0.52683 -0.65326,-0.53335 0.10896,-0.16397 0.43657,0.21155 0.79375,0.45843 0.79375,0.54862 0,0.26995 -0.18295,0.192 -0.90271,-0.38465 z"
       style="fill:#ebebeb;stroke-width:1" />
    <path
       id="path959"
       d="m 207.43306,292.92183 c 0.25466,-0.10191 0.55894,-0.0894 0.67616,0.0278 0.11723,0.11723 -0.0911,0.20061 -0.46302,0.18529 -0.41097,-0.0169 -0.49456,-0.10052 -0.21314,-0.21313 z"
       style="fill:#ebebeb;stroke-width:1" />
    <path
       id="path957"
       d="m 393.76588,285.87361 c -4.94771,-4.18971 -9.5358,-8.0636 -10.19577,-8.60866 l -1.19994,-0.99101 1.46469,-2.46544 c 2.60891,-4.39144 4.60252,-10.23452 5.16213,-15.12971 l 0.25205,-2.20486 h 7.72648 7.72647 v 18.32209 18.32209 l 1.14653,0.14228 c 0.64248,0.0797 0.21598,0.16176 -0.97014,0.18658 l -2.11667,0.0443 z"
       style="fill:#ebebeb;stroke-width:1" />
    <path
       id="path955"
       d="m 320.03532,283.46143 v -1.5875 h -10.40694 -10.40694 v 1.5875 1.5875 h 10.40694 10.40694 z"
       style="fill:#ebebeb;stroke-width:1" />
    <path
       id="path953"
       d="m 275.9381,274.99476 v -18.52083 h 17.73729 17.73729 l 0.43032,3.0868 c 0.23668,1.69775 0.53315,3.46209 0.65882,3.92077 0.2233,0.81499 0.18921,0.82868 -1.49886,0.60184 -3.46351,-0.4654 -6.84489,1.33645 -8.41289,4.48302 -0.84968,1.70509 -0.89919,2.11138 -0.89919,7.37961 v 5.57518 h 8.27482 8.27483 l 0.10364,-2.46887 0.10365,-2.46888 2.31544,2.73346 c 5.48004,6.46938 13.24768,11.06783 21.67345,12.83071 3.29191,0.68875 9.8629,0.9295 13.09642,0.47984 5.32474,-0.74047 11.45681,-3.01723 15.93056,-5.91481 l 2.56863,-1.66367 h 3.63764 3.63763 l 4.81803,4.06746 c 2.64992,2.23711 4.81804,4.14211 4.81804,4.23333 0,0.0912 -25.87625,0.16587 -57.50278,0.16587 H 275.9381 Z"
       style="fill:#ebebeb;stroke-width:1" />
    <path
       id="path951"
       d="m 204.42029,298.80726 c 0,-0.87312 0.0688,-1.23031 0.15289,-0.79375 0.0841,0.43656 0.0841,1.15094 0,1.5875 -0.0841,0.43656 -0.15289,0.0794 -0.15289,-0.79375 z"
       style="fill:#ebebeb;stroke-width:1" />
    <path
       id="path949"
       d="m 202.6564,302.68782 c 0,-0.87313 0.0688,-1.23032 0.15289,-0.79375 0.0841,0.43656 0.0841,1.15093 0,1.5875 -0.0841,0.43656 -0.15289,0.0794 -0.15289,-0.79375 z"
       style="fill:#ebebeb;stroke-width:1" />
    <path
       id="path947"
       d="m 219.58262,306.74476 c 0.004,-0.77611 0.0762,-1.05207 0.16054,-0.61325 0.0844,0.43883 0.0812,1.07383 -0.007,1.41111 -0.0883,0.33729 -0.15734,-0.0218 -0.15342,-0.79786 z"
       style="fill:#ebebeb;stroke-width:1" />
    <path
       id="path945"
       d="m 423.04644,309.40992 v -1.39178 l -1.6757,-0.13213 -1.67569,-0.13213 1.85208,-0.0636 1.85208,-0.0636 v 1.5875 c 0,0.87313 -0.0794,1.5875 -0.17638,1.5875 -0.097,0 -0.17639,-0.6263 -0.17639,-1.39178 z"
       style="fill:#ebebeb;stroke-width:1" />
    <path
       id="path943"
       d="m 425.75107,313.03596 c -0.12936,-0.12935 -0.23519,-1.39935 -0.23519,-2.82222 v -2.58704 l 4.49792,0.0763 4.49791,0.0763 -4.34901,0.11119 -4.34901,0.11119 0.11568,2.63558 c 0.0636,1.44956 0.10245,2.6352 0.0863,2.63475 -0.0162,-3.5e-4 -0.13523,-0.10665 -0.26458,-0.23601 z"
       style="fill:#ebebeb;stroke-width:1" />
    <path
       id="path941"
       d="m 204.77307,318.91559 c 0,-0.87312 0.0688,-1.23031 0.15288,-0.79375 0.0841,0.43657 0.0841,1.15094 0,1.5875 -0.0841,0.43657 -0.15288,0.0794 -0.15288,-0.79375 z"
       style="fill:#ebebeb;stroke-width:1" />
    <path
       id="path939"
       d="m 236.36084,322.55551 c 0.25466,-0.1019 0.55894,-0.0894 0.67616,0.0278 0.11723,0.11722 -0.0911,0.2006 -0.46302,0.18528 -0.41097,-0.0169 -0.49456,-0.10052 -0.21314,-0.21313 z"
       style="fill:#ebebeb;stroke-width:1" />
    <path
       id="path937"
       d="m 233.86935,322.56251 c 0.24253,-0.0979 0.63941,-0.0979 0.88194,0 0.24254,0.0979 0.0441,0.17794 -0.44097,0.17794 -0.48507,0 -0.68351,-0.0801 -0.44097,-0.17794 z"
       style="fill:#ebebeb;stroke-width:1" />
    <path
       id="path935"
       d="m 202.30363,321.73782 c 0,-0.87313 0.0688,-1.23032 0.15288,-0.79375 0.0841,0.43656 0.0841,1.15093 0,1.5875 -0.0841,0.43656 -0.15288,0.0794 -0.15288,-0.79375 z"
       style="fill:#ebebeb;stroke-width:1" />
    <path
       id="path933"
       d="m 234.75206,334.26143 c 0.004,-0.77611 0.0762,-1.05207 0.16054,-0.61325 0.0844,0.43882 0.0812,1.07382 -0.007,1.41111 -0.0883,0.33729 -0.15733,-0.0218 -0.15342,-0.79786 z"
       style="fill:#ebebeb;stroke-width:1" />
    <path
       id="path931"
       d="m 205.12585,339.37671 c 0,-0.87313 0.0688,-1.23032 0.15288,-0.79375 0.0841,0.43656 0.0841,1.15093 0,1.5875 -0.0841,0.43656 -0.15288,0.0794 -0.15288,-0.79375 z"
       style="fill:#ebebeb;stroke-width:1" />
    <path
       id="path929"
       d="m 201.94373,340.96421 c 0.004,-0.77612 0.0762,-1.05208 0.16054,-0.61325 0.0844,0.43882 0.0812,1.07382 -0.007,1.41111 -0.0883,0.33729 -0.15734,-0.0218 -0.15342,-0.79786 z"
       style="fill:#ebebeb;stroke-width:1" />
    <path
       id="path927"
       d="m 236.17029,341.14059 c 0,-0.87312 0.0688,-1.23031 0.15289,-0.79375 0.0841,0.43657 0.0841,1.15094 0,1.5875 -0.0841,0.43657 -0.15289,0.0794 -0.15289,-0.79375 z"
       style="fill:#ebebeb;stroke-width:1" />
    <path
       id="path925"
       d="m 425.67512,334.96698 c -1.1e-4,-6.985 0.047,-9.8925 0.10471,-6.46111 0.0577,3.43139 0.0578,9.14639 2.1e-4,12.7 -0.0576,3.55361 -0.1048,0.74611 -0.10492,-6.23889 z"
       style="fill:#ebebeb;stroke-width:1" />
    <path
       id="path923"
       d="m 423.13031,334.0674 c -0.0517,-8.3859 -0.21863,-13.76236 -0.43539,-14.02418 -0.19333,-0.23353 -0.11204,-0.218 0.18065,0.0345 0.46039,0.39718 0.51911,2.28856 0.43539,14.02418 l -0.0968,13.56508 z"
       style="fill:#ebebeb;stroke-width:1" />
    <path
       id="path921"
       d="m 390.88344,325.1774 c -0.12981,-6.66612 -0.28156,-7.24928 -2.43401,-9.3537 -3.32415,-3.24997 -8.57405,-3.18284 -11.6648,0.14917 -2.02495,2.18301 -2.23165,3.00427 -2.36107,9.38092 l -0.11993,5.90903 h 8.34916 8.34915 z"
       style="fill:#ebebeb;stroke-width:1" />
    <path
       id="path919"
       d="m 309.80477,325.92388 c 0,-6.06296 -0.30096,-7.46694 -2.03482,-9.49257 -3.44865,-4.02897 -9.07122,-4.01851 -12.53087,0.0233 -1.6652,1.9454 -2.01487,3.62406 -2.01487,9.67274 v 5.13545 h 8.29028 8.29028 z"
       style="fill:#ebebeb;stroke-width:1" />
    <path
       id="path917"
       d="m 393.06033,333.37948 v -1.76389 h -10.40695 -10.40694 v 1.76389 1.76389 h 10.40694 10.40695 z"
       style="fill:#ebebeb;stroke-width:1" />
    <path
       id="path915"
       d="m 311.56866,333.37948 v -1.76389 h -10.40695 -10.40694 v 1.76389 1.76389 h 10.40694 10.40695 z"
       style="fill:#ebebeb;stroke-width:1" />
    <path
       id="path913"
       d="m 256.62052,327.64684 -0.0852,-20.02014 h 75.76316 75.76317 l 2.81808,2.33861 c 3.05975,2.53914 3.39864,2.84447 2.7299,2.45963 -0.35028,-0.20158 -0.44097,3.37802 -0.44097,17.40594 v 17.65971 H 380.88949 348.61032 V 330.73365 313.9767 h -8.46666 -8.46667 v 16.75695 16.75694 h -32.10278 -32.10278 v -19.75555 -19.75556 h -5.28873 -5.28873 l -0.0941,19.84375 -0.0941,19.84375 z"
       style="fill:#ebebeb;stroke-width:1" />
    <path
       id="path911"
       d="m 254.06588,327.73504 v -19.75556 h -1.3757 -1.3757 l -0.58521,2.55764 c -0.53593,2.34226 -0.72458,2.66987 -2.24027,3.89035 -3.11553,2.50873 -7.45804,3.97715 -11.00368,3.72091 l -1.5875,-0.11473 -0.17639,-5.64445 -0.17639,-5.64444 -0.2759,5.44998 c -0.15174,2.99749 -0.32931,5.50338 -0.39458,5.56865 -0.31581,0.31581 -4.2917,-1.52051 -5.8863,-2.71868 -5.451,-4.09579 -7.74316,-11.68971 -5.38407,-17.8374 0.18171,-0.47353 0.11682,-0.56712 -0.25822,-0.37243 -0.27551,0.14301 0.28214,-0.47831 1.23923,-1.38071 8.34975,-7.87265 21.50133,-4.73361 25.76659,6.15 l 0.79507,2.02877 -1.89389,0.64376 c -2.1686,0.73712 -4.00654,1.77446 -4.00654,2.26129 0,0.18302 0.27081,0.60357 0.6018,0.93456 0.5267,0.5267 1.09894,0.57207 4.58611,0.36359 l 3.98431,-0.23821 v 19.94633 c 0,10.97049 -0.0794,19.94633 -0.17638,19.94633 -0.097,0 -0.17639,-8.89 -0.17639,-19.75555 z"
       style="fill:#ebebeb;stroke-width:1" />
    <path
       id="path905"
       d="m 427.03271,349.25448 c 0,-1.06715 0.0661,-1.50371 0.14696,-0.97014 0.0808,0.53358 0.0808,1.40671 0,1.94028 -0.0808,0.53358 -0.14696,0.097 -0.14696,-0.97014 z"
       style="fill:#ebebeb;stroke-width:1" />
    <path
       id="path903"
       d="m 253.36032,349.25448 c 0,-1.33271 0.12935,-1.76389 0.52917,-1.76389 0.46413,0 0.52916,-2.45144 0.52916,-19.94633 v -19.94633 l -3.98431,0.23821 c -3.48717,0.20848 -4.05941,0.16311 -4.58611,-0.36359 -1.21841,-1.21842 -0.6868,-1.62282 5.04265,-3.83598 2.23132,-0.86191 8.7822,-3.49174 14.55752,-5.84405 l 10.50058,-4.27693 h 57.51816 c 42.447,0 57.45402,-0.10378 57.27337,-0.39607 -0.13463,-0.21784 1.48845,1.09185 3.60685,2.91042 2.1184,1.81857 6.03091,5.13211 8.69448,7.36343 l 4.84284,4.05695 -75.67468,0.089 -75.67468,0.089 v 19.93114 19.93113 h 37.57084 37.57083 V 330.73365 313.9767 h 8.46667 8.46666 v 16.75695 16.75694 h 37.39445 37.39444 v -13.43238 -13.43239 l 1.03882,0.82058 1.03881,0.82058 0.0195,12.61181 c 0.0192,12.37011 0.0331,12.6118 0.72508,12.6118 0.61148,0 0.70555,0.23519 0.70555,1.76389 v 1.76389 h -86.78332 -86.78334 v -1.76389 z m -17.18521,-5.11527 c 0.003,-0.97014 0.0712,-1.32515 0.15225,-0.7889 0.0811,0.53624 0.0789,1.32999 -0.005,1.76388 -0.0837,0.4339 -0.15008,-0.005 -0.14744,-0.97498 z m -34.21945,-0.35278 c 0.003,-0.97014 0.0712,-1.32515 0.15225,-0.7889 0.0811,0.53624 0.0789,1.32999 -0.005,1.76389 -0.0837,0.43389 -0.15008,-0.005 -0.14743,-0.97499 z m 3.17019,-1.5875 c 0,-0.87313 0.0688,-1.23032 0.15288,-0.79375 0.0841,0.43656 0.0841,1.15093 0,1.5875 -0.0841,0.43656 -0.15288,0.0794 -0.15288,-0.79375 z m 29.63333,-5.29167 c 0,-0.87312 0.0688,-1.23031 0.15289,-0.79375 0.0841,0.43656 0.0841,1.15094 0,1.5875 -0.0841,0.43656 -0.15289,0.0794 -0.15289,-0.79375 z m 55.99559,-3.52778 v -1.76389 h 10.40694 10.40695 v 1.76389 1.76389 h -10.40695 -10.40694 z m 81.49167,0 v -1.76389 h 10.40694 10.40695 v 1.76389 1.76389 h -10.40695 -10.40694 z m -169.94281,-8.81944 c 0,-0.87313 0.0688,-1.23031 0.15288,-0.79375 0.0841,0.43656 0.0841,1.15094 0,1.5875 -0.0841,0.43656 -0.15288,0.0794 -0.15288,-0.79375 z m 33.51389,-0.70556 c 0,-0.87312 0.0688,-1.23031 0.15288,-0.79375 0.0841,0.43657 0.0841,1.15094 0,1.5875 -0.0841,0.43657 -0.15288,0.0794 -0.15288,-0.79375 z m -31.03963,-1.94028 c 0.003,-0.97013 0.0712,-1.32514 0.15224,-0.78889 0.0811,0.53624 0.0789,1.32999 -0.005,1.76388 -0.0837,0.4339 -0.15007,-0.005 -0.14743,-0.97499 z m 27.7024,0.28819 c 0.25466,-0.10191 0.55893,-0.0894 0.67616,0.0278 0.11722,0.11722 -0.0911,0.2006 -0.46303,0.18529 -0.41096,-0.0169 -0.49455,-0.10052 -0.21313,-0.21314 z m 5.64444,0 c 0.25466,-0.10191 0.55894,-0.0894 0.67616,0.0278 0.11722,0.11722 -0.0911,0.2006 -0.46302,0.18529 -0.41097,-0.0169 -0.49456,-0.10052 -0.21314,-0.21314 z m -13.88517,-4.43332 -1.39452,-1.49931 1.49931,1.39451 c 1.39434,1.29689 1.66142,1.6041 1.39451,1.6041 -0.0576,0 -0.73232,-0.67469 -1.4993,-1.4993 z m 22.06521,0.26458 c 0.6582,-0.6791 1.27611,-1.23472 1.37312,-1.23472 0.097,0 -0.36214,0.55562 -1.02035,1.23472 -0.6582,0.6791 -1.27611,1.23472 -1.37312,1.23472 -0.097,0 0.36214,-0.55562 1.02035,-1.23472 z m -8.18004,0.28818 c 0.25466,-0.10191 0.55894,-0.0894 0.67616,0.0278 0.11722,0.11723 -0.0911,0.20061 -0.46302,0.18529 -0.41097,-0.0169 -0.49456,-0.10052 -0.21314,-0.21313 z m 2.4474,-0.34543 c 0.24253,-0.0979 0.63941,-0.0979 0.88194,0 0.24254,0.0979 0.0441,0.17794 -0.44097,0.17794 -0.48507,0 -0.68351,-0.0801 -0.44097,-0.17794 z m 1.78593,-0.36013 c 0.25466,-0.1019 0.55894,-0.0894 0.67616,0.0278 0.11723,0.11722 -0.0911,0.2006 -0.46302,0.18528 -0.41097,-0.0169 -0.49456,-0.10052 -0.21314,-0.21313 z m -7.23647,-2.22845 c 0,-1.06716 0.0661,-1.50372 0.14696,-0.97014 0.0808,0.53357 0.0808,1.4067 0,1.94027 -0.0808,0.53358 -0.14696,0.097 -0.14696,-0.97013 z m -7.0184,-0.79375 -0.67204,-0.79375 0.79375,0.67203 c 0.74593,0.63155 0.95435,0.91547 0.67204,0.91547 -0.0669,0 -0.42413,-0.35719 -0.79375,-0.79375 z m 20.72495,-0.49838 c 0.4246,-0.45197 0.86266,-0.7311 0.97346,-0.6203 0.1108,0.1108 -0.0784,0.35806 -0.42039,0.54945 -0.34201,0.1914 -0.54611,0.47054 -0.45355,0.6203 0.0926,0.14977 -0.0657,0.27231 -0.35162,0.27231 -0.38587,0 -0.32088,-0.21185 0.2521,-0.82176 z m -22.84161,-1.61829 -0.67204,-0.79375 0.79375,0.67204 c 0.74593,0.63155 0.95435,0.91546 0.67204,0.91546 -0.0669,0 -0.42413,-0.35719 -0.79375,-0.79375 z m 198.38282,-0.87584 c -0.7429,-0.77714 -0.97014,-1.36152 -0.97014,-2.49485 v -1.48001 h -1.9042 -1.9042 l -8.35367,-7.05555 -8.35367,-7.05556 2.05579,7.1e-4 c 1.89353,7e-4 3.12777,0.47512 15.63773,6.01257 7.47007,3.30658 13.80209,6.23087 14.07116,6.49842 0.26906,0.26756 0.39311,0.7369 0.27565,1.04299 -0.17932,0.46722 -0.94798,0.55642 -4.79528,0.55642 h -4.58173 l -0.10365,2.49486 -0.10365,2.49485 z m -204.49507,-2.41675 c 0.0169,-0.41097 0.10052,-0.49456 0.21314,-0.21314 0.10191,0.25466 0.0894,0.55893 -0.0278,0.67616 -0.11723,0.11722 -0.20061,-0.0911 -0.18529,-0.46302 z m 15.52223,-1.76389 c 0.0169,-0.41097 0.10052,-0.49456 0.21313,-0.21314 0.10191,0.25466 0.0894,0.55894 -0.0278,0.67616 -0.11722,0.11722 -0.2006,-0.0911 -0.18529,-0.46302 z m -32.74011,-1.91088 c 0,-0.87313 0.0688,-1.23031 0.15289,-0.79375 0.0841,0.43656 0.0841,1.15094 0,1.5875 -0.0841,0.43656 -0.15289,0.0794 -0.15289,-0.79375 z m 20.04011,0.14699 c 0.0169,-0.41097 0.10052,-0.49456 0.21313,-0.21314 0.10191,0.25466 0.0894,0.55894 -0.0278,0.67616 -0.11722,0.11723 -0.2006,-0.0911 -0.18529,-0.46302 z m -2.79438,-1.20533 c 0,-0.48506 0.0801,-0.6835 0.17794,-0.44097 0.0979,0.24254 0.0979,0.63941 0,0.88195 -0.0979,0.24253 -0.17794,0.0441 -0.17794,-0.44098 z m 2.51464,-1.94027 c 0.003,-0.97014 0.0712,-1.32515 0.15225,-0.7889 0.0811,0.53624 0.0789,1.32999 -0.005,1.76389 -0.0837,0.43389 -0.15008,-0.005 -0.14743,-0.97499 z m -17.99166,-0.70556 c 0.003,-0.97014 0.0712,-1.32514 0.15225,-0.7889 0.0811,0.53625 0.0789,1.33 -0.005,1.76389 -0.0837,0.4339 -0.15008,-0.005 -0.14744,-0.97499 z m 18.2714,-2.49884 c 0.0169,-0.41097 0.10052,-0.49456 0.21313,-0.21314 0.10191,0.25466 0.0894,0.55894 -0.0278,0.67616 -0.11722,0.11723 -0.2006,-0.0911 -0.18529,-0.46302 z m 0.17121,-1.45469 c -0.19144,-0.50278 -0.15092,-0.5433 0.19749,-0.19749 0.24109,0.2393 0.34949,0.52396 0.24087,0.63258 -0.10862,0.10861 -0.30588,-0.0872 -0.43836,-0.43509 z m -22.15537,-4.93903 c 0.43883,-0.0844 1.07383,-0.0812 1.41111,0.007 0.33729,0.0883 -0.0218,0.15734 -0.79786,0.15342 -0.77611,-0.004 -1.05207,-0.0762 -0.61325,-0.16054 z m 4.75839,0.006 c 0.33955,-0.0887 0.89517,-0.0887 1.23472,0 0.33955,0.0887 0.0617,0.16134 -0.61736,0.16134 -0.6791,0 -0.95691,-0.0726 -0.61736,-0.16134 z m -7.2099,-0.35058 c 0.25466,-0.10191 0.55894,-0.0894 0.67616,0.0278 0.11723,0.11722 -0.0911,0.2006 -0.46302,0.18528 -0.41097,-0.0169 -0.49456,-0.10052 -0.21314,-0.21313 z m -14.79552,-6.72636 c -0.43881,-0.55953 -0.42633,-0.57201 0.1332,-0.1332 0.33954,0.2663 0.61736,0.54411 0.61736,0.61736 0,0.29035 -0.2897,0.10348 -0.75056,-0.48416 z m 40.26167,0.15419 c 0,-0.0607 0.51594,-0.57665 1.14653,-1.14653 l 1.14652,-1.03614 -1.03614,1.14653 c -0.96582,1.06873 -1.25691,1.30868 -1.25691,1.03614 z m 75.49445,-2.53544 v -1.5875 h 10.40694 10.40694 v 1.5875 1.5875 h -10.40694 -10.40694 z m 76.57993,0.01 1.84867,-1.57798 1.44333,1.27488 c 0.79384,0.70118 1.59416,1.41128 1.77848,1.57798 0.18911,0.17104 -1.24531,0.30311 -3.292,0.30311 h -3.62714 z m -167.6848,0.97 c 0.63059,-0.0782 1.66247,-0.0782 2.29306,0 0.63059,0.0783 0.11465,0.14229 -1.14653,0.14229 -1.26118,0 -1.77712,-0.064 -1.14653,-0.14229 z m -27.12069,-0.71494 c -0.43881,-0.55953 -0.42634,-0.572 0.13319,-0.13319 0.33955,0.26629 0.61736,0.5441 0.61736,0.61736 0,0.29035 -0.2897,0.10347 -0.75055,-0.48417 z m 23.59291,0.38372 c 0.24254,-0.0979 0.63941,-0.0979 0.88195,0 0.24253,0.0979 0.0441,0.17794 -0.44097,0.17794 -0.48507,0 -0.68351,-0.0801 -0.44098,-0.17794 z m 8.64977,-0.0108 c 0.34324,-0.0894 0.81949,-0.0836 1.05834,0.0131 0.23884,0.0966 -0.042,0.16982 -0.62408,0.16263 -0.58208,-0.007 -0.7775,-0.0863 -0.43426,-0.1757 z m -10.80724,-0.37849 c 0.22008,-0.14255 0.47948,-0.57668 0.57644,-0.96474 0.13511,-0.54078 0.18583,-0.47899 0.21719,0.26459 0.0298,0.70619 -0.12704,0.96867 -0.57643,0.96474 -0.3918,-0.004 -0.47116,-0.1001 -0.2172,-0.26459 z m 13.11563,0.029 c 0.25466,-0.10191 0.55894,-0.0894 0.67616,0.0278 0.11723,0.11722 -0.0911,0.2006 -0.46302,0.18528 -0.41097,-0.0169 -0.49456,-0.10052 -0.21314,-0.21313 z m -14.46389,-0.35278 c 0.25466,-0.1019 0.55894,-0.0894 0.67616,0.0278 0.11723,0.11722 -0.0911,0.2006 -0.46302,0.18528 -0.41097,-0.0169 -0.49456,-0.10052 -0.21314,-0.21313 z m 26.17171,-0.99374 c 0.4557,-0.48507 0.90792,-0.88194 1.00493,-0.88194 0.097,0 -0.19646,0.39687 -0.65216,0.88194 -0.4557,0.48507 -0.90792,0.88195 -1.00493,0.88195 -0.097,0 0.19646,-0.39688 0.65216,-0.88195 z m -48.18769,-0.97014 -0.67204,-0.79375 0.79375,0.67204 c 0.74593,0.63155 0.95435,0.91546 0.67204,0.91546 -0.0669,0 -0.42413,-0.35718 -0.79375,-0.79375 z m 15.99671,-0.11358 c -1.36779,-0.74204 -1.21288,-0.99812 0.17639,-0.29158 1.32981,0.6763 1.56515,0.85158 1.11713,0.83201 -0.17786,-0.008 -0.75994,-0.25096 -1.29352,-0.54043 z m 9.01336,-2.26767 c 0,-1.06715 0.0661,-1.50371 0.14696,-0.97013 0.0808,0.53357 0.0808,1.4067 0,1.94027 -0.0808,0.53358 -0.14696,0.097 -0.14696,-0.97014 z m 24.58873,1.6307 c 0,-0.0733 0.27781,-0.35107 0.61736,-0.61736 0.55952,-0.43881 0.572,-0.42633 0.13319,0.13319 -0.46086,0.58764 -0.75055,0.77452 -0.75055,0.48417 z m -50.845,-0.83695 c -0.43881,-0.55952 -0.42634,-0.572 0.13319,-0.13319 0.33955,0.26629 0.61736,0.54411 0.61736,0.61736 0,0.29035 -0.2897,0.10347 -0.75055,-0.48417 z m 14.31173,-0.28404 c -0.65759,-0.52684 -0.65326,-0.53335 0.10896,-0.16398 0.43656,0.21156 0.79375,0.45844 0.79375,0.54863 0,0.26995 -0.18295,0.192 -0.90271,-0.38465 z m -1.61173,-1.12707 c -0.43881,-0.55952 -0.42634,-0.572 0.13319,-0.13319 0.33955,0.26629 0.61736,0.54411 0.61736,0.61736 0,0.29035 -0.28969,0.10347 -0.75055,-0.48417 z m -1.74559,-1.41111 -0.85525,-0.97014 0.97014,0.85525 c 0.90674,0.79935 1.13192,1.08503 0.85525,1.08503 -0.0632,0 -0.49976,-0.43656 -0.97014,-0.97014 z m 39.89059,0.83695 c 0,-0.0733 0.27781,-0.35107 0.61736,-0.61736 0.55952,-0.43881 0.572,-0.42634 0.13319,0.13319 -0.46086,0.58764 -0.75055,0.77452 -0.75055,0.48417 z m -53.28689,-2.01766 c -0.40553,-0.79491 -0.67682,-1.50581 -0.60287,-1.57976 0.074,-0.074 0.47984,0.57643 0.90197,1.4453 0.96142,1.9789 0.70148,2.09575 -0.2991,0.13446 z m 55.907,-0.23223 c 0.56794,-0.62554 1.12356,-1.03788 1.23473,-0.91633 0.11115,0.12155 0.003,0.29221 -0.24107,0.37923 -0.24374,0.087 -0.33735,0.3431 -0.20802,0.56906 0.12933,0.22596 0.10351,0.29144 -0.0574,0.14549 -0.16089,-0.14594 -0.6229,0.0103 -1.0267,0.34726 -0.4038,0.33694 -0.26951,0.10082 0.29843,-0.52471 z m 138.13822,-0.57234 c 0,-0.0733 0.27782,-0.35106 0.61737,-0.61736 0.55952,-0.43881 0.572,-0.42633 0.13319,0.1332 -0.46086,0.58764 -0.75056,0.77451 -0.75056,0.48416 z m -184.71268,-2.07166 -0.67204,-0.79375 0.79375,0.67204 c 0.74593,0.63155 0.95435,0.91546 0.67204,0.91546 -0.0669,0 -0.42413,-0.35719 -0.79375,-0.79375 z m 186.1238,0.66055 c 0,-0.0733 0.27781,-0.35106 0.61736,-0.61736 0.55952,-0.43881 0.572,-0.42633 0.13319,0.1332 -0.46086,0.58764 -0.75055,0.77451 -0.75055,0.48416 z m -198.23327,-5.71703 c 0.0169,-0.41097 0.10052,-0.49456 0.21314,-0.21314 0.1019,0.25466 0.0894,0.55893 -0.0278,0.67616 -0.11723,0.11722 -0.20061,-0.0911 -0.18529,-0.46302 z m -0.32493,-1.91088 c 0,-0.48507 0.0801,-0.68351 0.17794,-0.44098 0.0979,0.24254 0.0979,0.63941 0,0.88195 -0.0979,0.24253 -0.17794,0.0441 -0.17794,-0.44097 z m 31.09446,-1.41111 c 0,-1.06716 0.0661,-1.50372 0.14696,-0.97014 0.0808,0.53357 0.0808,1.4067 0,1.94027 -0.0808,0.53358 -0.14696,0.097 -0.14696,-0.97013 z m 128.65818,-0.1332 c 0,-0.0733 0.27781,-0.35107 0.61736,-0.61736 0.55953,-0.43881 0.572,-0.42633 0.1332,0.13319 -0.46086,0.58764 -0.75056,0.77452 -0.75056,0.48417 z m -160.03785,-3.0418 c 0,-1.64924 0.0608,-2.32393 0.13504,-1.49931 0.0743,0.82462 0.0743,2.17399 0,2.99861 -0.0743,0.82462 -0.13504,0.14993 -0.13504,-1.4993 z m 168.07287,0.094 c 0.82975,-0.0745 2.09975,-0.0735 2.82222,0.002 0.72247,0.0758 0.0436,0.13678 -1.50863,0.1355 -1.55222,-10e-4 -2.14334,-0.0633 -1.31359,-0.13783 z M 178.24651,260.1487 c 0.0169,-0.41097 0.10052,-0.49456 0.21313,-0.21314 0.10191,0.25466 0.0894,0.55893 -0.0278,0.67616 -0.11723,0.11722 -0.20061,-0.0911 -0.18529,-0.46302 z m -0.35278,-1.76389 c 0.0169,-0.41097 0.10052,-0.49456 0.21313,-0.21314 0.10191,0.25466 0.0894,0.55893 -0.0278,0.67616 -0.11723,0.11722 -0.2006,-0.0911 -0.18529,-0.46302 z m -5.60352,-1.73449 c 0.007,-0.58209 0.0863,-0.77751 0.17569,-0.43426 0.0894,0.34324 0.0836,0.81949 -0.0131,1.05833 -0.0966,0.23884 -0.16981,-0.042 -0.16262,-0.62407 z m 5.30473,-0.88195 c 0,-0.6791 0.0726,-0.95691 0.16134,-0.61736 0.0887,0.33955 0.0887,0.89517 0,1.23472 -0.0887,0.33955 -0.16134,0.0617 -0.16134,-0.61736 z m 84.41789,0.13544 c -0.31356,-0.31356 -0.51349,-0.75012 -0.44428,-0.97014 0.0692,-0.22001 9.68067,-9.59587 21.3588,-20.83523 l 21.23297,-20.4352 v -8.93355 c 0,-11.04566 -0.35703,-10.34466 5.26871,-10.34466 2.12167,0 4.25954,0.15283 4.75082,0.33961 0.87326,0.33201 0.89546,0.4278 0.9931,4.28342 l 0.0999,3.94382 2.64584,-2.45516 c 3.24213,-3.0085 5.28903,-4.42273 8.58144,-5.92901 8.76445,-4.00974 19.18508,-3.24966 27.23386,1.98645 3.11528,2.02665 65.07914,57.72719 65.07914,58.50094 0,1.38437 -0.37007,1.41883 -15.24,1.41883 H 389.1798 l -0.003,-3.08681 c -0.006,-7.15354 -2.27036,-14.55241 -6.39669,-20.90208 -1.86105,-2.86382 -7.89787,-8.93388 -10.71021,-10.76918 -4.76157,-3.10736 -10.41428,-5.32071 -15.77035,-6.17499 -4.18485,-0.66747 -11.65473,-0.2775 -15.87587,0.82879 -15.76877,4.13276 -27.19041,17.59268 -28.86469,34.01582 -0.21281,2.08747 -0.29054,4.31133 -0.17272,4.94192 l 0.21421,1.14653 h -24.50884 c -22.09763,0 -24.56494,-0.0561 -25.07896,-0.57012 z m -89.41077,-1.39956 c 0.0169,-0.41097 0.10052,-0.49456 0.21314,-0.21314 0.1019,0.25466 0.0894,0.55894 -0.0278,0.67616 -0.11723,0.11723 -0.20061,-0.0911 -0.18529,-0.46302 z m 162.86729,-3.23369 c 8.00365,-0.0529 21.10052,-0.0529 29.10417,0 8.00365,0.0529 1.45521,0.0961 -14.55208,0.0961 -16.0073,0 -22.55573,-0.0433 -14.55209,-0.0961 z m -157.86729,-1.6758 c 0.004,-0.77611 0.0762,-1.05207 0.16054,-0.61325 0.0844,0.43883 0.0812,1.07383 -0.007,1.41111 -0.0883,0.33729 -0.15733,-0.0218 -0.15342,-0.79786 z m 0.31952,-2.64583 c 0,-0.48507 0.0801,-0.68351 0.17793,-0.44098 0.0979,0.24254 0.0979,0.63941 0,0.88195 -0.0979,0.24253 -0.17793,0.0441 -0.17793,-0.44097 z m 0.32493,-1.6169 c 0.0169,-0.41097 0.10052,-0.49456 0.21313,-0.21314 0.10191,0.25466 0.0894,0.55893 -0.0278,0.67616 -0.11723,0.11722 -0.20061,-0.0911 -0.18529,-0.46302 z m 0.35277,-1.41111 c 0.0169,-0.41097 0.10052,-0.49456 0.21314,-0.21314 0.10191,0.25466 0.0894,0.55893 -0.0278,0.67616 -0.11722,0.11722 -0.2006,-0.0911 -0.18528,-0.46302 z m -0.38063,-1.6481 c 0,-0.097 0.224,-0.36229 0.49776,-0.58949 0.3835,-0.31828 0.55845,-0.30795 0.76212,0.045 0.14539,0.25196 0.13445,0.34042 -0.0243,0.19659 -0.15878,-0.14384 -0.50173,-0.0847 -0.76211,0.13138 -0.26038,0.2161 -0.47343,0.31354 -0.47343,0.21653 z"
       style="fill:#979082;stroke-width:1;fill-opacity:1" />
    <path
       id="path901"
       d="m 201.97803,348.19615 c 0,-1.64924 0.0608,-2.32392 0.13504,-1.49931 0.0743,0.82462 0.0743,2.174 0,2.99862 -0.0743,0.82461 -0.13504,0.14993 -0.13504,-1.49931 z m 3.1837,-0.88194 c 7e-4,-2.13431 0.0589,-2.96195 0.12912,-1.83921 0.0702,1.12275 0.0696,2.869 -0.001,3.88056 -0.071,1.01156 -0.12847,0.093 -0.12767,-2.04135 z m 31.03342,1.05833 c 10e-4,-1.55222 0.0633,-2.14334 0.13782,-1.31359 0.0745,0.82974 0.0735,2.09974 -0.002,2.82222 -0.0758,0.72247 -0.13677,0.0436 -0.13549,-1.50863 z m -1.40154,-6.52639 c 0,-2.03729 0.0583,-2.87073 0.12957,-1.85208 0.0713,1.01864 0.0713,2.68552 0,3.70416 -0.0713,1.01865 -0.12957,0.18521 -0.12957,-1.85208 z m -32.45555,-12.34722 c 0,-2.03729 0.0583,-2.87073 0.12957,-1.85209 0.0713,1.01865 0.0713,2.68552 0,3.70417 -0.0713,1.01865 -0.12957,0.18521 -0.12957,-1.85208 z m 33.51534,-0.52917 c 7e-4,-2.1343 0.0589,-2.96195 0.12912,-1.8392 0.0702,1.12274 0.0696,2.86899 -0.001,3.88055 -0.071,1.01156 -0.12847,0.093 -0.12768,-2.04135 z m -31.04445,-1.76389 c 7.1e-4,-2.1343 0.0589,-2.96195 0.12912,-1.8392 0.0702,1.12274 0.0696,2.86899 -0.001,3.88055 -0.071,1.01157 -0.12847,0.093 -0.12767,-2.04135 z m 30.20693,-2.93634 v -1.70162 l -2.13305,-0.39669 c -3.15831,-0.58735 -5.74353,-1.92097 -8.12249,-4.19012 -4.49223,-4.28486 -5.99707,-10.75496 -3.83483,-16.48796 0.66127,-1.75331 2.73459,-5.33254 2.27106,-3.9206 -2.38729,7.27183 1.12378,15.59249 8.03947,19.05227 2.61157,1.30651 3.60942,1.50907 3.89898,0.79148 0.0979,-0.24254 0.19047,1.58309 0.20578,4.05694 0.0153,2.47386 -0.0515,4.49792 -0.14853,4.49792 -0.097,0 -0.17639,-0.76573 -0.17639,-1.70162 z m 0.70555,-3.90363 v -2.07747 h 2.6256 c 3.32064,0 6.06335,-0.84968 8.91477,-2.76177 l 2.20087,-1.47584 -1.01161,1.47032 c -2.23979,3.25542 -5.29852,5.4075 -9.08882,6.39474 -3.51249,0.91489 -3.64081,0.86026 -3.64081,-1.54998 z m 188.52621,0.93094 -0.67204,-0.79375 0.79375,0.67204 c 0.43657,0.36962 0.79375,0.72681 0.79375,0.79375 0,0.28231 -0.28391,0.0739 -0.91546,-0.67204 z m 6.62868,-2.20486 c 0.007,-0.58208 0.0863,-0.7775 0.1757,-0.43426 0.0894,0.34325 0.0836,0.8195 -0.0131,1.05834 -0.0966,0.23884 -0.16982,-0.042 -0.16263,-0.62408 z m -9.63877,-0.44097 c -0.43881,-0.55953 -0.42633,-0.572 0.13319,-0.13319 0.58764,0.46085 0.77452,0.75055 0.48417,0.75055 -0.0733,0 -0.35107,-0.27781 -0.61736,-0.61736 z m 8.30176,-2.29306 -0.67204,-0.79375 0.79375,0.67204 c 0.43656,0.36962 0.79375,0.72681 0.79375,0.79375 0,0.28231 -0.28391,0.0739 -0.91546,-0.67204 z m -12.88787,-1.5875 c -0.43881,-0.55952 -0.42634,-0.572 0.13319,-0.13319 0.58764,0.46086 0.77452,0.75056 0.48417,0.75056 -0.0733,0 -0.35107,-0.27782 -0.61736,-0.61737 z m 10.23055,-0.70555 c -0.43881,-0.55953 -0.42633,-0.57201 0.1332,-0.1332 0.33955,0.2663 0.61736,0.54411 0.61736,0.61737 0,0.29035 -0.2897,0.10347 -0.75056,-0.48417 z m -224.19282,-3.79236 c 0.001,-1.94028 0.0602,-2.68902 0.13164,-1.66387 0.0715,1.02515 0.0707,2.61265 -0.002,3.52778 -0.0724,0.91512 -0.13089,0.0764 -0.12998,-1.86391 z m 32.7924,-0.17639 c 0,-1.26118 0.064,-1.77712 0.14228,-1.14653 0.0782,0.63059 0.0782,1.66247 0,2.29306 -0.0783,0.63059 -0.14228,0.11465 -0.14228,-1.14653 z m 188.41329,1.32292 -0.67203,-0.79375 0.79375,0.67203 c 0.43656,0.36962 0.79375,0.72681 0.79375,0.79375 0,0.28231 -0.28392,0.0739 -0.91547,-0.67203 z m -1.59898,-1.23473 c -0.43881,-0.55952 -0.42633,-0.572 0.1332,-0.13319 0.33954,0.26629 0.61736,0.54411 0.61736,0.61736 0,0.29035 -0.2897,0.10347 -0.75056,-0.48417 z m -217.84116,-3.26319 c 0,-2.03729 0.0583,-2.87073 0.12957,-1.85208 0.0713,1.01864 0.0713,2.68552 0,3.70416 -0.0713,1.01865 -0.12957,0.18521 -0.12957,-1.85208 z m 215.20681,0.97014 -0.67204,-0.79375 0.79375,0.67204 c 0.43656,0.36962 0.79375,0.7268 0.79375,0.79375 0,0.28231 -0.28391,0.0739 -0.91546,-0.67204 z m -13.75833,-2.11667 -0.67204,-0.79375 0.79375,0.67204 c 0.43656,0.36962 0.79375,0.72681 0.79375,0.79375 0,0.28231 -0.28391,0.0739 -0.91546,-0.67204 z m 11.28889,0 -0.67204,-0.79375 0.79375,0.67204 c 0.43656,0.36962 0.79375,0.72681 0.79375,0.79375 0,0.28231 -0.28391,0.0739 -0.91546,-0.67204 z m -13.40556,-1.76389 -0.67204,-0.79375 0.79375,0.67204 c 0.74593,0.63155 0.95435,0.91546 0.67204,0.91546 -0.0669,0 -0.42413,-0.35718 -0.79375,-0.79375 z m 11.28889,0 -0.67204,-0.79375 0.79375,0.67204 c 0.74593,0.63155 0.95435,0.91546 0.67204,0.91546 -0.0669,0 -0.42413,-0.35718 -0.79375,-0.79375 z m -13.59343,-1.94028 c -0.43881,-0.55952 -0.42633,-0.572 0.1332,-0.13319 0.33955,0.26629 0.61736,0.54411 0.61736,0.61736 0,0.29035 -0.2897,0.10347 -0.75056,-0.48417 z m 11.28889,0 c -0.43881,-0.55952 -0.42633,-0.572 0.1332,-0.13319 0.33954,0.26629 0.61736,0.54411 0.61736,0.61736 0,0.29035 -0.2897,0.10347 -0.75056,-0.48417 z m -13.57046,-1.94027 -0.67204,-0.79375 0.79375,0.67204 c 0.43656,0.36961 0.79375,0.7268 0.79375,0.79375 0,0.28231 -0.28391,0.0739 -0.91546,-0.67204 z m 11.28889,0 -0.67204,-0.79375 0.79375,0.67204 c 0.43656,0.36961 0.79375,0.7268 0.79375,0.79375 0,0.28231 -0.28391,0.0739 -0.91546,-0.67204 z m -13.40556,-1.76389 -0.67204,-0.79375 0.79375,0.67204 c 0.43657,0.36962 0.79375,0.7268 0.79375,0.79375 0,0.28231 -0.28391,0.0739 -0.91546,-0.67204 z m 11.28889,0 -0.67204,-0.79375 0.79375,0.67204 c 0.43657,0.36962 0.79375,0.7268 0.79375,0.79375 0,0.28231 -0.28391,0.0739 -0.91546,-0.67204 z m -13.75833,-2.11667 -0.67204,-0.79375 0.79375,0.67204 c 0.74593,0.63155 0.95435,0.91546 0.67204,0.91546 -0.0669,0 -0.42413,-0.35719 -0.79375,-0.79375 z m 11.28889,0 -0.67204,-0.79375 0.79375,0.67204 c 0.43656,0.36962 0.79375,0.72681 0.79375,0.79375 0,0.28231 -0.28391,0.0739 -0.91546,-0.67204 z m -13.40556,-1.76389 -0.67204,-0.79375 0.79375,0.67204 c 0.43657,0.36962 0.79375,0.72681 0.79375,0.79375 0,0.28231 -0.28391,0.0739 -0.91546,-0.67204 z m 11.28889,0 -0.67204,-0.79375 0.79375,0.67204 c 0.43656,0.36962 0.79375,0.72681 0.79375,0.79375 0,0.28231 -0.28391,0.0739 -0.91546,-0.67204 z m -200.93709,-0.70555 c -0.10164,-0.71569 -0.37296,-0.81841 -2.75856,-1.0444 -5.4924,-0.52031 -12.35922,-3.50441 -16.99445,-7.38525 -4.69475,-3.93066 -8.91633,-11.15023 -10.23471,-17.50298 -0.5807,-2.79816 -0.67806,-4.25485 -0.52439,-7.84585 0.2179,-5.09172 0.99048,-8.26154 3.05236,-12.52361 1.23222,-2.54709 4.72431,-7.69962 4.06458,-5.99722 -1.71457,4.4243 -2.39883,11.34501 -1.607,16.25352 1.95584,12.12416 10.83553,22.17395 22.59443,25.57174 l 2.85645,0.82538 -0.10433,5.22119 c -0.0574,2.87166 -0.13298,5.2212 -0.16799,5.22121 -0.035,10e-6 -0.11439,-0.35717 -0.17639,-0.79373 z m 1.30494,-6.70022 c -0.14005,-3.27662 -0.15914,-6.053 -0.0424,-6.16972 0.11673,-0.11673 0.21223,0.59145 0.21223,1.57373 v 1.78597 l 2.73403,0.23801 c 5.40902,0.4709 12.68117,-1.13925 17.63422,-3.90445 1.2101,-0.67558 3.42324,-2.20024 4.91809,-3.38814 l 2.7179,-2.15982 -0.99637,1.7335 c -5.29048,9.20448 -14.82124,15.35871 -24.93699,16.10239 l -1.98607,0.14601 z m 141.54553,5.49644 c 0.24253,-0.0979 0.63941,-0.0979 0.88194,0 0.24254,0.0979 0.0441,0.17794 -0.44097,0.17794 -0.48507,0 -0.68351,-0.0801 -0.44097,-0.17794 z m 8.11389,0 c 0.24253,-0.0979 0.63941,-0.0979 0.88194,0 0.24254,0.0979 0.0441,0.17794 -0.44097,0.17794 -0.48507,0 -0.68351,-0.0801 -0.44097,-0.17794 z m 36.02652,-0.38372 c -0.4388,-0.55953 -0.42633,-0.57201 0.1332,-0.1332 0.58764,0.46086 0.77452,0.75056 0.48417,0.75056 -0.0733,0 -0.35107,-0.27781 -0.61737,-0.61736 z m 9.87778,-1.05834 c -0.43881,-0.55952 -0.42633,-0.572 0.1332,-0.13319 0.58764,0.46086 0.77451,0.75055 0.48416,0.75055 -0.0733,0 -0.35106,-0.27781 -0.61736,-0.61736 z m -14.46389,-2.82222 c -0.43881,-0.55953 -0.42633,-0.572 0.1332,-0.13319 0.33955,0.26629 0.61736,0.5441 0.61736,0.61736 0,0.29035 -0.2897,0.10347 -0.75056,-0.48417 z m 9.87778,-1.05833 c -0.43881,-0.55953 -0.42633,-0.57201 0.1332,-0.1332 0.58764,0.46086 0.77451,0.75056 0.48416,0.75056 -0.0733,0 -0.35106,-0.27781 -0.61736,-0.61736 z m -2.11667,-1.76389 c -0.4388,-0.55953 -0.42633,-0.57201 0.1332,-0.1332 0.58764,0.46086 0.77452,0.75056 0.48417,0.75056 -0.0733,0 -0.35107,-0.27781 -0.61737,-0.61736 z m -18.12305,-1.49931 c 0.35119,-0.38805 0.7179,-0.70555 0.81491,-0.70555 0.097,0 -0.11095,0.3175 -0.46213,0.70555 -0.35119,0.38806 -0.7179,0.70556 -0.81491,0.70556 -0.097,0 0.11094,-0.3175 0.46213,-0.70556 z m 4.19982,-0.79375 -0.67204,-0.79375 0.79375,0.67204 c 0.43656,0.36962 0.79375,0.72681 0.79375,0.79375 0,0.28231 -0.28391,0.0739 -0.91546,-0.67204 z m -56.43313,-1.76389 -1.03614,-1.14652 1.14653,1.03614 c 0.63059,0.56987 1.14653,1.08581 1.14653,1.14652 0,0.27255 -0.29109,0.0326 -1.25692,-1.03614 z m 30.82411,0.90555 c 0.25466,-0.10191 0.55893,-0.0894 0.67616,0.0278 0.11722,0.11722 -0.0911,0.2006 -0.46302,0.18529 -0.41097,-0.0169 -0.49456,-0.10052 -0.21314,-0.21314 z m 34.94614,-0.72916 c -0.43881,-0.55952 -0.42633,-0.572 0.1332,-0.13319 0.58764,0.46086 0.77452,0.75055 0.48416,0.75055 -0.0733,0 -0.35106,-0.27781 -0.61736,-0.61736 z m -4.58611,-3.88055 c -0.43881,-0.55953 -0.42633,-0.57201 0.1332,-0.1332 0.33955,0.2663 0.61736,0.54411 0.61736,0.61736 0,0.29035 -0.2897,0.10348 -0.75056,-0.48416 z m -15.47722,-1.6325 c 0,-0.0733 0.27781,-0.35107 0.61736,-0.61736 0.55953,-0.43881 0.57201,-0.42634 0.1332,0.13319 -0.46086,0.58764 -0.75056,0.77452 -0.75056,0.48417 z m -165.0091,-5.15847 c -0.0115,-2.0373 0.0975,-5.05355 0.24227,-6.70278 l 0.26314,-2.99861 0.0172,3.52777 c 0.01,1.94028 -0.0995,4.95653 -0.24226,6.70278 l -0.25954,3.175 -0.0209,-3.70416 z m 124.93531,2.02847 -0.67204,-0.79375 0.79375,0.67204 c 0.43656,0.36962 0.79375,0.7268 0.79375,0.79375 0,0.28231 -0.28392,0.0739 -0.91546,-0.67204 z m 43.60157,-0.39778 c 0,-0.0733 0.27781,-0.35107 0.61736,-0.61736 0.55953,-0.43881 0.572,-0.42633 0.13319,0.13319 -0.46085,0.58764 -0.75055,0.77452 -0.75055,0.48417 z m -59.94437,-11.71426 c 0.0169,-0.41097 0.10052,-0.49456 0.21313,-0.21314 0.10191,0.25466 0.0894,0.55894 -0.0278,0.67616 -0.11723,0.11723 -0.20061,-0.0911 -0.18529,-0.46302 z m 76.55278,-0.70555 c 0.0169,-0.41097 0.10052,-0.49456 0.21313,-0.21314 0.10191,0.25466 0.0894,0.55893 -0.0278,0.67616 -0.11723,0.11722 -0.20061,-0.0911 -0.18529,-0.46302 z m -76.90556,-1.76389 c 0.0169,-0.41097 0.10052,-0.49456 0.21313,-0.21314 0.10191,0.25466 0.0894,0.55893 -0.0278,0.67616 -0.11722,0.11722 -0.2006,-0.0911 -0.18529,-0.46302 z m 67.02778,-0.35278 c 0.0169,-0.41097 0.10052,-0.49456 0.21313,-0.21314 0.10191,0.25466 0.0894,0.55894 -0.0278,0.67616 -0.11723,0.11722 -0.20061,-0.0911 -0.18529,-0.46302 z m 10.2584,-0.85255 c 0,-0.48507 0.0801,-0.6835 0.17794,-0.44097 0.0979,0.24253 0.0979,0.63941 0,0.88194 -0.0979,0.24254 -0.17794,0.0441 -0.17794,-0.44097 z m -77.56591,-3.35139 c 0.003,-0.97014 0.0712,-1.32514 0.15225,-0.7889 0.0811,0.53625 0.0789,1.33 -0.005,1.76389 -0.0837,0.4339 -0.15008,-0.005 -0.14743,-0.97499 z m 67.74175,-0.35277 c 0.002,-1.16417 0.0678,-1.59789 0.14635,-0.96383 0.0785,0.63407 0.0769,1.58657 -0.004,2.11667 -0.0805,0.5301 -0.14473,0.0113 -0.14275,-1.15284 z m 9.85031,-2.99862 c 0,-0.67909 0.0726,-0.95691 0.16133,-0.61736 0.0887,0.33955 0.0887,0.89518 0,1.23473 -0.0887,0.33954 -0.16133,0.0617 -0.16133,-0.61737 z m -77.31233,-1.61689 c 0.0169,-0.41097 0.10052,-0.49456 0.21313,-0.21314 0.10191,0.25466 0.0894,0.55893 -0.0278,0.67616 -0.11722,0.11722 -0.2006,-0.0911 -0.18529,-0.46302 z m 76.9334,-1.20533 c 0,-0.48507 0.0801,-0.6835 0.17794,-0.44097 0.0979,0.24253 0.0979,0.63941 0,0.88194 -0.0979,0.24254 -0.17794,0.0441 -0.17794,-0.44097 z m -3.69093,-11.11693 c -0.32268,-0.67666 -0.51395,-1.23029 -0.42506,-1.23029 0.24139,0 1.3123,2.16003 1.15092,2.32141 -0.0765,0.0765 -0.40318,-0.41446 -0.72586,-1.09112 z m -5.04134,-7.66848 -0.67204,-0.79375 0.79375,0.67203 c 0.43657,0.36962 0.79375,0.72681 0.79375,0.79375 0,0.28231 -0.28391,0.0739 -0.91546,-0.67203 z m -57.29287,-2.20487 c 1.05389,-1.06715 1.99555,-1.94028 2.09256,-1.94028 0.097,0 -0.68589,0.87313 -1.73978,1.94028 -1.0539,1.06716 -1.99555,1.94028 -2.09257,1.94028 -0.097,0 0.68589,-0.87312 1.73979,-1.94028 z m 52.70676,-2.38125 -0.67204,-0.79375 0.79375,0.67204 c 0.74593,0.63155 0.95435,0.91546 0.67204,0.91546 -0.0669,0 -0.42413,-0.35719 -0.79375,-0.79375 z m -49.53176,-0.39778 c 0,-0.0733 0.27781,-0.35106 0.61736,-0.61736 0.55953,-0.43881 0.572,-0.42633 0.1332,0.1332 -0.46086,0.58764 -0.75056,0.77451 -0.75056,0.48416 z m 42.48895,-4.29599 c -0.65758,-0.52683 -0.65326,-0.53334 0.10897,-0.16397 0.43656,0.21156 0.79375,0.45844 0.79375,0.54862 0,0.26996 -0.18296,0.192 -0.90272,-0.38465 z m -9.74676,-3.57291 c 0.25466,-0.10191 0.55893,-0.0894 0.67616,0.0278 0.11722,0.11722 -0.0911,0.2006 -0.46303,0.18529 -0.41096,-0.0169 -0.49455,-0.10052 -0.21313,-0.21314 z m -14.81667,-0.35278 c 0.25466,-0.1019 0.55893,-0.0894 0.67616,0.0278 0.11722,0.11723 -0.0911,0.20061 -0.46302,0.18529 -0.41097,-0.0169 -0.49456,-0.10052 -0.21314,-0.21313 z m 13.05278,0 c 0.25466,-0.1019 0.55893,-0.0894 0.67616,0.0278 0.11722,0.11723 -0.0911,0.20061 -0.46302,0.18529 -0.41097,-0.0169 -0.49456,-0.10052 -0.21314,-0.21313 z m -10.77506,-0.35626 c 0.34324,-0.0894 0.81949,-0.0836 1.05833,0.0131 0.23884,0.0966 -0.042,0.16982 -0.62407,0.16263 -0.58208,-0.007 -0.7775,-0.0862 -0.43426,-0.1757 z m 7.7544,0.001 c 0.33955,-0.0887 0.89517,-0.0887 1.23472,0 0.33955,0.0887 0.0617,0.16133 -0.61736,0.16133 -0.6791,0 -0.95691,-0.0726 -0.61736,-0.16133 z"
       style="fill:#b3b2b3;stroke-width:1" />
    <path
       id="path899"
       d="m 344.2006,282.05528 c -3.46335,-0.76595 -7.15058,-2.30141 -9.82972,-4.09337 -4.53241,-3.03152 -4.21089,-2.49791 -4.03975,-6.70455 0.11664,-2.86713 0.31557,-3.98951 0.90852,-5.12586 1.69718,-3.25255 4.38161,-4.37024 10.46734,-4.35816 5.40195,0.0107 7.70721,1.07943 9.49531,4.40198 0.69685,1.29486 0.76875,2.02867 0.8727,8.90763 l 0.1133,7.49653 -2.93552,-0.028 c -1.61453,-0.0154 -3.88801,-0.2387 -5.05218,-0.49616 z m -22.93171,-32.37233 c 1.96616,-12.42511 10.59769,-21.74225 22.67067,-24.47137 5.46399,-1.23515 12.68583,-0.51549 17.8804,1.7818 5.06435,2.2397 10.4367,7.02685 13.20475,11.7664 1.6224,2.77795 3.40695,7.7778 3.77278,10.5704 l 0.24262,1.85208 h -29.00423 -29.00424 z"
       style="fill:#51ff00;fill-opacity:1;stroke-width:1" />
    <path
       id="path897"
       d="m 147.87977,351.37115 c 0,-0.23213 9.28981,-0.35278 27.16388,-0.35278 h 27.16389 l 0.005,-5.90903 c 0.003,-3.24996 0.1537,-13.21152 0.33495,-22.1368 0.18126,-8.92528 0.43778,-23.21278 0.57006,-31.75 0.13228,-8.53722 0.34223,-17.03035 0.46654,-18.87361 0.24065,-3.56807 0.37382,2.39912 1.15143,51.59375 l 0.42799,27.07569 h 14.70941 14.70941 l 0.21257,-5.55625 c 0.11692,-3.05594 0.33344,-11.82687 0.48116,-19.49097 l 0.26859,-13.93472 0.21565,11.64166 c 0.11861,6.40292 0.23768,15.17386 0.26459,19.49098 l 0.0489,7.8493 h 116.24027 c 77.25834,0 116.24028,0.11831 116.24028,0.35278 0,0.23467 -53.68102,0.35278 -160.3375,0.35278 -106.65648,0 -160.3375,-0.11811 -160.3375,-0.35278 z m 278.27707,-29.03188 c -0.52059,-0.23379 -3.29872,-2.42702 -6.17361,-4.87386 -2.87489,-2.44684 -10.30707,-8.72556 -16.51596,-13.95272 -6.20889,-5.22715 -14.40407,-12.13307 -18.21151,-15.34648 -3.80744,-3.21341 -7.10334,-5.95426 -7.32421,-6.09076 -0.22728,-0.14046 -1.38849,0.57096 -2.67521,1.639 -21.27186,17.65651 -53.49112,8.24349 -61.84489,-18.0683 -4.2494,-13.38426 -0.93932,-27.94052 8.68324,-38.18512 18.12279,-19.29432 50.29422,-14.92725 62.40337,8.47087 3.2949,6.36665 4.43691,11.0183 4.43691,18.07258 0,4.95886 -0.53069,8.36134 -1.95332,12.52361 -0.81061,2.37163 -3.16649,7.24081 -4.23433,8.75157 -0.38504,0.54474 -0.64307,1.03428 -0.5734,1.08786 0.1687,0.12973 37.98779,31.93411 40.69613,34.22386 1.16416,0.98423 3.42635,2.95725 5.02708,4.38447 2.72128,2.42632 2.91042,2.686 2.91042,3.99609 0,1.85387 -0.50998,2.72016 -1.95734,3.32491 -1.41287,0.59033 -1.47121,0.59125 -2.69337,0.0424 z M 357.60616,281.7298 c 7.05296,-1.94502 13.80863,-7.06989 17.49154,-13.26916 3.12586,-5.2616 4.67047,-12.48388 3.86618,-18.07751 -0.94144,-6.54748 -3.62246,-12.24273 -7.86643,-16.71053 -5.64195,-5.9395 -12.7426,-9.01762 -20.89963,-9.05995 -13.97817,-0.0725 -25.80566,9.59522 -28.5925,23.37143 -0.81472,4.02743 -0.56145,10.4571 0.54983,13.9579 3.28217,10.33968 11.29332,17.65579 22.04545,20.13281 2.81061,0.64749 10.52671,0.44892 13.40556,-0.34499 z"
       style="fill:#0d1821;fill-opacity:1;stroke-width:1" />
    <path
       id="path1442"
       d="m 466.27253,68.613474 c 0.2546,-0.1019 0.5589,-0.0894 0.6761,0.0279 0.1172,0.11722 -0.091,0.2006 -0.463,0.18528 -0.411,-0.0169 -0.4946,-0.10052 -0.2131,-0.21314 z"
       style="fill:#e5e5e5;stroke-width:1" />
    <path
       id="path1440"
       d="m 460.98083,68.613474 c 0.2546,-0.1019 0.5589,-0.0894 0.6761,0.0279 0.1173,0.11722 -0.091,0.2006 -0.463,0.18528 -0.4109,-0.0169 -0.4945,-0.10052 -0.2131,-0.21314 z"
       style="fill:#e5e5e5;stroke-width:1" />
    <path
       id="path1438"
       d="m 475.48413,73.175994 -0.8552,-0.97014 0.9701,0.85524 c 0.5336,0.47039 0.9702,0.90695 0.9702,0.97014 0,0.27668 -0.2857,0.0515 -1.0851,-0.85524 z"
       style="fill:#e5e5e5;stroke-width:1" />
    <path
       id="path1436"
       d="m 464.50863,79.196814 c 0.2546,-0.10191 0.5589,-0.0894 0.6761,0.0278 0.1172,0.11723 -0.091,0.20061 -0.463,0.18529 -0.411,-0.0169 -0.4946,-0.10052 -0.2131,-0.21314 z"
       style="fill:#e5e5e5;stroke-width:1" />
    <path
       id="path1434"
       d="m 463.09753,79.196814 c 0.2546,-0.10191 0.5589,-0.0894 0.6761,0.0278 0.1172,0.11723 -0.091,0.20061 -0.463,0.18529 -0.411,-0.0169 -0.4946,-0.10052 -0.2131,-0.21314 z"
       style="fill:#e5e5e5;stroke-width:1" />
    <path
       id="path1432"
       d="m 468.07583,80.937104 -0.8553,-0.97014 0.9702,0.85524 c 0.5336,0.47039 0.9701,0.90695 0.9701,0.97014 0,0.27668 -0.2857,0.0515 -1.085,-0.85524 z"
       style="fill:#e5e5e5;stroke-width:1" />
    <path
       id="path1430"
       d="m 459.63583,81.025304 c 0.4557,-0.48506 0.9079,-0.88194 1.005,-0.88194 0.097,0 -0.1965,0.39688 -0.6522,0.88194 -0.4557,0.48507 -0.9079,0.88195 -1.0049,0.88195 -0.097,0 0.1964,-0.39688 0.6521,-0.88195 z"
       style="fill:#e5e5e5;stroke-width:1" />
    <path
       id="path1428"
       d="m 457.89983,85.229254 c 0.017,-0.41097 0.1005,-0.49456 0.2131,-0.21314 0.1019,0.25466 0.089,0.55893 -0.028,0.67616 -0.1172,0.11723 -0.2006,-0.0911 -0.1853,-0.46302 z"
       style="fill:#e5e5e5;stroke-width:1" />
    <path
       id="path1426"
       d="m 447.02483,85.258654 c 0,-0.77611 0.076,-1.05207 0.1605,-0.61325 0.084,0.43882 0.081,1.07382 -0.01,1.41111 -0.088,0.33729 -0.1573,-0.0218 -0.1534,-0.79786 z"
       style="fill:#e5e5e5;stroke-width:1" />
    <path
       id="path1424"
       d="m 480.55903,85.258654 c 0,-1.16417 0.068,-1.59789 0.1464,-0.96382 0.079,0.63406 0.077,1.58656 0,2.11666 -0.081,0.53011 -0.1448,0.0113 -0.1428,-1.15284 z"
       style="fill:#e5e5e5;stroke-width:1" />
    <path
       id="path1422"
       d="m 447.31653,88.404254 c 0.017,-0.41097 0.1005,-0.49456 0.2131,-0.21314 0.1019,0.25466 0.089,0.55893 -0.028,0.67616 -0.1173,0.11723 -0.2007,-0.0911 -0.1853,-0.46302 z"
       style="fill:#e5e5e5;stroke-width:1" />
    <path
       id="path1420"
       d="m 453.24083,98.223234 c -0.4388,-0.55952 -0.4263,-0.572 0.1332,-0.13319 0.5877,0.46086 0.7745,0.75055 0.4842,0.75055 -0.073,0 -0.3511,-0.27781 -0.6174,-0.61736 z"
       style="fill:#e5e5e5;stroke-width:1" />
    <path
       id="path1418"
       d="m 379.64353,115.53075 c 0.3395,-0.0887 0.8951,-0.0887 1.2347,0 0.3395,0.0887 0.062,0.16133 -0.6174,0.16133 -0.6791,0 -0.9569,-0.0726 -0.6173,-0.16133 z"
       style="fill:#e5e5e5;stroke-width:1" />
    <path
       id="path1416"
       d="m 401.42753,121.66734 c -0.578,-0.29242 -0.882,-0.74296 -0.882,-1.3073 0,-1.79515 -0.9094,-1.75349 38.2764,-1.75349 39.1858,0 38.2764,-0.0417 38.2764,1.75349 0,1.79515 0.9094,1.75349 -38.2764,1.75349 -28.7376,0 -36.7003,-0.095 -37.3944,-0.44619 z"
       style="fill:#e5e5e5;stroke-width:1" />
    <path
       id="path1414"
       d="m 389.52203,125.12254 c 0,-0.77611 0.076,-1.05207 0.1606,-0.61325 0.084,0.43882 0.081,1.07382 -0.01,1.41111 -0.088,0.33729 -0.1573,-0.0218 -0.1534,-0.79786 z"
       style="fill:#e5e5e5;stroke-width:1" />
    <path
       id="path1412"
       d="m 400.79253,130.87282 c -0.6481,-0.6481 -0.5037,-1.97827 0.259,-2.38648 0.442,-0.23655 6.398,-0.36519 16.9082,-0.36519 14.2803,0 16.2922,0.0665 16.7801,0.55436 0.6501,0.65008 0.6853,1.01122 0.1892,1.93828 -0.3532,0.65985 -0.9152,0.68236 -17.0392,0.68236 -12.4983,0 -16.78,-0.10602 -17.0973,-0.42333 z"
       style="fill:#e5e5e5;stroke-width:1" />
    <path
       id="path1410"
       d="m 386.61083,131.82532 c 0.4557,-0.48507 0.9079,-0.88195 1.005,-0.88195 0.097,0 -0.1965,0.39688 -0.6522,0.88195 -0.4557,0.48507 -0.9079,0.88194 -1.0049,0.88194 -0.097,0 0.1964,-0.39687 0.6521,-0.88194 z"
       style="fill:#e5e5e5;stroke-width:1" />
    <path
       id="path1408"
       d="m 371.87453,146.09893 c -1.1047,-0.44369 -1.344,-1.29114 -0.5976,-2.11592 0.6172,-0.68205 1.4025,-0.69242 52.4535,-0.69242 35.0509,0 52.0477,0.11821 52.5092,0.36519 0.9132,0.48873 0.8639,1.58431 -0.1017,2.26065 -0.7013,0.49118 -6.2046,0.5468 -52.1229,0.5268 -30.069,-0.0131 -51.671,-0.15574 -52.1405,-0.3443 z"
       style="fill:#e5e5e5;stroke-width:1" />
    <path
       id="path1406"
       d="m 371.29023,155.08345 c -0.6815,-0.68145 -0.6879,-0.89207 -0.054,-1.75946 0.4912,-0.67178 1.4808,-0.6864 52.1229,-0.7697 54.3435,-0.0894 53.2011,-0.12001 53.5003,1.43364 0.3339,1.73341 3.0106,1.64989 -52.8724,1.64989 -46.9321,0 -52.1981,-0.0554 -52.6971,-0.55437 z"
       style="fill:#e5e5e5;stroke-width:1" />
    <path
       id="path1404"
       d="m 360.15253,165.86837 c -0.6943,-0.69429 -0.7056,-1.17592 -0.7056,-30.1625 0,-28.98657 0.011,-29.46821 0.7056,-30.1625 0.6988,-0.69883 1.1759,-0.70555 50.082,-0.70555 46.6642,0 49.3946,0.0339 49.7069,0.61736 0.314,0.5866 -2.1501,0.61736 -49.4647,0.61736 h -49.795 v 29.63333 29.63334 l 63.1472,0.0906 c 59.056,0.0847 63.1758,0.0518 63.5882,-0.5084 0.6466,-0.87839 0.6433,-57.55532 0,-58.43984 -0.4051,-0.55409 -1.3044,-0.59901 -10.1787,-0.5084 -9.1964,0.0939 -9.7131,0.0653 -9.3485,-0.51797 0.352,-0.56329 1.2233,-0.61736 9.9477,-0.61736 8.8153,0 9.6074,0.0504 10.1457,0.64513 0.5335,0.58954 0.5838,3.19981 0.5838,30.28422 0,28.26583 -0.03,29.66612 -0.6451,30.22291 -0.5952,0.5387 -5.5324,0.58385 -63.8527,0.58385 -62.7373,0 -63.2129,-0.005 -63.9132,-0.70556 z"
       style="fill:#e5e5e5;stroke-width:1" />
    <path
       id="path1402"
       d="m 394.10743,174.42712 c 1.1156,-0.07 2.9412,-0.07 4.0569,0 1.1157,0.07 0.2028,0.12729 -2.0285,0.12729 -2.2313,0 -3.1441,-0.0573 -2.0284,-0.12729 z"
       style="fill:#e5e5e5;stroke-width:1" />
    <path
       id="path1400"
       d="m 356.90313,174.77904 c 1.2203,-0.0691 3.1253,-0.0685 4.2334,0.001 1.108,0.0698 0.1096,0.12631 -2.2187,0.12561 -2.3284,-7e-4 -3.235,-0.0578 -2.0147,-0.12687 z"
       style="fill:#e5e5e5;stroke-width:1" />
    <path
       id="path1398"
       d="m 326.36348,159.81755 c 0.3396,-0.0887 0.8952,-0.0887 1.2348,0 0.3395,0.0887 0.062,0.16134 -0.6174,0.16134 -0.6791,0 -0.9569,-0.0726 -0.6174,-0.16134 z"
       style="fill:#e5e5e5;stroke-width:1" />
    <path
       id="path1396"
       d="m 405.26303,176.89268 c -0.4388,-0.55953 -0.4263,-0.57201 0.1332,-0.1332 0.3396,0.2663 0.6174,0.54411 0.6174,0.61737 0,0.29035 -0.2897,0.10347 -0.7506,-0.48417 z"
       style="fill:#e5e5e5;stroke-width:1" />
    <path
       id="path1394"
       d="m 513.4663,210.61279 c 0.3512,-0.38805 0.7179,-0.70555 0.8149,-0.70555 0.097,0 -0.1109,0.3175 -0.4621,0.70555 -0.3512,0.38806 -0.7179,0.70556 -0.8149,0.70556 -0.097,0 0.1109,-0.3175 0.4621,-0.70556 z"
       style="fill:#e5e5e5;stroke-width:1" />
    <path
       id="path1392"
       d="m 498.2634,211.93571 -0.6721,-0.79375 0.7938,0.67204 c 0.4365,0.36962 0.7937,0.7268 0.7937,0.79375 0,0.28231 -0.2839,0.0739 -0.9154,-0.67204 z"
       style="fill:#e5e5e5;stroke-width:1" />
    <path
       id="path1366"
       d="m 476.3301,261.76557 c 0,-0.6791 0.073,-0.95691 0.1613,-0.61736 0.089,0.33955 0.089,0.89517 0,1.23472 -0.089,0.33955 -0.1613,0.0617 -0.1613,-0.61736 z"
       style="fill:#e5e5e5;stroke-width:1" />
    <path
       id="path1364"
       d="m 531.71621,268.11557 c 0,-0.6791 0.073,-0.95691 0.1614,-0.61736 0.089,0.33955 0.089,0.89517 0,1.23472 -0.089,0.33955 -0.1614,0.0617 -0.1614,-0.61736 z"
       style="fill:#e5e5e5;stroke-width:1" />
    <path
       id="path1362"
       d="m 475.9773,268.11557 c 0,-0.6791 0.073,-0.95691 0.1614,-0.61736 0.089,0.33955 0.089,0.89517 0,1.23472 -0.089,0.33955 -0.1614,0.0617 -0.1614,-0.61736 z"
       style="fill:#e5e5e5;stroke-width:1" />
    <path
       id="path1360"
       d="m 532.05591,274.28918 c 0.01,-0.58208 0.086,-0.7775 0.1757,-0.43426 0.09,0.34325 0.084,0.8195 -0.013,1.05834 -0.097,0.23884 -0.1698,-0.042 -0.1626,-0.62408 z"
       style="fill:#e5e5e5;stroke-width:1" />
    <path
       id="path1358"
       d="m 481.215,277.43479 c 0.017,-0.41097 0.1005,-0.49456 0.2131,-0.21314 0.1019,0.25466 0.089,0.55893 -0.028,0.67616 -0.1172,0.11722 -0.2006,-0.0911 -0.1853,-0.46302 z"
       style="fill:#e5e5e5;stroke-width:1" />
    <path
       id="path1354"
       d="m 474.7922,283.37321 c -0.4389,-0.55953 -0.4264,-0.572 0.1331,-0.13319 0.5877,0.46085 0.7746,0.75055 0.4842,0.75055 -0.073,0 -0.3511,-0.27781 -0.6173,-0.61736 z"
       style="fill:#e5e5e5;stroke-width:1" />
    <path
       id="path1352"
       d="m 498.7856,286.63534 c -7.4564,-0.90346 -13.3806,-2.99243 -15.6687,-5.52508 -2.1472,-2.37667 -1.6317,-5.14526 2.2815,-12.25308 l 1.4368,-2.60978 -0.5465,-3.21105 c -0.3006,-1.76608 -0.6296,-3.48887 -0.7312,-3.82842 -0.1637,-0.54758 -0.7125,-0.61736 -4.8559,-0.61736 -5.8978,0 -6.0585,-0.0896 -5.7613,-3.21112 0.1183,-1.24132 0.6291,-3.84443 1.1353,-5.78471 1.5007,-5.7522 6.1489,-19.59386 7.325,-21.81278 1.4001,-2.64122 4.6458,-5.58805 7.8407,-7.11855 2.3047,-1.10404 7.938,-2.76253 7.8603,-2.31414 -0.1115,0.64408 0.7146,1.57305 2.147,2.41412 1.4658,0.8607 2.0346,0.97085 5.5149,1.06797 3.2255,0.09 4.089,-10e-4 5.1153,-0.53978 0.6791,-0.35644 1.1945,-0.84293 1.1453,-1.08109 -0.065,-0.31352 0.081,-0.33669 0.5292,-0.0839 0.3402,0.192 1.6005,0.73404 2.8007,1.20454 5.8226,2.28264 10.158,6.78599 12.35211,12.83063 0.9115,2.51112 2.927,13.93928 3.8645,21.91223 0.5929,5.04208 0.5922,5.07105 -0.1277,5.64444 -0.3979,0.31699 -0.8095,0.81447 -0.9146,1.10551 -0.1464,0.40548 -0.1975,0.37931 -0.2189,-0.11196 -0.019,-0.4398 -0.2217,-0.58372 -0.6452,-0.45831 -2.60911,0.77267 -6.63991,1.64159 -7.83161,1.68829 -1.1328,0.0444 -1.4047,0.17558 -1.2762,0.61572 0.09,0.30763 0.4972,2.46432 0.9055,4.79265 0.4082,2.32834 1.1309,6.25844 1.606,8.73356 0.475,2.47512 0.8637,5.4269 0.8637,6.5595 v 2.05929 l -5.3478,0.23146 c -7.8786,0.34101 -16.5455,0.21651 -20.7982,-0.29876 z"
       style="fill:#e5e5e5;stroke-width:1" />
    <path
       id="path1350"
       d="m 485.0956,290.48756 c 0.017,-0.41096 0.1005,-0.49456 0.2131,-0.21313 0.1019,0.25466 0.089,0.55893 -0.028,0.67616 -0.1173,0.11722 -0.2006,-0.0911 -0.1853,-0.46303 z"
       style="fill:#e5e5e5;stroke-width:1" />
    <path
       id="path1346"
       d="m 485.4483,294.7209 c 0.017,-0.41097 0.1006,-0.49456 0.2132,-0.21314 0.1019,0.25466 0.089,0.55893 -0.028,0.67616 -0.1172,0.11722 -0.2006,-0.0911 -0.1852,-0.46302 z"
       style="fill:#e5e5e5;stroke-width:1" />
    <path
       id="path1342"
       d="m 524.2539,297.19034 c 0.017,-0.41097 0.1005,-0.49456 0.2131,-0.21314 0.1019,0.25466 0.089,0.55894 -0.028,0.67616 -0.1172,0.11723 -0.2006,-0.0911 -0.1853,-0.46302 z"
       style="fill:#e5e5e5;stroke-width:1" />
    <path
       id="path1340"
       d="m 523.9011,301.42368 c 0.017,-0.41097 0.1005,-0.49456 0.2131,-0.21314 0.102,0.25466 0.089,0.55893 -0.028,0.67616 -0.1172,0.11722 -0.2006,-0.0911 -0.1853,-0.46302 z"
       style="fill:#e5e5e5;stroke-width:1" />
    <path
       id="path1338"
       d="m 486.1539,303.54034 c 0.017,-0.41097 0.1005,-0.49456 0.2131,-0.21314 0.1019,0.25466 0.089,0.55894 -0.028,0.67616 -0.1172,0.11723 -0.2006,-0.0911 -0.1853,-0.46302 z"
       style="fill:#e5e5e5;stroke-width:1" />
    <path
       id="path1336"
       d="m 486.5067,308.12645 c 0.017,-0.41096 0.1005,-0.49456 0.2131,-0.21313 0.1019,0.25466 0.089,0.55893 -0.028,0.67615 -0.1173,0.11723 -0.2006,-0.0911 -0.1853,-0.46302 z"
       style="fill:#e5e5e5;stroke-width:1" />
    <path
       id="path1334"
       d="m 486.8873,312.56557 c 0,-0.48507 0.08,-0.6835 0.1779,-0.44097 0.098,0.24254 0.098,0.63941 0,0.88195 -0.098,0.24253 -0.1779,0.0441 -0.1779,-0.44098 z"
       style="fill:#e5e5e5;stroke-width:1" />
    <path
       id="path1332"
       d="m 522.8428,313.7709 c 0.017,-0.41097 0.1005,-0.49456 0.2131,-0.21314 0.1019,0.25466 0.089,0.55893 -0.028,0.67616 -0.1172,0.11722 -0.2006,-0.0911 -0.1853,-0.46302 z"
       style="fill:#e5e5e5;stroke-width:1" />
    <path
       id="path1330"
       d="m 486.1539,319.76812 c 0.017,-0.41097 0.1005,-0.49456 0.2131,-0.21314 0.1019,0.25466 0.089,0.55894 -0.028,0.67616 -0.1172,0.11723 -0.2006,-0.0911 -0.1853,-0.46302 z"
       style="fill:#e5e5e5;stroke-width:1" />
    <path
       id="path1326"
       d="m 510.1428,320.47368 c 0.017,-0.41097 0.1005,-0.49456 0.2131,-0.21314 0.1019,0.25466 0.089,0.55893 -0.028,0.67616 -0.1172,0.11722 -0.2006,-0.0911 -0.1853,-0.46302 z"
       style="fill:#e5e5e5;stroke-width:1" />
    <path
       id="path1324"
       d="m 509.79,324.70701 c 0.017,-0.41097 0.1005,-0.49456 0.2131,-0.21314 0.1019,0.25466 0.089,0.55894 -0.028,0.67616 -0.1172,0.11723 -0.2006,-0.0911 -0.1853,-0.46302 z"
       style="fill:#e5e5e5;stroke-width:1" />
    <path
       id="path1322"
       d="m 486.5797,339.90585 c 0,-0.97014 0.071,-1.32514 0.1523,-0.7889 0.081,0.53625 0.079,1.33 0,1.76389 -0.084,0.4339 -0.1501,-0.005 -0.1475,-0.97499 z"
       style="fill:#e5e5e5;stroke-width:1" />
    <path
       id="path1320"
       d="m 515.0538,350.66557 c -0.3179,-0.20548 -0.3615,-0.34413 -0.109,-0.34737 0.2311,-0.003 0.5183,0.15335 0.6382,0.34737 0.2707,0.43799 0.1485,0.43799 -0.5292,0 z"
       style="fill:#e5e5e5;stroke-width:1" />
    <path
       id="path1302"
       d="m 502.6616,360.27877 c -0.4388,-0.55953 -0.4263,-0.57201 0.1332,-0.1332 0.3395,0.2663 0.6174,0.54411 0.6174,0.61736 0,0.29035 -0.2897,0.10348 -0.7506,-0.48416 z"
       style="fill:#e5e5e5;stroke-width:1" />
    <path
       d="m 463.92366,68.563541 c -9.16409,-0.01132 -17.25309,7.744962 -16.53646,17.929648 0.3656,5.196257 2.95797,9.630648 7.32927,12.536699 2.0509,1.363402 2.68927,2.042102 3.91087,4.159432 0.803,1.39163 2.32526,4.01468 3.38326,5.82912 l 1.92391,3.29901 3.3476,-5.826 c 3.2313,-5.62324 3.42617,-5.87671 5.59397,-7.278629 5.2929,-3.423021 7.85706,-8.652087 7.50756,-15.309665 -0.1404,-2.676022 -0.33058,-3.37603 -1.63298,-6.004269 -1.7539,-3.539649 -4.35891,-6.139868 -7.73751,-7.724087 -2.34758,-1.100772 -4.75355,-1.608376 -7.08949,-1.611259 z m 0.12712,10.548196 c 3.60665,0.07181 6.81446,3.618865 5.79241,7.453789 -0.4446,1.668171 -1.91332,3.416538 -3.38842,4.032832 -3.441,1.437746 -7.25072,-0.469212 -8.23412,-4.121203 -0.7052,-2.61874 0.74459,-5.600277 3.31659,-6.820773 0.82765,-0.392721 1.68124,-0.561234 2.51354,-0.544645 z m -83.9158,36.635983 c -3.28153,7.9e-4 -6.43851,1.81208 -8.14576,4.9775 -2.8475,5.27949 0.14555,11.99621 5.97845,13.41622 4.316,1.05074 8.99174,-1.28248 10.74714,-5.36299 0.6275,-1.45934 0.76188,-2.31746 0.64958,-4.15838 -0.2323,-3.80688 -1.99356,-6.42109 -5.39916,-8.01399 -1.2429,-0.58134 -2.54618,-0.85865 -3.83025,-0.85836 z"
       style="fill:#51ff00;fill-opacity:1;stroke-width:1"
       id="path1306" />
    <path
       id="path1308"
       d="m 490.0027,352.34127 c -0.3844,-0.63059 -0.6996,-1.26559 -0.7003,-1.41111 -7e-4,-0.14552 -0.2395,-0.26459 -0.5305,-0.26459 -0.2911,0 -0.5292,-0.15875 -0.5292,-0.35277 0,-0.19403 0.8334,-0.35495 1.8521,-0.3576 1.0186,-0.003 2.1874,-0.0948 2.5972,-0.20483 0.5649,-0.15162 0.7953,-0.009 0.9521,0.59102 0.2802,1.07153 -0.2376,1.92421 -1.5731,2.59044 -0.613,0.30578 -1.1718,0.55597 -1.2418,0.55597 -0.07,0 -0.442,-0.51594 -0.8265,-1.14653 z m 17.3044,-0.0729 -0.8439,-0.89823 0.8293,-2.64414 c 0.7476,-2.38382 0.885,-2.59372 1.3952,-2.13198 0.5716,0.51732 4.2157,1.60211 5.3819,1.60211 0.666,0 0.7576,0.37525 0.4091,1.67569 -0.173,0.64568 -0.4615,0.79375 -1.5465,0.79375 -1.2803,0 -1.3317,0.046 -1.2818,1.14653 0.052,1.13583 0.036,1.1475 -1.7237,1.25051 -1.5205,0.089 -1.8971,-0.0252 -2.6196,-0.79424 z m 22.48791,-62.88481 c -2.67881,-0.40775 -3.50931,-3.99275 -2.18921,-9.44993 l 0.512,-2.11667 -2.6739,-6.6681 c -2.7765,-6.9242 -2.8226,-7.24576 -1.0415,-7.26242 0.3881,-0.004 2.0755,-0.37298 3.7498,-0.82078 l 3.04411,-0.81418 0.2104,2.49107 c 0.1157,1.37009 0.3052,4.71358 0.4209,7.42997 0.143,3.35485 0.4377,5.72159 0.9187,7.37929 1.7232,5.93803 1.5534,8.68423 -0.5922,9.58072 -0.6615,0.27637 -1.2474,0.4787 -1.3021,0.44963 -0.055,-0.0291 -0.5304,-0.11844 -1.057,-0.1986 z m -53.54671,-5.35891 c -0.5149,-0.13474 -1.1468,-0.74042 -1.5184,-1.45535 -0.7723,-1.48606 -0.5906,-4.1178 0.5165,-7.47889 0.5527,-1.67799 0.8256,-3.91649 1.1299,-9.26789 l 0.4011,-7.05556 4.2334,0.12767 c 2.3283,0.0702 4.2704,0.16023 4.3157,0.20002 0.045,0.0398 -1.122,3.07796 -2.594,6.75149 l -2.6765,6.67915 0.5656,2.34353 c 0.6344,2.62872 0.736,5.80516 0.2285,7.14006 -0.5768,1.51716 -2.7947,2.48868 -4.6018,2.01577 z m 27.6318,-62.4914 c -1.7941,-0.35475 -3.2467,-1.07841 -4.1351,-2.06009 -0.6561,-0.72495 -0.6518,-0.77049 0.2654,-2.81426 0.5128,-1.14257 0.9263,-2.29566 0.9189,-2.56244 -0.01,-0.26678 -0.6027,-0.89267 -1.3229,-1.39087 -2.0326,-1.40601 -3.3341,-4.13689 -3.508,-7.36077 -0.082,-1.51588 -0.015,-2.4866 0.1552,-2.24623 0.2069,0.2928 0.4463,0.091 0.7763,-0.6546 0.6628,-1.49733 2.377,-2.17542 4.3492,-1.72041 0.8271,0.19083 2.8826,0.35084 4.5677,0.35559 3.6402,0.0102 4.6994,0.35021 5.5056,1.76709 0.3316,0.58261 0.884,1.0603 1.2277,1.06152 0.3437,0.001 0.8028,0.39261 1.0202,0.86973 0.318,0.69802 0.277,1.04801 -0.2102,1.79155 -0.3569,0.54469 -0.8119,0.84483 -1.1084,0.73108 -0.9164,-0.35167 -0.8818,9.48405 0.041,11.69307 0.4624,1.10668 0.4663,1.34373 0.029,1.78081 -0.993,0.99298 -5.4109,1.38428 -8.572,0.75923 z"
       style="fill:#51ff00;stroke-width:1;fill-opacity:1" />
    <path
       id="path1316"
       d="m 516.9941,368.46866 c -2.4146,-0.65471 -6.5264,-2.67325 -6.5264,-3.2039 0,-1.04655 -1.8739,-2.61701 -3.7859,-3.17284 -2.0243,-0.58849 -5.0335,-2.91939 -5.0335,-3.8989 0,-0.27312 0.9024,-2.18656 2.0054,-4.2521 1.7151,-3.21174 2.0599,-3.66232 2.3813,-3.11187 1.1345,1.94331 1.7771,2.3692 3.6606,2.42621 2.0367,0.0616 2.535,-0.31907 2.2652,-1.73055 -0.1559,-0.81557 -0.077,-0.85914 1.5606,-0.85914 h 1.7248 l 1.9323,3.96421 c 1.5159,3.11005 2.4112,4.45085 4.155,6.2227 1.2225,1.24217 2.5322,2.86508 2.9104,3.60646 0.9072,1.77817 0.9096,3.70193 0.01,4.18589 -0.9414,0.50382 -5.1216,0.40231 -7.2551,-0.17617 z m -34.2148,-1.04877 c -1.8324,-0.6525 -2.3985,-1.43947 -2.1545,-2.99485 0.189,-1.20529 2.6986,-5.19397 3.6165,-5.74803 0.2541,-0.15337 0.9596,-1.89962 1.5678,-3.88056 0.6082,-1.98094 1.2342,-3.7409 1.3911,-3.91102 0.5459,-0.59186 2.0053,0.10898 2.4469,1.17507 0.6619,1.59805 1.2983,1.99763 2.0696,1.29959 0.3512,-0.31781 0.8089,-0.57785 1.0171,-0.57785 0.2082,0 0.6882,-0.48914 1.0667,-1.08698 l 0.6883,-1.08699 0.582,4.35018 c 0.8978,6.71 0.8302,7.08956 -1.5285,8.5785 -1.0711,0.6762 -1.3973,1.1208 -1.4841,2.02332 -0.088,0.91806 -0.3661,1.28395 -1.346,1.77351 -1.5306,0.7646 -5.8945,0.81197 -7.9329,0.0861 z m 4.8403,-17.73292 c -0.645,-0.44021 -1.2594,-29.24287 -0.7253,-34.00279 0.333,-2.96737 0.2334,-5.25966 -0.7708,-17.73711 -0.6344,-7.88113 -1.0815,-14.40116 -0.9937,-14.48897 0.088,-0.0878 1.2607,0.30271 2.6064,0.86782 5.7061,2.39613 14.5364,3.39259 26.9937,3.04613 l 8.6718,-0.24118 0.4737,3.57838 c 0.4281,3.23457 0.3963,4.53271 -0.3303,13.5111 -0.98,12.11039 -1.3478,14.27224 -5.2225,30.70063 l -3.0677,13.00679 -2.1394,-0.17173 c -2.1262,-0.17067 -4.9283,-1.28604 -5.1879,-2.06507 -0.075,-0.22405 0.1467,-2.72861 0.492,-5.56568 1.3565,-11.14629 2.035,-17.61157 2.093,-19.94557 0.049,-1.94911 -0.5,-4.84098 -2.7261,-14.3737 -1.5328,-6.56352 -2.8725,-11.93458 -2.9771,-11.93567 -0.1047,-10e-4 -1.6587,6.62581 -3.4533,14.72647 -1.7947,8.10066 -3.9705,17.66535 -4.8351,21.25486 -0.9684,4.02039 -1.8658,8.96466 -2.3372,12.87639 -0.4209,3.4925 -0.8583,6.45742 -0.9719,6.5887 -0.3351,0.38697 -5.105,0.70273 -5.5923,0.3702 z m 24.2721,-140.04432 c -0.011,-1.89278 0.077,-2.20486 0.6221,-2.20486 0.8986,0 1.4817,-0.69416 1.4817,-1.76389 0,-1.06972 -0.5831,-1.76389 -1.4817,-1.76389 -0.3492,0 -0.635,-0.22054 -0.635,-0.49008 0,-0.26955 -0.3027,-0.86394 -0.6727,-1.32087 -0.5957,-0.73567 -1.0703,-0.85674 -4.1451,-1.0575 -1.9099,-0.12469 -4.5385,-0.34542 -5.8415,-0.49049 l -2.3691,-0.26377 -1.2469,1.24691 -1.2469,1.24692 v -2.58349 c 0,-2.22658 0.1193,-2.72532 0.8638,-3.61008 1.1709,-1.39153 4.4158,-3.06616 7.6724,-3.95961 2.3044,-0.6322 2.9226,-0.67976 4.3062,-0.33135 2.2457,0.56547 4.4216,2.59975 6.0062,5.61521 2.4632,4.68743 2.04,8.2708 -1.4088,11.92902 l -1.8919,2.00668 -0.013,-2.20486 z"
       style="fill:#0d1821;fill-opacity:1;stroke-width:1" />
  </g>
  <g
     transform="translate(-326.62399,-9.931907)"
     id="g873" />
</svg>
