<?xml version="1.0" encoding="UTF-8" standalone="no"?>
<svg
   xmlns:dc="http://purl.org/dc/elements/1.1/"
   xmlns:cc="http://creativecommons.org/ns#"
   xmlns:rdf="http://www.w3.org/1999/02/22-rdf-syntax-ns#"
   xmlns:svg="http://www.w3.org/2000/svg"
   xmlns="http://www.w3.org/2000/svg"
   width="2336.4185mm"
   height="341.97964mm"
   viewBox="0 0 2336.4185 341.97964"
   version="1.1"
   id="svg8">
  <defs
     id="defs2" />
  <metadata
     id="metadata5">
    <rdf:RDF>
      <cc:Work
         rdf:about="">
        <dc:format>image/svg+xml</dc:format>
        <dc:type
           rdf:resource="http://purl.org/dc/dcmitype/StillImage" />
        <dc:title></dc:title>
      </cc:Work>
    </rdf:RDF>
  </metadata>
  <rect
     y="768.21118"
     x="987.46832"
     height="32.855656"
     width="58.044994"
     id="rect893"
     style="opacity:0.24918;fill:none;fill-rule:evenodd;stroke-width:0.900112;stroke-linecap:round;stroke-linejoin:round" />
  <g
     transform="translate(1050.134,943.67341)"
     id="g923">
    <path
       id="path1084"
       style="fill:#51ff00;fill-opacity:1;fill-rule:evenodd;stroke:none;stroke-width:0.900112;stroke-linecap:round;stroke-linejoin:round"
       d="m -735.25587,-943.67341 296.35795,179.69605 -106.03797,53.55726 v -17.01225 h -0.1516 l 0.32956,-0.41146 -27.87936,-12.23574 a 221.06004,116.78944 0 0 0 -163.25743,-38.24898 221.06004,116.78944 0 0 0 -0.23775,0 221.06004,116.78944 0 0 0 -182.60622,50.89581 h -0.5087 c -2.2616,1.48523 -10.5154,6.56954 -12.2413,7.63253 l 0.3569,30.16201 -109.09411,-62.99098 z m -0.39969,182.05995 a 232.29859,149.31143 0.273734 0 1 169.61837,47.15255 v 99.31435 a 232.29757,103.09851 0.138132 0 0 -134.73956,-31.37922 v -72.8467 h -59.46934 v 72.2463 a 232.29757,103.09851 0.138132 0 0 -147.0619,33.16967 v -98.78415 a 232.29859,149.31143 0.273734 0 1 171.65243,-48.8728 z m -304.02814,19.59239 10.072,5.81492 3.0561,72.59793 a 12.792681,11.01944 0 0 1 7.0754,9.86109 12.792681,11.01944 0 0 1 -6.2639,9.47156 l 0.4388,10.41285 13.1718,32.16897 h -38.0005 l 10.451,-31.41166 v -11.66778 a 12.792681,11.01944 0 0 1 -5.3825,-8.97394 v -0.009 a 12.792681,11.01944 0 0 1 5.3825,-8.97394 z m 438.14569,19.42469 h -27.58751 v 25.07737 h 27.58751 z m -33.67826,0 h -27.58201 v 25.07737 h 27.58201 z m -169.80796,0 h -27.58709 v 25.07737 h 27.58709 z m -33.67817,0 h -27.58166 v 25.07737 h 27.58166 z m 237.16439,30.09177 h -27.58751 v 25.07737 h 27.58751 z m -33.32132,0 h -27.5819 v 25.07737 h 27.5819 z m -170.1649,0 h -27.58709 v 25.07737 h 27.58709 z m -33.32094,0 h -27.58195 v 25.07737 h 27.58195 z m 125.75461,14.34537 a 4.1487345,4.1487345 0 0 1 4.14884,4.14895 4.1487345,4.1487345 0 0 1 -4.14884,4.14894 4.1487345,4.1487345 0 0 1 -4.14871,-4.14894 4.1487345,4.1487345 0 0 1 4.14871,-4.14895 z" />
    <g
       aria-label="RateMyRes"
       id="text847"
       style="font-size:307.913px;line-height:1.25;font-family:Rubik;-inkscape-font-specification:Rubik;letter-spacing:2.02068px;stroke-width:0.264583">
      <path
         d="m -413.86185,-666.13336 q -3.38704,0 -5.54244,-2.15539 -2.15539,-2.46331 -2.15539,-5.54244 v -200.14344 q 0,-3.38705 2.15539,-5.54244 2.1554,-2.15539 5.54244,-2.15539 h 83.75233 q 40.02869,0 62.81425,18.47478 22.78556,18.16687 22.78556,51.72938 0,21.86183 -10.46904,36.94956 -10.46904,15.08774 -27.71217,22.78557 l 42.18408,75.74659 q 0.92374,1.84748 0.92374,3.38705 0,2.4633 -2.15539,4.61869 -1.84748,1.84748 -4.31078,1.84748 h -40.95243 q -5.85035,0 -8.62156,-2.77122 -2.77122,-3.07913 -4.00287,-5.54243 l -35.10208,-67.74086 h -31.40713 v 68.35668 q 0,3.07913 -2.4633,5.54244 -2.15539,2.15539 -5.54244,2.15539 z m 47.72651,-119.77816 h 35.41 q 14.47191,0 21.55391,-7.082 7.38991,-7.08199 7.38991,-19.0906 0,-12.00861 -7.082,-19.39852 -6.77409,-7.38991 -21.86182,-7.38991 h -35.41 z"
         style="font-style:normal;font-variant:normal;font-weight:bold;font-stretch:normal;font-family:Rubik;-inkscape-font-specification:'Rubik Bold';fill:#030027;fill-opacity:1;stroke-width:0.264583"
         id="path893" />
      <path
         d="m -161.99864,-663.05423 q -16.6273,0 -29.86756,-6.15826 -12.93235,-6.46617 -20.63017,-17.24313 -7.69783,-10.77695 -7.69783,-24.32513 0,-21.86182 17.85896,-34.48625 17.85895,-12.93235 47.4186,-17.55104 l 38.48912,-5.85035 v -4.31078 q 0,-11.08487 -4.61869,-16.93522 -4.6187,-5.85034 -16.93522,-5.85034 -8.62156,0 -14.164,3.38704 -5.23452,3.38704 -8.31365,9.23739 -2.77121,4.00287 -7.69782,4.00287 h -34.48626 q -3.38704,0 -5.23452,-1.84748 -1.84748,-2.15539 -1.53956,-4.92661 0,-5.54243 4.00287,-12.62443 4.31078,-7.38991 12.93234,-14.47191 8.62157,-7.082 22.16974,-11.70069 13.54817,-4.6187 32.94669,-4.6187 19.70643,0 33.87043,4.6187 14.163995,4.61869 23.093471,12.93234 8.929477,8.31365 12.932346,19.70643 4.310782,11.08487 4.310782,24.63304 v 93.60555 q 0,3.07913 -2.463304,5.54244 -2.155391,2.15539 -5.234521,2.15539 H -106.5743 q -3.38705,0 -5.54244,-2.15539 -2.15539,-2.46331 -2.15539,-5.54244 v -10.77695 q -4.00287,5.85035 -10.77695,10.77695 -6.77409,4.92661 -16.01148,7.69783 -8.92948,3.07913 -20.93808,3.07913 z m 14.47191,-35.10208 q 8.92948,0 16.01147,-3.69496 7.38992,-4.00287 11.39279,-12.00861 4.31078,-8.31365 4.31078,-20.63017 v -4.31078 l -26.17261,4.6187 q -14.47191,2.4633 -21.24599,7.69782 -6.46618,4.92661 -6.46618,11.7007 0,5.23452 3.07913,8.92947 3.07913,3.69496 8.00574,5.85035 5.23452,1.84748 11.08487,1.84748 z"
         style="font-style:normal;font-variant:normal;font-weight:bold;font-stretch:normal;font-family:Rubik;-inkscape-font-specification:'Rubik Bold';fill:#030027;fill-opacity:1;stroke-width:0.264583"
         id="path895" />
      <path
         d="m 54.310249,-666.13336 q -19.706432,0 -34.178343,-6.15826 -14.1639976,-6.46617 -21.8618224,-19.70643 -7.6978249,-13.54818 -7.6978249,-34.79417 v -59.1193 H -33.444955 q -3.387043,0 -5.850347,-2.15539 -2.155391,-2.15539 -2.155391,-5.54243 v -24.94095 q 0,-3.38705 2.155391,-5.54244 2.463304,-2.15539 5.850347,-2.15539 h 24.0172137 v -50.80564 q 0,-3.38705 2.155391,-5.54244 2.4633039,-2.15539 5.5424339,-2.15539 H 33.987991 q 3.387043,0 5.542434,2.15539 2.155391,2.15539 2.155391,5.54244 v 50.80564 H 80.17494 q 3.387043,0 5.542434,2.15539 2.463304,2.15539 2.463304,5.54244 v 24.94095 q 0,3.38704 -2.463304,5.54243 -2.155391,2.15539 -5.542434,2.15539 H 41.685816 v 54.80852 q 0,10.46904 4.002869,16.6273 4.002869,6.15826 13.548171,6.15826 h 23.709301 q 3.387043,0 5.542434,2.15539 2.155391,2.15539 2.155391,5.54243 v 26.78843 q 0,3.07913 -2.155391,5.54244 -2.155391,2.15539 -5.542434,2.15539 z"
         style="font-style:normal;font-variant:normal;font-weight:bold;font-stretch:normal;font-family:Rubik;-inkscape-font-specification:'Rubik Bold';fill:#030027;fill-opacity:1;stroke-width:0.264583"
         id="path897" />
      <path
         d="m 192.05799,-663.05423 q -36.33373,0 -57.88764,-19.70643 -21.55391,-19.70644 -22.47765,-58.50347 0,-2.15539 0,-5.54244 0,-3.38704 0,-5.23452 0.92374,-24.32512 10.77695,-41.56825 10.16113,-17.55104 27.71217,-26.48052 17.85896,-9.23739 41.56826,-9.23739 27.09634,0 44.64738,10.77696 17.85895,10.77695 26.78843,29.25173 8.92948,18.47478 8.92948,42.18408 v 7.38991 q 0,3.38705 -2.15539,5.54244 -2.15539,2.15539 -5.54244,2.15539 h -98.53215 q 0,0.30791 0,0.92374 0,0.61582 0,1.23165 0.30791,8.92948 3.07913,16.31939 3.07913,7.38991 8.62156,11.70069 5.85035,4.31078 14.164,4.31078 6.15826,0 10.16113,-1.84748 4.31078,-2.15539 7.08199,-4.61869 2.77122,-2.77122 4.31079,-4.6187 2.77121,-3.38704 4.31078,-4.00286 1.84748,-0.92374 5.54243,-0.92374 h 38.18121 q 3.07913,0 4.92661,1.84748 2.15539,1.84747 1.84748,4.9266 -0.30791,5.23452 -5.23452,12.62444 -4.92661,7.38991 -14.47191,14.77982 -9.23739,7.082 -23.40139,11.70069 -14.164,4.6187 -32.94669,4.6187 z m -26.1726,-99.4559 h 52.03729 v -0.61583 q 0,-10.16112 -3.07913,-17.24312 -2.77122,-7.38991 -8.92948,-11.39278 -5.85034,-4.00287 -14.16399,-4.00287 -8.00574,0 -13.85609,4.00287 -5.85034,4.00287 -8.92947,11.39278 -3.07913,7.082 -3.07913,17.24312 z"
         style="font-style:normal;font-variant:normal;font-weight:bold;font-stretch:normal;font-family:Rubik;-inkscape-font-specification:'Rubik Bold';fill:#030027;fill-opacity:1;stroke-width:0.264583"
         id="path899" />
      <path
         d="m 314.08779,-666.13336 q -3.07913,0 -5.54243,-2.15539 -2.15539,-2.46331 -2.15539,-5.54244 v -200.14344 q 0,-3.38705 2.15539,-5.54244 2.4633,-2.15539 5.54243,-2.15539 h 33.25461 q 5.23452,0 7.69782,2.77122 2.46331,2.4633 3.07913,4.00287 l 54.19269,96.99259 54.19269,-96.99259 q 0.92374,-1.53957 3.07913,-4.00287 2.4633,-2.77122 7.69782,-2.77122 h 32.94669 q 3.38704,0 5.54244,2.15539 2.4633,2.15539 2.4633,5.54244 v 200.14344 q 0,3.07913 -2.4633,5.54244 -2.1554,2.15539 -5.54244,2.15539 h -36.64164 q -3.38705,0 -5.85035,-2.15539 -2.15539,-2.46331 -2.15539,-5.54244 v -115.46737 l -34.48626,64.35382 q -1.53956,2.77121 -4.00287,4.9266 -2.4633,2.1554 -6.77408,2.1554 H 404.3063 q -4.31078,0 -6.77408,-2.1554 -2.46331,-2.15539 -4.00287,-4.9266 l -34.79417,-64.35382 v 115.46737 q 0,3.07913 -2.15539,5.54244 -2.15539,2.15539 -5.54244,2.15539 z"
         style="font-style:normal;font-variant:normal;font-weight:bold;font-stretch:normal;font-family:Rubik;-inkscape-font-specification:'Rubik Bold';fill:#030027;fill-opacity:1;stroke-width:0.264583"
         id="path901" />
      <path
         d="m 589.8816,-607.62989 q -2.77122,0 -4.6187,-1.84748 -1.84748,-1.84748 -1.84748,-4.6187 0,-0.61582 0,-1.84747 0.30792,-0.92374 0.92374,-2.15539 l 24.01721,-57.88765 -59.11929,-139.7925 q -0.92374,-2.15539 -0.92374,-3.69495 0.61583,-2.77122 2.4633,-4.6187 1.84748,-2.15539 4.6187,-2.15539 h 35.10208 q 4.00287,0 5.85035,2.15539 2.15539,1.84748 3.07913,4.31078 l 35.10208,89.60269 36.02582,-89.60269 q 1.23165,-2.4633 3.07913,-4.31078 2.15539,-2.15539 6.15826,-2.15539 h 34.48625 q 2.77122,0 4.6187,2.15539 2.15539,1.84748 2.15539,4.31078 0,1.53957 -0.92374,4.00287 l -87.13938,201.68301 q -0.92373,2.46331 -3.07913,4.31079 -2.15539,2.15539 -6.15826,2.15539 z"
         style="font-style:normal;font-variant:normal;font-weight:bold;font-stretch:normal;font-family:Rubik;-inkscape-font-specification:'Rubik Bold';fill:#030027;fill-opacity:1;stroke-width:0.264583"
         id="path903" />
      <path
         d="m 757.14572,-666.13336 q -3.38705,0 -5.54244,-2.15539 -2.15539,-2.46331 -2.15539,-5.54244 v -200.14344 q 0,-3.38705 2.15539,-5.54244 2.15539,-2.15539 5.54244,-2.15539 h 83.75233 q 40.02869,0 62.81425,18.47478 22.78556,18.16687 22.78556,51.72938 0,21.86183 -10.46904,36.94956 -10.46904,15.08774 -27.71217,22.78557 l 42.18408,75.74659 q 0.92374,1.84748 0.92374,3.38705 0,2.4633 -2.15539,4.61869 -1.84748,1.84748 -4.31078,1.84748 h -40.95243 q -5.85035,0 -8.62156,-2.77122 -2.77122,-3.07913 -4.00287,-5.54243 l -35.10208,-67.74086 h -31.40713 v 68.35668 q 0,3.07913 -2.4633,5.54244 -2.15539,2.15539 -5.54244,2.15539 z m 47.72651,-119.77816 h 35.40999 q 14.47192,0 21.55391,-7.082 7.38992,-7.08199 7.38992,-19.0906 0,-12.00861 -7.082,-19.39852 -6.77409,-7.38991 -21.86183,-7.38991 h -35.40999 z"
         style="font-style:normal;font-variant:normal;font-weight:bold;font-stretch:normal;font-family:Rubik;-inkscape-font-specification:'Rubik Bold';fill:#51ff00;fill-opacity:1;stroke-width:0.264583"
         id="path905" />
      <path
         d="m 1032.468,-663.05423 q -36.33371,0 -57.88762,-19.70643 -21.55391,-19.70644 -22.47765,-58.50347 0,-2.15539 0,-5.54244 0,-3.38704 0,-5.23452 0.92374,-24.32512 10.77696,-41.56825 10.16113,-17.55104 27.71217,-26.48052 17.85894,-9.23739 41.56824,-9.23739 27.0964,0 44.6474,10.77696 17.8589,10.77695 26.7884,29.25173 8.9295,18.47478 8.9295,42.18408 v 7.38991 q 0,3.38705 -2.1554,5.54244 -2.1554,2.15539 -5.5424,2.15539 h -98.5322 q 0,0.30791 0,0.92374 0,0.61582 0,1.23165 0.3079,8.92948 3.0791,16.31939 3.0792,7.38991 8.6216,11.70069 5.8504,4.31078 14.164,4.31078 6.1583,0 10.1611,-1.84748 4.3108,-2.15539 7.082,-4.61869 2.7713,-2.77122 4.3108,-4.6187 2.7712,-3.38704 4.3108,-4.00286 1.8475,-0.92374 5.5424,-0.92374 h 38.1812 q 3.0792,0 4.9267,1.84748 2.1553,1.84747 1.8474,4.9266 -0.3079,5.23452 -5.2345,12.62444 -4.9266,7.38991 -14.4719,14.77982 -9.2374,7.082 -23.4014,11.70069 -14.164,4.6187 -32.9467,4.6187 z m -26.1726,-99.4559 h 52.0373 v -0.61583 q 0,-10.16112 -3.0791,-17.24312 -2.7712,-7.38991 -8.9295,-11.39278 -5.8503,-4.00287 -14.164,-4.00287 -8.0057,0 -13.8561,4.00287 -5.8503,4.00287 -8.9295,11.39278 -3.0791,7.082 -3.0791,17.24312 z"
         style="font-style:normal;font-variant:normal;font-weight:bold;font-stretch:normal;font-family:Rubik;-inkscape-font-specification:'Rubik Bold';fill:#51ff00;fill-opacity:1;stroke-width:0.264583"
         id="path907" />
      <path
         d="m 1209.3063,-663.05423 q -20.0144,0 -34.1784,-4.31078 -13.856,-4.6187 -22.7855,-11.08487 -8.6216,-6.46617 -12.9324,-13.24026 -4.3108,-7.082 -4.6187,-12.31652 -0.3079,-3.38704 2.1554,-5.54243 2.4633,-2.15539 5.2345,-2.15539 h 35.1021 q 0.9238,0 1.5396,0.30791 0.9237,0.30791 1.8475,1.23165 4.0028,2.15539 8.0057,5.54243 4.0029,3.07913 9.2374,5.54244 5.2345,2.4633 12.6244,2.4633 8.6216,0 14.4719,-3.38704 5.8504,-3.69496 5.8504,-10.16113 0,-4.92661 -2.7712,-8.00574 -2.7712,-3.38704 -11.3928,-6.46617 -8.3137,-3.07913 -25.2489,-6.15826 -16.0114,-3.69496 -28.0201,-9.5453 -12.0086,-6.15826 -18.4747,-15.70357 -6.4662,-9.85321 -6.4662,-23.7093 0,-12.31652 8.0057,-23.7093 8.0058,-11.39278 23.4014,-18.47478 15.3957,-7.38991 38.1812,-7.38991 17.5511,0 30.7913,4.31078 13.2403,4.00287 22.1698,10.46904 8.9294,6.46618 13.5481,13.24026 4.6187,6.77409 4.9266,12.31652 0.308,3.07913 -1.8474,5.54244 -2.1554,2.15539 -4.9266,2.15539 h -32.023 q -1.2316,0 -2.4633,-0.30791 -1.2317,-0.61583 -2.1554,-1.23166 -3.6949,-1.84747 -7.3899,-4.9266 -3.695,-3.07913 -8.6216,-5.54244 -4.9266,-2.4633 -12.3165,-2.4633 -8.3136,0 -12.9323,3.69495 -4.6187,3.69496 -4.6187,9.54531 0,4.00287 2.4633,7.38991 2.7712,3.38704 10.7769,6.15826 8.3137,2.77122 25.5568,6.15826 21.246,3.38704 33.8704,11.08487 12.6245,7.38991 17.859,17.55104 5.5424,9.85321 5.5424,20.93808 0,14.77982 -8.9294,26.1726 -8.9295,11.39279 -26.1727,17.85896 -16.9352,6.15826 -41.8761,6.15826 z"
         style="font-style:normal;font-variant:normal;font-weight:bold;font-stretch:normal;font-family:Rubik;-inkscape-font-specification:'Rubik Bold';fill:#51ff00;fill-opacity:1;stroke-width:0.264583"
         id="path909" />
    </g>
  </g>
  <text
     id="text855"
     y="544.56702"
     x="1011.9357"
     style="font-size:8.46667px;line-height:1.25;font-family:Rubik;-inkscape-font-specification:Rubik;letter-spacing:0.0555625px;stroke-width:0.264583"
     xml:space="preserve"><tspan
       style="stroke-width:0.264583"
       y="544.56702"
       x="1011.9357"
       id="tspan853" /></text>
</svg>
