<?xml version="1.0" encoding="UTF-8" standalone="no"?>
<svg
   xmlns:dc="http://purl.org/dc/elements/1.1/"
   xmlns:cc="http://creativecommons.org/ns#"
   xmlns:rdf="http://www.w3.org/1999/02/22-rdf-syntax-ns#"
   xmlns:svg="http://www.w3.org/2000/svg"
   xmlns="http://www.w3.org/2000/svg"
   xmlns:sodipodi="http://sodipodi.sourceforge.net/DTD/sodipodi-0.dtd"
   xmlns:inkscape="http://www.inkscape.org/namespaces/inkscape"
   id="svg8"
   version="1.1"
   viewBox="0 0 443.64734 290.6145"
   height="290.6145mm"
   width="443.64734mm"
   sodipodi:docname="ReviewAvatar.svg"
   inkscape:version="1.0 (4035a4fb49, 2020-05-01)">
  <sodipodi:namedview
     inkscape:document-rotation="0"
     pagecolor="#ffffff"
     bordercolor="#666666"
     borderopacity="1"
     objecttolerance="10"
     gridtolerance="10"
     guidetolerance="10"
     inkscape:pageopacity="0"
     inkscape:pageshadow="2"
     inkscape:window-width="1920"
     inkscape:window-height="1001"
     id="namedview32"
     showgrid="false"
     inkscape:zoom="0.31881857"
     inkscape:cx="-87.339921"
     inkscape:cy="458.89879"
     inkscape:window-x="-9"
     inkscape:window-y="-9"
     inkscape:window-maximized="1"
     inkscape:current-layer="svg8" />
  <defs
     id="defs2" />
  <metadata
     id="metadata5">
    <rdf:RDF>
      <cc:Work
         rdf:about="">
        <dc:format>image/svg+xml</dc:format>
        <dc:type
           rdf:resource="http://purl.org/dc/dcmitype/StillImage" />
        <dc:title />
      </cc:Work>
    </rdf:RDF>
  </metadata>
  <path
     style="fill:#ececec;stroke-width:1;opacity:0.29836066"
     d="m 261.75182,134.96112 c 0.004,-7.54269 0.23402,-10.45335 0.51178,-6.46816 0.27795,3.98519 0.27484,10.15647 -0.008,13.71396 -0.28106,3.55746 -0.50847,0.297 -0.5049,-7.2458 z"
     id="path950" />
  <path
     style="fill:#ececec;stroke-width:1;opacity:0.29836066"
     d="m 221.73781,157.94235 44.82772,-0.39045 0.55622,-3.75273 c 0.51951,-3.50521 0.54777,-3.48138 0.42835,0.36153 l -0.1279,4.11418 -45.25607,0.0272 -45.25608,0.0272 44.82772,-0.39045 z"
     id="path944" />
  <path
     style="fill:#ececec;stroke-width:1;opacity:0.29836066"
     d="m 236.09678,254.0321 c -0.49627,-0.49631 -0.90235,-1.7252 -0.90235,-2.73092 0,-2.04295 3.53526,-2.5033 4.70386,-0.6125 0.93329,1.51011 -2.56131,4.58358 -3.80151,3.34342 z"
     id="path934" />
  <path
     style="fill:#ececec;stroke-width:1;opacity:0.29836066"
     d="m 409.36171,228.21604 c 0,-3.35232 -0.62039,-4.79991 -2.0571,-4.79991 -1.74542,0 -2.05707,-3.42848 -2.05707,-22.62802 v -22.62802 h -40.4562 -40.45616 v 22.46809 c 0,21.31473 -0.14072,22.50486 -2.74281,23.18532 -1.99716,0.52227 -2.74277,1.87059 -2.74277,4.95984 v 4.24258 h 45.25604 45.25607 z"
     id="path928" />
  <path
     style="fill:#ececec;stroke-width:1;opacity:0.29836066"
     d="m 125.48273,228.77334 c 0,-3.08925 -0.7456,-4.43757 -2.74277,-4.95984 -2.60212,-0.68046 -2.7428,-1.87059 -2.7428,-23.20604 v -22.48881 l -40.11333,0.36347 -40.11333,0.36348 0.49393,22.28518 c 0.48578,21.91484 0.44589,22.28515 -2.39993,22.28515 -2.39302,0 -2.89388,0.83074 -2.89388,4.79992 v 4.79987 h 45.25608 45.25603 z"
     id="path926" />
  <path
     style="fill:#ececec;stroke-width:1;opacity:0.29836066"
     d="m 21.77819,251.18689 c 0.48395,-21.68516 1.26326,-52.54157 1.73177,-68.56976 l 0.85189,-29.14217 h 55.36034 55.36034 v 67.1984 67.19839 h 21.03456 c 11.56901,0 35.94559,0.40728 54.17013,0.90503 l 33.1356,0.90507 0.31955,-37.58989 0.31954,-37.58989 0.38874,36.68482 0.38875,36.68486 h 31.51968 31.51971 v -67.19839 -67.1984 h 57.44206 57.44209 l 0.85301,39.42763 c 0.46918,21.6852 1.22509,52.54161 1.67976,68.5698 l 0.82674,29.14213 H 223.51055 20.89866 Z"
     id="path924" />
  <path
     style="fill:#7c9082;fill-opacity:1;stroke-width:1;opacity:0.29836066"
     d="m 176.44387,153.68943 c -0.16949,-3.53751 0.40737,-4.74938 2.52333,-5.30267 2.602,-0.68046 2.74277,-1.87063 2.74277,-23.18536 v -22.46809 h 40.55066 40.55067 l -0.97163,22.50755 -0.97166,22.50758 3.27714,0.4633 c 1.8024,0.25502 -14.90877,0.26552 -37.13596,0.0233 -22.22718,-0.24141 -42.40057,-0.0665 -44.82978,0.38932 -3.72286,0.69842 -4.50311,1.52154 -4.96641,5.23916 l -0.54964,4.41055 -0.21925,-4.58544 z"
     id="path1018" />
  <path
     style="fill:#7c9082;fill-opacity:1;stroke-width:1;opacity:0.29836066"
     d="m 37.51715,223.80048 3.23224,-0.61352 -0.48943,-22.17058 -0.48946,-22.17059 40.11333,-0.36347 40.11333,-0.36348 v 22.54821 c 0,20.32126 0.23713,22.6101 2.39993,23.17533 1.31998,0.34482 -17.96529,0.61472 -42.8561,0.59952 -24.89084,-0.0156 -43.80155,-0.30361 -42.02384,-0.64123 z"
     id="path1010" />
  <path
     style="fill:#7c9082;fill-opacity:1;stroke-width:1;opacity:0.29836066"
     d="m 319.06905,229.11617 c -0.1695,-3.53747 0.40736,-4.74934 2.52332,-5.30267 2.60201,-0.68046 2.74281,-1.87059 2.74281,-23.18532 v -22.46809 h 40.45616 40.4562 v 22.52749 c 0,20.30151 0.23713,22.58941 2.39994,23.15461 1.31997,0.34481 -17.77193,0.69876 -42.42639,0.78627 l -44.82632,0.15899 -0.5531,4.45705 -0.55314,4.45704 z"
     id="path1008" />
  <path
     style="fill:#a7a3ee;stroke-width:1;opacity:0.29836066"
     d="m 234.45232,253.49559 c -0.49716,-0.80442 -0.60982,-1.75672 -0.25035,-2.11623 0.35959,-0.35959 1.01905,0.29855 1.46572,1.46264 0.9273,2.41654 0.13683,2.84163 -1.21537,0.65359 z"
     id="path1002" />
  <path
     style="fill:#a7a3ee;stroke-width:1;opacity:0.29836066"
     d="m 210.16644,288.22282 c 6.22271,-0.25424 16.40534,-0.25424 22.62805,0 6.22272,0.25424 1.1314,0.46202 -11.31402,0.46202 -12.44543,0 -17.53675,-0.20798 -11.31403,-0.46202 z"
     id="path998" />
  <path
     style="fill:#8078f6;stroke-width:1;opacity:0.29836066"
     d="m 201.25239,148.33517 c 11.12544,-0.23052 29.33071,-0.23052 40.45616,0 11.12545,0.23052 2.02281,0.4191 -20.22808,0.4191 -22.2509,0 -31.35353,-0.18854 -20.22808,-0.4191 z"
     id="path1064" />
  <path
     style="fill:#0d1821;fill-opacity:1;stroke-width:1;opacity:0.29836066"
     d="m 123.27627,84.3577 -2.89216,-4.54556 50.20531,-39.93311 C 198.20235,17.9158 221.41189,-0.02978 222.16617,4e-5 c 0.75427,0.0311 24.59179,18.00517 52.97229,39.94535 l 51.60093,39.89124 -2.70895,4.59136 c -3.16957,5.37198 -3.41789,5.43733 -7.1913,1.89239 -5.78246,-5.43232 -93.34382,-72.66725 -94.67297,-72.69567 -1.28316,-0.0272 -83.99594,65.57333 -91.17092,72.30903 -1.8078,1.69709 -3.63338,3.05952 -4.05683,3.02756 -0.4235,-0.0311 -2.07145,-2.10352 -3.66215,-4.6036 z"
     id="path1078" />
  <path
     style="fill:#0d1821;stroke-width:1;fill-opacity:1;opacity:0.29836066"
     d="m 309.24981,150.73215 c 0,-2.70545 0.91428,-2.74277 67.19839,-2.74277 66.28415,0 67.19843,0.0389 67.19843,2.74277 0,2.70549 -0.91428,2.74281 -67.19843,2.74281 -66.28411,0 -67.19839,-0.0389 -67.19839,-2.74281 z"
     id="path1074" />
  <path
     style="fill:#0d1821;stroke-width:1;fill-opacity:1;opacity:0.29836066"
     d="m 0.6857,150.73215 c 0,-2.70506 0.91429,-2.74277 66.51273,-2.74277 65.59845,0 66.51269,0.0389 66.51269,2.74277 0,2.70511 -0.91424,2.74281 -66.51269,2.74281 -65.59844,0 -66.51273,-0.0389 -66.51273,-2.74281 z"
     id="path863" />
  <path
     style="fill:#0d1821;fill-opacity:1;stroke-width:1;opacity:0.29836066"
     d="m 309.24981,115.76157 c 0,-30.75339 0.008,-30.8564 2.97765,-30.8564 1.63773,0 4.16199,1.0718 5.60947,2.38174 2.49922,2.26178 2.72014,2.26089 4.38614,-0.0194 1.6228,-2.21928 5.43306,-2.37222 50.7981,-2.03887 l 49.0437,0.36036 10.10516,29.2691 c 5.55785,16.09804 10.1052,29.82915 10.1052,30.51361 0,0.72788 -27.60824,1.24444 -66.51273,1.24444 h -66.51269 z"
     id="path1088" />
  <path
     style="fill:#0d1821;fill-opacity:1;stroke-width:1;opacity:0.29836066"
     d="m 1.04696,144.90374 c 0.35998,-0.94285 5.19908,-14.82821 10.75335,-30.8564 L 21.8989,84.90517 H 72.937 c 45.95994,0 51.16379,0.22469 52.30172,2.25804 1.17326,2.09649 1.49436,2.09649 4.48748,0 1.7731,-1.24191 3.70363,-2.25804 4.29008,-2.25804 0.58642,0 1.06625,13.8854 1.06625,30.8564 v 30.85641 H 67.73738 c -53.311,0 -67.20869,-0.35725 -66.69042,-1.71424 z"
     id="path861" />
  <path
     style="fill:#0d1821;fill-opacity:1;stroke-width:1;opacity:0.29836066"
     d="m 148.79649,36.29938 v -19.963 h 13.71393 13.71397 l -0.003,9.25692 -0.003,9.25692 -11.22073,8.91406 c -6.1714,4.90273 -12.34136,9.72049 -13.71105,10.70607 -2.37452,1.70844 -2.49064,0.86099 -2.49064,-18.17097 z"
     id="path1140" />
  <path
     style="fill:#0d1821;fill-opacity:1;stroke-width:1;opacity:0.29836066"
     d="m 177.59579,153.47496 v -4.11417 h 44.57038 44.57037 v 4.11417 4.11418 h -44.57037 -44.57038 z"
     id="path1130" />
  <path
     style="fill:#0d1821;fill-opacity:1;stroke-width:1;opacity:0.29836066"
     d="m 320.22097,228.90174 v -4.11421 h 44.57037 44.57037 v 4.11421 4.11418 h -44.57037 -44.57037 z"
     id="path1124" />
  <path
     style="fill:#0d1821;fill-opacity:1;stroke-width:1;opacity:0.29836066"
     d="m 34.97062,228.90174 v -4.11421 h 45.25608 45.25603 v 4.11421 4.11418 H 80.2267 34.97062 Z"
     id="path1122" />
  <path
     style="fill:#535461;stroke-width:1;opacity:0.29836066"
     d="m 240.2372,252.76274 c 1.16914,-3.04673 -2.48313,-5.06465 -4.8622,-2.68641 -1.03207,1.03176 -1.45852,2.55225 -0.94759,3.37891 1.37964,2.23235 4.84598,1.8192 5.80979,-0.6925 z"
     id="path1116" />
  <path
     style="fill:#0d1821;fill-opacity:1;stroke-width:1;opacity:0.29836066"
     d="m 199.53815,251.52976 v -36.34198 h 21.94232 21.94235 v 36.34198 36.34199 h -21.94235 -21.94232 z"
     id="path1114" />
</svg>
