<?xml version="1.0" encoding="UTF-8" standalone="no"?>
<svg
   xmlns:dc="http://purl.org/dc/elements/1.1/"
   xmlns:cc="http://creativecommons.org/ns#"
   xmlns:rdf="http://www.w3.org/1999/02/22-rdf-syntax-ns#"
   xmlns:svg="http://www.w3.org/2000/svg"
   xmlns="http://www.w3.org/2000/svg"
   xmlns:sodipodi="http://sodipodi.sourceforge.net/DTD/sodipodi-0.dtd"
   xmlns:inkscape="http://www.inkscape.org/namespaces/inkscape"
   inkscape:version="1.0 (4035a4fb49, 2020-05-01)"
   sodipodi:docname="SecondHomeContentSvg.svg"
   width="282.59277mm"
   height="189.46321mm"
   viewBox="0 0 282.59277 189.46321"
   version="1.1"
   id="svg8">
  <path
     style="fill:#0d1821;fill-opacity:1;stroke-width:1"
     d="m 176.40438,189.11046 c 0,-0.23001 5.5857,-0.35278 16.0514,-0.35278 15.0513,0 16.0515,-0.0385 16.0527,-0.61736 0,-0.98733 1.2929,-2.83238 2.3643,-3.37962 1.0878,-0.55559 8.7611,-1.15289 9.9526,-0.77473 0.6439,0.20439 0.7346,0.51308 0.7346,2.50243 v 2.26928 h 11.818 11.8181 l 0.01,-0.79375 c 0.012,-1.26058 1.2628,-3.68394 2.2268,-4.31563 0.4854,-0.31805 2.4434,-1.02251 4.3511,-1.56546 5.8165,-1.65546 5.1611,-1.75843 5.864,0.92128 0.3367,1.28388 0.5632,2.38337 0.5032,2.4433 -0.06,0.0599 -2.6103,0.78958 -5.6675,1.62142 l -5.5585,1.51245 17.8338,0.0914 c 11.4825,0.0589 17.8338,0.21591 17.8338,0.44097 0,0.22933 -18.2602,0.34955 -53.093,0.34955 -35.1602,0 -53.0931,-0.11916 -53.0931,-0.35278 z m 37.4533,-16.49236 c -0.6798,-0.57893 -0.7513,-1.24324 -1.148,-10.67153 -0.8492,-20.17935 0.1556,-37.30841 2.9255,-49.86863 l 0.767,-3.47836 1.5698,0.21517 c 0.8634,0.11833 3.0557,0.21515 4.8719,0.21515 h 3.3022 v 7.90892 c 0,6.88389 -0.08,8.04949 -0.6174,8.9936 -0.3395,0.59658 -0.7421,1.08569 -0.8945,1.08692 -0.1524,0.001 -0.5833,-0.71214 -0.9576,-1.58527 -0.4935,-1.15143 -0.8812,-1.5875 -1.4111,-1.5875 -0.5299,0 -0.9175,0.43607 -1.4111,1.5875 -0.6614,1.54309 -0.7246,1.5875 -2.2567,1.5875 -1.3038,0 -1.618,0.13131 -1.8174,0.75947 -0.1887,0.59462 0.037,0.99664 1.0386,1.85209 1.2385,1.05762 1.2665,1.13397 0.8731,2.38447 -0.7485,2.37951 0.4652,3.1666 2.5295,1.64041 l 1.044,-0.7719 1.0441,0.7719 c 2.0501,1.51574 3.2712,0.74417 2.5485,-1.61042 -0.213,-0.69403 -0.317,-1.37563 -0.231,-1.51467 0.086,-0.13903 0.7638,0.0479 1.5065,0.41532 1.7931,0.88712 3.2945,0.56973 4.6596,-0.98496 1.188,-1.3531 1.3337,-2.5795 0.4963,-4.17643 -0.5064,-0.96556 -0.5008,-1.73092 0.064,-8.73125 0.3402,-4.2201 0.71,-7.67153 0.8217,-7.66983 0.8444,0.0128 6.0957,10.36321 9.0372,17.81219 4.2895,10.86246 13.252,40.0483 12.6105,41.06526 -0.5333,0.84544 -7.1599,2.95204 -8.0448,2.55746 -0.4869,-0.21713 -3.3695,-5.8344 -9.1383,-17.80792 -4.6349,-9.61991 -8.6523,-17.57715 -8.9275,-17.68276 -0.5675,-0.21777 -1.8604,0.37346 -1.8604,0.85076 0,0.1732 -1.1055,8.38085 -2.4566,18.23922 -2.0154,14.7045 -2.5662,18.00435 -3.0661,18.36989 -0.3803,0.27808 -1.7629,0.44559 -3.6778,0.44559 -2.4111,0 -3.2238,-0.13228 -3.7934,-0.61736 z m -73.7823,-16.48379 c -0.3437,-0.41419 -0.315,-0.86415 0.1407,-2.20147 l 0.5727,-1.68087 -1.595,-1.46445 c -0.8772,-0.80545 -1.5949,-1.60866 -1.5949,-1.78492 0,-0.72915 0.9453,-1.16714 2.5191,-1.16714 1.8035,0 1.9556,-0.12544 2.7805,-2.29285 0.4237,-1.113 0.7422,-1.43507 1.5072,-1.5237 0.8368,-0.0969 1.0428,0.0727 1.4999,1.23472 0.9049,2.30089 1.0149,2.39612 2.9821,2.58183 2.8471,0.26876 3.0993,1.04147 0.9548,2.92469 l -1.6911,1.48503 0.5806,1.68427 c 0.9268,2.68832 -0.337,3.56212 -2.6665,1.84351 -0.6575,-0.48507 -1.3317,-0.88194 -1.4983,-0.88194 -0.1667,0 -0.8871,0.39687 -1.6009,0.88194 -1.4829,1.00767 -2.2726,1.10638 -2.8909,0.36135 z m 2.8151,-0.71413 c 0.6575,-0.48507 1.3719,-0.88194 1.5875,-0.88194 0.2157,0 0.93,0.39687 1.5875,0.88194 2.228,1.64373 3.2064,1.00118 2.3165,-1.52122 -0.6367,-1.80447 -0.4761,-2.30743 1.0349,-3.24128 2.1654,-1.33827 2.0075,-2.46944 -0.3447,-2.46944 -2.2241,0 -2.5536,-0.22159 -3.1933,-2.14746 -0.4633,-1.39497 -0.7313,-1.7331 -1.3734,-1.7331 -0.6236,0 -0.889,0.30468 -1.2158,1.39536 -0.5989,1.99907 -1.2266,2.4852 -3.2089,2.4852 -2.1146,0 -2.5446,0.70698 -1.1923,1.96027 0.5115,0.47407 1.06,0.86195 1.2189,0.86195 0.7661,0 0.9965,1.38691 0.4756,2.86311 -0.294,0.83336 -0.4557,1.7207 -0.3593,1.97188 0.2735,0.71283 1.3588,0.53976 2.6668,-0.42527 z M 1.71868,137.55681 c -0.575,-0.21055 -1.091,-0.77059 -1.3229,-1.43591 -0.5268,-1.51114 -0.5286,-44.55197 0,-46.06276 0.2528,-0.72509 0.7387,-1.21099 1.4638,-1.46376 1.5297,-0.53326 149.6554,-0.53326 151.1851,0 0.7251,0.25277 1.211,0.73867 1.4638,1.46376 0.5251,1.50618 0.5251,44.55124 0,46.05742 -0.2528,0.72509 -0.7387,1.21099 -1.4638,1.46375 -1.4427,0.50294 -149.9494,0.48085 -151.3241,-0.0225 z m 152.0374,-0.72802 c 0.612,-0.61206 0.612,-46.87182 0,-47.48388 -0.6162,-0.61619 -151.9955,-0.61619 -152.6117,0 -0.612,0.61206 -0.612,46.87182 0,47.48388 0.6162,0.61619 151.9955,0.61619 152.6117,0 z m 73.009,-59.81347 c -0.3018,-0.33955 -0.8938,-1.80798 -1.3157,-3.26319 -0.4218,-1.45521 -1.073,-3.6959 -1.447,-4.97931 l -0.68,-2.33347 -3.3901,0.6889 c -2.2763,0.46256 -3.5068,0.57216 -3.7454,0.33357 -0.6109,-0.61084 -0.3592,-3.18564 0.4372,-4.47436 2.0334,-3.29012 5.496,-4.95024 9.7548,-4.67692 2.1699,0.13926 3.1309,0.42437 5.6871,1.68723 2.6001,1.2846 3.6591,2.10172 6.8462,5.28265 3.5639,3.55705 4.7014,5.28363 3.9473,5.99152 -0.4339,0.40734 -10.6204,4.59685 -11.1769,4.59685 -0.2511,0 -0.6583,-0.19843 -0.9049,-0.44097 -0.3598,-0.35388 -0.5828,-0.26679 -1.1288,0.44097 -1.2319,1.59692 -1.4094,1.76389 -1.8746,1.76389 -0.2533,0 -0.7074,-0.27781 -1.0092,-0.61736 z m -106.798,-9.07545 c -0.3434,-0.41373 -0.3194,-0.85117 0.1166,-2.13095 0.6503,-1.90832 0.5446,-2.30161 -0.8378,-3.11821 -2.5219,-1.48974 -1.9942,-3.07404 1.1302,-3.39297 1.7788,-0.18157 1.8327,-0.22083 2.3207,-1.68924 0.5762,-1.73362 1.6602,-2.54107 2.4078,-1.79347 0.2619,0.26193 0.6953,1.11086 0.963,1.88652 0.4682,1.35681 0.5555,1.41735 2.3017,1.59619 1.0024,0.10266 2.0777,0.44857 2.4017,0.77259 0.5471,0.54708 0.5468,0.64769 0,1.4898 -0.3255,0.49671 -0.7169,0.90311 -0.8699,0.90311 -0.1529,0 -0.6174,0.3161 -1.0321,0.70244 -0.7262,0.67654 -0.7343,0.76857 -0.2214,2.49565 0.8322,2.80235 -0.3458,3.64332 -2.6854,1.91719 -0.6575,-0.48507 -1.3719,-0.88195 -1.5875,-0.88195 -0.2157,0 -0.93,0.39688 -1.5875,0.88195 -1.3624,1.00517 -2.1924,1.1117 -2.8151,0.36135 z m 2.7393,-0.71413 c 0.7139,-0.48507 1.5098,-0.88195 1.7687,-0.88195 0.259,0 0.9912,0.39688 1.6271,0.88195 2.1475,1.63799 3.0567,0.98778 2.1625,-1.54661 -0.6164,-1.74701 -0.4058,-2.34605 1.1926,-3.39228 2.002,-1.31037 1.8118,-2.29306 -0.4438,-2.29306 -1.8271,0 -2.9261,-0.7208 -3.2336,-2.12073 -0.2841,-1.29353 -1.0791,-2.14983 -1.7551,-1.89043 -0.2754,0.1057 -0.7543,0.95546 -1.0642,1.88834 -0.6044,1.8198 -1.0696,2.10926 -3.4039,2.11801 -1.6861,0.006 -1.9812,0.78632 -0.7347,1.94214 0.5249,0.48669 1.0695,0.8849 1.2101,0.8849 0.7357,0 0.9542,1.41315 0.4426,2.86311 -0.9018,2.55612 -0.086,3.12152 2.2317,1.54661 z m 17.369,0.71413 c -0.3437,-0.4142 -0.315,-0.86415 0.1407,-2.20147 l 0.5727,-1.68088 -1.595,-1.46445 c -0.8772,-0.80544 -1.5949,-1.60865 -1.5949,-1.78491 0,-0.72915 0.9453,-1.16714 2.5191,-1.16714 1.8035,0 1.9556,-0.12544 2.7805,-2.29285 0.4237,-1.11301 0.7422,-1.43508 1.5072,-1.52371 0.8368,-0.0969 1.0428,0.0727 1.4999,1.23472 0.9049,2.3009 1.0149,2.39613 2.9821,2.58184 2.8471,0.26876 3.0993,1.04147 0.9548,2.92469 l -1.6911,1.48503 0.5806,1.68427 c 0.9268,2.68832 -0.337,3.56211 -2.6665,1.84351 -0.6575,-0.48507 -1.3317,-0.88195 -1.4983,-0.88195 -0.1667,0 -0.8871,0.39688 -1.6009,0.88195 -1.4829,1.00767 -2.2726,1.10637 -2.8909,0.36135 z m 2.8151,-0.71413 c 0.6575,-0.48507 1.3719,-0.88195 1.5875,-0.88195 0.2157,0 0.93,0.39688 1.5875,0.88195 2.228,1.64373 3.2064,1.00117 2.3165,-1.52123 -0.6367,-1.80446 -0.4761,-2.30742 1.0349,-3.24127 2.1654,-1.33827 2.0075,-2.46945 -0.3447,-2.46945 -2.2241,0 -2.5536,-0.22159 -3.1933,-2.14745 -0.4633,-1.39497 -0.7313,-1.7331 -1.3734,-1.7331 -0.6236,0 -0.889,0.30468 -1.2158,1.39535 -0.5989,1.99908 -1.2266,2.4852 -3.2089,2.4852 -2.1146,0 -2.5446,0.70698 -1.1923,1.96028 0.5115,0.47407 1.06,0.86195 1.2189,0.86195 0.7661,0 0.9965,1.38691 0.4756,2.86311 -0.294,0.83336 -0.4557,1.7207 -0.3593,1.97188 0.2735,0.71282 1.3588,0.53976 2.6668,-0.42527 z M 1.71868,49.36236 c -0.575,-0.21055 -1.091,-0.77059 -1.3229,-1.4359 -0.5268,-1.51114 -0.5286,-44.55197 0,-46.06277 0.2528,-0.72508 0.7387,-1.21098 1.4638,-1.46375 1.5297,-0.53326 149.6554,-0.53326 151.1851,0 0.7251,0.25277 1.211,0.73867 1.4638,1.46375 0.5251,1.50619 0.5251,44.55124 0,46.05743 -0.2528,0.72509 -0.7387,1.21098 -1.4638,1.46375 -1.4427,0.50294 -149.9494,0.48085 -151.3241,-0.0225 z m 152.0374,-0.72801 c 0.612,-0.61206 0.612,-46.87183 0,-47.48389 -0.6162,-0.61619 -151.9955,-0.61619 -152.6117,0 -0.612,0.61206 -0.612,46.87183 0,47.48389 0.6162,0.61619 151.9955,0.61619 152.6117,0 z"
     id="path1604" />
  <sodipodi:namedview
     inkscape:current-layer="svg8"
     inkscape:window-maximized="1"
     inkscape:window-y="-9"
     inkscape:window-x="-9"
     inkscape:cy="175.42926"
     inkscape:cx="315.30061"
     inkscape:zoom="0.70848469"
     showgrid="false"
     id="namedview15"
     inkscape:window-height="1001"
     inkscape:window-width="1920"
     inkscape:pageshadow="2"
     inkscape:pageopacity="0"
     guidetolerance="10"
     gridtolerance="10"
     objecttolerance="10"
     borderopacity="1"
     bordercolor="#666666"
     pagecolor="#ffffff" />
  <defs
     id="defs2" />
  <metadata
     id="metadata5">
    <rdf:RDF>
      <cc:Work
         rdf:about="">
        <dc:format>image/svg+xml</dc:format>
        <dc:type
           rdf:resource="http://purl.org/dc/dcmitype/StillImage" />
        <dc:title />
      </cc:Work>
    </rdf:RDF>
  </metadata>
  <path
     style="fill:#cbcbcb;stroke-width:1"
     d="m 215.94338,182.2019 c 0.017,-0.41097 0.1005,-0.49456 0.2131,-0.21314 0.1019,0.25466 0.089,0.55893 -0.028,0.67616 -0.1173,0.11722 -0.2006,-0.0911 -0.1853,-0.46302 z m -0.7056,-5.99723 c 0.017,-0.41096 0.1005,-0.49455 0.2131,-0.21313 0.102,0.25466 0.089,0.55893 -0.028,0.67616 -0.1172,0.11722 -0.2006,-0.0911 -0.1853,-0.46303 z m -2.4416,-5.79143 c 0,-0.48507 0.08,-0.68351 0.178,-0.44097 0.098,0.24253 0.098,0.63941 0,0.88194 -0.098,0.24253 -0.178,0.0441 -0.178,-0.44097 z m -0.3397,-6.52639 c 0.01,-0.58208 0.086,-0.7775 0.1757,-0.43426 0.09,0.34324 0.084,0.81949 -0.013,1.05833 -0.097,0.23884 -0.1698,-0.042 -0.1626,-0.62407 z m -63.1881,-8.49606 c 0.017,-0.41097 0.1005,-0.49456 0.2131,-0.21314 0.1019,0.25466 0.089,0.55893 -0.028,0.67616 -0.1173,0.11722 -0.2006,-0.0911 -0.1853,-0.46302 z m 62.8875,-3.14561 c 0,-1.55222 0.063,-2.14334 0.1378,-1.31359 0.074,0.82975 0.073,2.09975 0,2.82222 -0.076,0.72248 -0.1368,0.0436 -0.1355,-1.50863 z m 0,-8.99583 c 0,-1.45521 0.062,-2.05052 0.1384,-1.32292 0.076,0.72761 0.076,1.91823 0,2.64584 -0.076,0.7276 -0.1384,0.13229 -0.1384,-1.32292 z m 0.262,-9.73079 c 0.017,-0.41097 0.1006,-0.49456 0.2132,-0.21313 0.1019,0.25466 0.089,0.55893 -0.028,0.67615 -0.1172,0.11723 -0.2006,-0.0911 -0.1852,-0.46302 z m 0.3528,-4.93889 c 0.017,-0.41096 0.1005,-0.49455 0.2132,-0.21313 0.1019,0.25466 0.089,0.55893 -0.028,0.67616 -0.1172,0.11722 -0.2006,-0.0911 -0.1853,-0.46303 z m -195.0882,-2.13484 c -0.4021,-0.51124 -0.7311,-1.12483 -0.7311,-1.36354 0,-0.23871 0.329,-0.8523 0.7311,-1.36353 l 0.7312,-0.92952 h 59.039 59.0391 l 0.7312,0.92952 c 0.9147,1.16289 0.9147,1.56417 0,2.72707 l -0.7312,0.92952 h -59.0391 -59.039 z m 0,-11.99445 c -0.4021,-0.51123 -0.7311,-1.12482 -0.7311,-1.36353 0,-0.23871 0.329,-0.8523 0.7311,-1.36354 l 0.7312,-0.92952 h 59.039 59.0391 l 0.7312,0.92952 c 0.9147,1.1629 0.9147,1.56418 0,2.72707 l -0.7312,0.92952 h -59.0391 -59.039 z m 215.7498,-9.30103 c 0.1561,-2.42535 0.2877,-5.43298 0.2924,-6.68363 l 0.01,-2.27391 -3.3514,-0.98158 c -1.8433,-0.53987 -3.5498,-0.98505 -3.7924,-0.98929 -0.3387,-0.006 -0.4409,1.66976 -0.4409,7.22424 v 7.23195 h -4.3423 c -5.948,0 -5.6821,0.27618 -5.8298,-6.0566 -0.1746,-7.4875 1.1022,-11.91868 4.1559,-14.42274 0.6895,-0.56539 1.5315,-1.26883 1.871,-1.56321 0.3396,-0.29438 0.6174,-1.02523 0.6174,-1.62412 0,-2.27765 6.0857,-6.73807 10.4828,-7.68318 1.9486,-0.41884 2.5484,0.0413 2.9519,2.26482 0.2249,1.23912 0.5854,1.94922 1.2439,2.45031 1.854,1.41085 8.2499,7.72801 8.4442,8.34035 0.1098,0.34585 0.04,0.928 -0.1562,1.29366 -0.2503,0.46762 -0.2299,0.80664 0.069,1.14285 0.355,0.39971 0.3249,0.40274 -0.1836,0.0185 -0.5201,-0.39297 -0.9331,-0.27774 -2.853,0.79592 -3.2034,1.79141 -3.6098,2.24763 -4.2873,4.81287 -0.6234,2.36012 -2.9955,7.69319 -4.3936,9.87778 l -0.7901,1.23472 0.2838,-4.40972 z m -215.7498,-2.69341 c -0.4021,-0.51123 -0.7311,-1.12482 -0.7311,-1.36354 0,-0.23871 0.329,-0.8523 0.7311,-1.36353 l 0.7312,-0.92952 h 59.039 59.0391 l 0.7312,0.92952 c 0.9147,1.1629 0.9147,1.56417 0,2.72707 l -0.7312,0.92952 h -59.0391 -59.039 z m 201.3838,-27.91006 -0.8552,-0.97014 0.9701,0.85524 c 0.5336,0.47039 0.9701,0.90695 0.9701,0.97014 0,0.27668 -0.2856,0.0515 -1.085,-0.85524 z m -69.7954,-7.34954 c 0.017,-0.41097 0.1005,-0.49456 0.2131,-0.21314 0.1019,0.25466 0.089,0.55894 -0.028,0.67616 -0.1173,0.11723 -0.2006,-0.0911 -0.1853,-0.46302 z M 17.68248,38.25039 c -0.4021,-0.51124 -0.7311,-1.12483 -0.7311,-1.36354 0,-0.23871 0.329,-0.8523 0.7311,-1.36354 l 0.7312,-0.92952 h 59.039 59.0391 l 0.7312,0.92952 c 0.9147,1.1629 0.9147,1.56418 0,2.72708 l -0.7312,0.92952 h -59.0391 -59.039 z m 0,-11.99445 c -0.4021,-0.51123 -0.7311,-1.12482 -0.7311,-1.36353 0,-0.23872 0.329,-0.85231 0.7311,-1.36354 l 0.7312,-0.92952 h 59.039 59.0391 l 0.7312,0.92952 c 0.9147,1.1629 0.9147,1.56417 0,2.72707 l -0.7312,0.92952 h -59.0391 -59.039 z m 0,-11.99444 c -0.4021,-0.51124 -0.7311,-1.12483 -0.7311,-1.36354 0,-0.23871 0.329,-0.8523 0.7311,-1.36353 l 0.7312,-0.92952 h 59.039 59.0391 l 0.7312,0.92952 c 0.9147,1.16289 0.9147,1.56417 0,2.72707 l -0.7312,0.92952 h -59.0391 -59.039 z"
     id="path1616" />
  <path
     style="fill:#aca8f4;stroke-width:1"
     d="m 80.05108,151.45143 c -0.4388,-0.55952 -0.4264,-0.572 0.1332,-0.13319 0.5876,0.46086 0.7745,0.75055 0.4841,0.75055 -0.073,0 -0.351,-0.27781 -0.6173,-0.61736 z m 8.5116,0.48417 c 0,-0.0733 0.2779,-0.35107 0.6174,-0.61736 0.5595,-0.43881 0.572,-0.42633 0.1332,0.13319 -0.4609,0.58764 -0.7506,0.77452 -0.7506,0.48417 z m 31.3523,-0.48417 c -0.4388,-0.55952 -0.4264,-0.572 0.1332,-0.13319 0.5876,0.46086 0.7745,0.75055 0.4841,0.75055 -0.073,0 -0.351,-0.27781 -0.6173,-0.61736 z m -60.187,-3.86912 c 0.5363,-0.0811 1.33,-0.0789 1.7639,0.005 0.4339,0.0837 0,0.15008 -0.975,0.14743 -0.9701,-0.003 -1.3251,-0.0712 -0.7889,-0.15224 z m 8.4667,0 c 0.5362,-0.0811 1.33,-0.0789 1.7639,0.005 0.4339,0.0837 0,0.15008 -0.975,0.14743 -0.9702,-0.003 -1.3252,-0.0712 -0.7889,-0.15224 z m 11.1958,0.0562 c 1.3109,-0.2852 3.1095,-0.33518 2.9531,-0.0821 -0.095,0.15348 -0.9172,0.26064 -1.8274,0.23813 -0.9101,-0.0225 -1.4167,-0.0927 -1.1257,-0.15606 z m 7.6303,-0.0821 c -0.095,-0.15348 0.4117,-0.2237 1.1257,-0.15606 2.1815,0.2067 2.4388,0.35123 0.7017,0.39419 -0.9102,0.0225 -1.7325,-0.0847 -1.8274,-0.23813 z m 12.5711,0.0259 c 0.5362,-0.0811 1.33,-0.0789 1.7639,0.005 0.4339,0.0837 0,0.15008 -0.975,0.14743 -0.9701,-0.003 -1.3251,-0.0712 -0.7889,-0.15224 z m 8.4667,0 c 0.5362,-0.0811 1.33,-0.0789 1.7639,0.005 0.4339,0.0837 0,0.15008 -0.975,0.14743 -0.9702,-0.003 -1.3252,-0.0712 -0.7889,-0.15224 z m 11.1958,0.0562 c 1.3109,-0.2852 3.1095,-0.33518 2.9531,-0.0821 -0.095,0.15348 -0.9172,0.26064 -1.8274,0.23813 -0.9102,-0.0225 -1.4167,-0.0927 -1.1257,-0.15606 z m 7.6303,-0.0821 c -0.095,-0.15348 0.4117,-0.2237 1.1257,-0.15606 2.1815,0.2067 2.4388,0.35123 0.7016,0.39419 -0.9101,0.0225 -1.7324,-0.0847 -1.8273,-0.23813 z m -62.377,-3.84249 c 0.2547,-0.10191 0.5589,-0.0894 0.6762,0.0278 0.1172,0.11723 -0.091,0.20061 -0.463,0.18529 -0.411,-0.0169 -0.4946,-0.10052 -0.2132,-0.21314 z m 39.8639,0 c 0.2547,-0.10191 0.5589,-0.0894 0.6762,0.0278 0.1172,0.11723 -0.091,0.20061 -0.4631,0.18529 -0.4109,-0.0169 -0.4945,-0.10052 -0.2131,-0.21314 z M 80.05108,63.25699 c -0.4388,-0.55953 -0.4264,-0.57201 0.1332,-0.1332 0.5876,0.46086 0.7745,0.75056 0.4841,0.75056 -0.073,0 -0.351,-0.27781 -0.6173,-0.61736 z m 8.5116,0.48416 c 0,-0.0732 0.2779,-0.35106 0.6174,-0.61736 0.5595,-0.43881 0.572,-0.42633 0.1332,0.1332 -0.4609,0.58764 -0.7506,0.77452 -0.7506,0.48416 z m -28.8347,-4.35328 c 0.5363,-0.0811 1.33,-0.0789 1.7639,0.005 0.4339,0.0837 0,0.15008 -0.975,0.14743 -0.9701,-0.003 -1.3251,-0.0712 -0.7889,-0.15225 z m 8.4667,0 c 0.5362,-0.0811 1.33,-0.0789 1.7639,0.005 0.4339,0.0837 0,0.15008 -0.975,0.14743 -0.9702,-0.003 -1.3252,-0.0712 -0.7889,-0.15225 z m 11.1958,0.0562 c 1.3109,-0.2852 3.1095,-0.33519 2.9531,-0.0821 -0.095,0.15348 -0.9172,0.26063 -1.8274,0.23812 -0.9101,-0.0225 -1.4167,-0.0927 -1.1257,-0.15605 z m 7.6303,-0.0821 c -0.095,-0.15348 0.4117,-0.22371 1.1257,-0.15606 2.1815,0.20669 2.4388,0.35123 0.7017,0.39418 -0.9102,0.0225 -1.7325,-0.0846 -1.8274,-0.23812 z m 12.5711,0.0259 c 0.5362,-0.0811 1.33,-0.0789 1.7639,0.005 0.4339,0.0837 0,0.15008 -0.975,0.14743 -0.9701,-0.003 -1.3251,-0.0712 -0.7889,-0.15225 z m 8.4667,0 c 0.5362,-0.0811 1.33,-0.0789 1.7639,0.005 0.4339,0.0837 0,0.15008 -0.975,0.14743 -0.9702,-0.003 -1.3252,-0.0712 -0.7889,-0.15225 z m -43.5509,-3.86839 c 0.2547,-0.1019 0.5589,-0.0894 0.6762,0.0278 0.1172,0.11722 -0.091,0.2006 -0.463,0.18528 -0.411,-0.0169 -0.4946,-0.10052 -0.2132,-0.21313 z m 39.8639,0 c 0.2547,-0.1019 0.5589,-0.0894 0.6762,0.0278 0.1172,0.11722 -0.091,0.2006 -0.4631,0.18528 -0.4109,-0.0169 -0.4945,-0.10052 -0.2131,-0.21313 z"
     id="path1614" />
  <path
     style="fill:#a09ba4;stroke-width:1"
     d="m 221.67858,186.28824 c 0,-1.45521 0.062,-2.05052 0.1383,-1.32292 0.076,0.72761 0.076,1.91823 0,2.64583 -0.076,0.72761 -0.1383,0.1323 -0.1383,-1.32291 z m 24.5758,-1.89709 c 0,-0.0733 0.2778,-0.35106 0.6174,-0.61736 0.5595,-0.43881 0.572,-0.42633 0.1332,0.1332 -0.4609,0.58764 -0.7506,0.77451 -0.7506,0.48416 z m -30.6638,-6.06981 c 0.017,-0.41097 0.1005,-0.49456 0.2131,-0.21314 0.1019,0.25466 0.089,0.55894 -0.028,0.67616 -0.1172,0.11723 -0.2006,-0.0911 -0.1853,-0.46302 z m -2.7944,-9.31921 c 0,-0.48507 0.08,-0.68351 0.178,-0.44098 0.098,0.24254 0.098,0.63941 0,0.88195 -0.098,0.24253 -0.178,0.0441 -0.178,-0.44097 z m -0.3266,-7.05556 c 0,-0.6791 0.073,-0.95691 0.1613,-0.61736 0.089,0.33955 0.089,0.89517 0,1.23472 -0.089,0.33955 -0.1613,0.0617 -0.1613,-0.61736 z m -0.3253,-14.2875 c 0,-1.16417 0.068,-1.59788 0.1463,-0.96382 0.079,0.63407 0.077,1.58657 0,2.11667 -0.081,0.5301 -0.1447,0.0113 -0.1427,-1.15285 z m 0.3122,-12.7 c 0.01,-0.58208 0.086,-0.7775 0.1757,-0.43426 0.09,0.34324 0.084,0.81949 -0.013,1.05834 -0.097,0.23884 -0.1698,-0.042 -0.1626,-0.62408 z m 0.3119,-5.32106 c 0.017,-0.41097 0.1005,-0.49456 0.2131,-0.21314 0.1019,0.25466 0.089,0.55893 -0.028,0.67616 -0.1173,0.11722 -0.2006,-0.0911 -0.1853,-0.46302 z m 10.4736,-20.86377 c 0.634,-0.0785 1.5865,-0.0769 2.1166,0.004 0.5301,0.0805 0.011,0.14474 -1.1528,0.14276 -1.1642,-0.002 -1.5979,-0.0678 -0.9638,-0.14635 z m 9.6756,-0.62628 c 0.01,-0.58208 0.086,-0.7775 0.1757,-0.43426 0.09,0.34324 0.084,0.81949 -0.013,1.05833 -0.097,0.23885 -0.1698,-0.042 -0.1626,-0.62407 z m 0.3528,-4.23333 c 0.01,-0.58209 0.086,-0.7775 0.1757,-0.43426 0.089,0.34324 0.084,0.81949 -0.013,1.05833 -0.097,0.23884 -0.1698,-0.042 -0.1626,-0.62407 z m 0.3528,-4.23334 c 0.01,-0.58208 0.086,-0.7775 0.1757,-0.43425 0.089,0.34324 0.083,0.81949 -0.013,1.05833 -0.097,0.23884 -0.1698,-0.042 -0.1626,-0.62408 z m -8.8,-22.64457 c 0.3395,-0.0887 0.8951,-0.0887 1.2347,0 0.3395,0.0887 0.062,0.16134 -0.6174,0.16134 -0.6791,0 -0.9569,-0.0726 -0.6173,-0.16134 z m -8.1334,-8.39987 c 0.01,-0.58208 0.086,-0.7775 0.1757,-0.43426 0.09,0.34324 0.084,0.81949 -0.013,1.05833 -0.097,0.23885 -0.1699,-0.042 -0.1627,-0.62407 z m -95.7376,-0.0646 c 0.2546,-0.1019 0.5589,-0.0894 0.6761,0.0278 0.1172,0.11722 -0.091,0.2006 -0.463,0.18528 -0.411,-0.0169 -0.4946,-0.10052 -0.2131,-0.21313 z m 3.175,-1.76389 c 0.2546,-0.1019 0.5589,-0.0894 0.6761,0.0278 0.1172,0.11722 -0.091,0.2006 -0.463,0.18528 -0.411,-0.0169 -0.4946,-0.10052 -0.2131,-0.21313 z m 0,-0.70555 c 0.2546,-0.10191 0.5589,-0.0894 0.6761,0.0278 0.1172,0.11723 -0.091,0.20061 -0.463,0.18529 -0.411,-0.0169 -0.4946,-0.10052 -0.2131,-0.21314 z m -3.8595,-3.1986 c -0.4388,-0.55953 -0.4263,-0.572 0.1332,-0.13319 0.3396,0.26629 0.6174,0.5441 0.6174,0.61736 0,0.29035 -0.2897,0.10347 -0.7506,-0.48417 z m -2.4694,-1.05833 c -0.4388,-0.55953 -0.4263,-0.57201 0.1332,-0.1332 0.3395,0.2663 0.6174,0.54411 0.6174,0.61736 0,0.29035 -0.2897,0.10348 -0.7506,-0.48416 z m 106.4957,-3.84961 c 0.2425,-0.0979 0.6394,-0.0979 0.8819,0 0.2426,0.0979 0.044,0.17794 -0.4409,0.17794 -0.4851,0 -0.6835,-0.0801 -0.441,-0.17794 z m 1.7859,-0.007 c 0.2547,-0.10191 0.559,-0.0894 0.6762,0.0278 0.1172,0.11723 -0.091,0.20061 -0.463,0.18529 -0.411,-0.0169 -0.4946,-0.10052 -0.2132,-0.21313 z"
     id="path1612" />
  <path
     style="fill:#51ff00;fill-opacity:1;stroke-width:1"
     d="m 60.40638,156.07967 c -0.2052,-0.36678 -0.1528,-1.13689 0.1446,-2.12514 0.5686,-1.88933 0.4675,-2.18534 -1.1158,-3.26637 -0.969,-0.66164 -1.2234,-1.05488 -1.141,-1.76389 0.097,-0.83677 0.2719,-0.92721 2.1071,-1.09079 1.1006,-0.0981 2.071,-0.25685 2.1566,-0.35277 0.086,-0.0959 0.3889,-0.88879 0.6741,-1.76192 0.4528,-1.38591 0.6456,-1.5875 1.5182,-1.5875 0.8727,0 1.0654,0.20159 1.5183,1.5875 0.2852,0.87313 0.5886,1.66599 0.6741,1.76192 0.086,0.0959 1.056,0.25467 2.1566,0.35277 1.8594,0.16574 2.0088,0.24582 2.111,1.13101 0.088,0.76289 -0.14,1.11423 -1.145,1.76389 -1.5641,1.01112 -1.7501,1.56232 -1.125,3.33412 0.5352,1.51686 0.2454,2.5924 -0.6984,2.5924 -0.2917,0 -1.1144,-0.39687 -1.8283,-0.88194 -0.7138,-0.48507 -1.4623,-0.88194 -1.6633,-0.88194 -0.2009,0 -0.9494,0.39687 -1.6632,0.88194 -1.51,1.02604 -2.2318,1.10863 -2.6806,0.30671 z m 19.8887,-0.0222 c -0.1261,-0.32857 -0.032,-1.36823 0.2098,-2.31037 l 0.439,-1.71296 -1.5704,-1.36528 c -1.3309,-1.15697 -1.5111,-1.46383 -1.1816,-2.01116 0.2739,-0.45476 0.9002,-0.67824 2.1167,-0.75524 2.002,-0.12672 2.3002,-0.34868 2.7837,-2.07211 0.196,-0.69861 0.634,-1.44526 0.9732,-1.65923 0.8854,-0.55853 1.7712,0.10751 2.2065,1.65923 0.4836,1.72343 0.7818,1.94539 2.7838,2.07211 1.2165,0.077 1.8428,0.30048 2.1166,0.75524 0.3296,0.54733 0.1493,0.85419 -1.1815,2.01116 l -1.5704,1.36528 0.439,1.71296 c 0.7499,2.92576 -0.2945,3.75266 -2.5585,2.02583 -0.6359,-0.48507 -1.3644,-0.88194 -1.6188,-0.88194 -0.2544,0 -0.9829,0.39687 -1.6189,0.88194 -1.3415,1.02325 -2.4414,1.1363 -2.7682,0.28454 z m 19.9752,0.0222 c -0.2052,-0.36678 -0.1529,-1.13689 0.1446,-2.12514 0.5686,-1.88933 0.4675,-2.18534 -1.1158,-3.26637 -0.9691,-0.66164 -1.2234,-1.05488 -1.141,-1.76389 0.097,-0.83677 0.2719,-0.92721 2.1071,-1.09079 1.1006,-0.0981 2.071,-0.25685 2.1566,-0.35277 0.085,-0.0959 0.3889,-0.88879 0.6741,-1.76192 0.4528,-1.38591 0.6456,-1.5875 1.5182,-1.5875 0.8726,0 1.0654,0.20159 1.5182,1.5875 0.2853,0.87313 0.5887,1.66599 0.6742,1.76192 0.086,0.0959 1.056,0.25467 2.1566,0.35277 1.8594,0.16574 2.0088,0.24582 2.111,1.13101 0.088,0.76163 -0.1405,1.11531 -1.1388,1.76389 -1.585,1.02973 -1.6911,1.33479 -1.1219,3.22615 0.8025,2.66662 -0.2145,3.3959 -2.536,1.81843 -0.7138,-0.48507 -1.4623,-0.88194 -1.6633,-0.88194 -0.2009,0 -0.9494,0.39687 -1.6632,0.88194 -1.51,1.02604 -2.2318,1.10863 -2.6806,0.30671 z m 20.0505,0.0558 c -0.3401,-0.40986 -0.3342,-0.89715 0.028,-2.31037 l 0.459,-1.79095 -1.5704,-1.36528 c -1.3311,-1.15713 -1.5112,-1.46375 -1.1814,-2.01116 0.2781,-0.46165 0.8989,-0.67601 2.1762,-0.75152 1.9808,-0.11708 2.3428,-0.39636 2.7977,-2.15837 0.65,-2.51764 2.2559,-2.35184 3.2451,0.33504 0.5738,1.55848 0.6016,1.57817 2.4766,1.75258 1.3299,0.1237 2.0124,0.36931 2.285,0.82227 0.3292,0.54709 0.1498,0.85354 -1.173,2.00357 l -1.5616,1.35769 0.4615,1.92377 c 0.2538,1.05808 0.3519,2.10116 0.2179,2.31796 -0.4034,0.65272 -1.5908,0.44708 -2.8165,-0.48776 -0.6359,-0.48507 -1.3644,-0.88194 -1.6188,-0.88194 -0.2544,0 -0.9829,0.39687 -1.6189,0.88194 -1.323,1.00915 -1.9924,1.10226 -2.6064,0.36253 z m 98.4383,-22.20905 c -0.3224,-0.38839 -0.3186,-0.83486 0.017,-1.95339 0.4011,-1.33877 0.377,-1.4901 -0.3136,-1.97384 -1.5442,-1.08157 -1.8612,-1.57517 -1.4751,-2.29658 0.2749,-0.51381 0.744,-0.68106 1.9101,-0.68106 1.5049,0 1.5589,-0.0396 2.0455,-1.4993 0.3976,-1.19273 0.6681,-1.49931 1.3229,-1.49931 0.6549,0 0.9254,0.30658 1.3229,1.49931 0.2749,0.82461 0.7067,1.4993 0.9595,1.4993 0.5489,0 0.7529,0.91537 1.3266,5.95101 0.152,1.33483 -0.8445,1.71546 -2.1177,0.80886 -1.3107,-0.93332 -1.7706,-0.94237 -2.9024,-0.0571 -1.0569,0.82669 -1.5384,0.87314 -2.0953,0.20209 z M 60.40638,67.8852 c -0.2052,-0.36677 -0.1528,-1.13688 0.1446,-2.12514 0.5686,-1.88933 0.4675,-2.18534 -1.1158,-3.26636 -0.969,-0.66164 -1.2234,-1.05488 -1.141,-1.76389 0.097,-0.83678 0.2719,-0.92721 2.1071,-1.09079 1.1006,-0.0981 2.071,-0.25685 2.1566,-0.35278 0.086,-0.0959 0.3889,-0.88879 0.6741,-1.76191 0.4528,-1.38591 0.6456,-1.5875 1.5182,-1.5875 0.8727,0 1.0654,0.20159 1.5183,1.5875 0.2852,0.87312 0.5886,1.66599 0.6741,1.76191 0.086,0.0959 1.056,0.25468 2.1566,0.35278 1.8594,0.16574 2.0088,0.24581 2.111,1.13101 0.088,0.76289 -0.14,1.11423 -1.145,1.76389 -1.5641,1.01112 -1.7501,1.56231 -1.125,3.33412 0.5352,1.51686 0.2454,2.5924 -0.6984,2.5924 -0.2917,0 -1.1144,-0.39687 -1.8283,-0.88194 -0.7138,-0.48507 -1.4623,-0.88195 -1.6633,-0.88195 -0.2009,0 -0.9494,0.39688 -1.6632,0.88195 -1.51,1.02604 -2.2318,1.10863 -2.6806,0.3067 z m 19.8887,-0.0222 c -0.1261,-0.32857 -0.032,-1.36824 0.2098,-2.31037 l 0.439,-1.71296 -1.5704,-1.36528 c -1.3309,-1.15697 -1.5111,-1.46383 -1.1816,-2.01116 0.2739,-0.45476 0.9002,-0.67824 2.1167,-0.75525 2.002,-0.12671 2.3002,-0.34867 2.7837,-2.0721 0.196,-0.69862 0.634,-1.44527 0.9732,-1.65923 0.8854,-0.55854 1.7712,0.1075 2.2065,1.65923 0.4836,1.72343 0.7818,1.94539 2.7838,2.0721 1.2165,0.077 1.8428,0.30049 2.1166,0.75525 0.3296,0.54733 0.1493,0.85419 -1.1815,2.01116 l -1.5704,1.36528 0.439,1.71296 c 0.7499,2.92576 -0.2945,3.75266 -2.5585,2.02583 -0.6359,-0.48507 -1.3644,-0.88195 -1.6188,-0.88195 -0.2544,0 -0.9829,0.39688 -1.6189,0.88195 -1.3415,1.02324 -2.4414,1.13629 -2.7682,0.28454 z m 19.9752,0.0222 c -0.2052,-0.36677 -0.1529,-1.13688 0.1446,-2.12514 0.5686,-1.88933 0.4675,-2.18534 -1.1158,-3.26636 -0.9691,-0.66164 -1.2234,-1.05488 -1.141,-1.76389 0.097,-0.83678 0.2719,-0.92721 2.1071,-1.09079 1.1006,-0.0981 2.071,-0.25685 2.1566,-0.35278 0.085,-0.0959 0.3889,-0.88879 0.6741,-1.76191 0.4528,-1.38591 0.6456,-1.5875 1.5182,-1.5875 0.8726,0 1.0654,0.20159 1.5182,1.5875 0.2853,0.87312 0.5887,1.66599 0.6742,1.76191 0.086,0.0959 1.056,0.25468 2.1566,0.35278 1.8594,0.16574 2.0088,0.24581 2.111,1.13101 0.088,0.76162 -0.1405,1.1153 -1.1388,1.76389 -1.585,1.02972 -1.6911,1.33479 -1.1219,3.22614 0.8025,2.66663 -0.2145,3.39591 -2.536,1.81844 -0.7138,-0.48507 -1.4623,-0.88195 -1.6633,-0.88195 -0.2009,0 -0.9494,0.39688 -1.6632,0.88195 -1.51,1.02604 -2.2318,1.10863 -2.6806,0.3067 z"
     id="path1610" />
  <path
     style="fill:#51ff00;stroke-width:1;fill-opacity:1"
     d="m 215.95798,179.85004 c -0.234,-2.18281 -0.5183,-4.56406 -0.6318,-5.29166 l -0.2064,-1.32292 h 2.8673 2.8673 v 5.29167 5.29166 h -2.2355 -2.2356 z m 35.6054,1.05834 c -0.1748,-0.43657 -1.1234,-2.76736 -2.1079,-5.17956 -0.9845,-2.41219 -1.79,-4.43168 -1.79,-4.48776 0,-0.31706 5.0416,-1.5687 5.2831,-1.31159 0.2546,0.27101 2.572,8.41055 2.887,10.13966 0.094,0.51385 -0.2314,0.76662 -1.4673,1.14117 -2.1466,0.65056 -2.4358,0.61943 -2.8049,-0.30192 z m -25.0115,-50.54496 c -1.3494,-1.13537 -1.6646,-2.53196 -0.955,-4.23033 0.4684,-1.12104 0.5492,-3.56499 0.5492,-16.6171 0,-8.41652 0.095,-15.30275 0.2109,-15.30275 0.116,0 1.8623,0.50318 3.8806,1.11817 2.6671,0.81272 3.6647,1.27048 3.6518,1.6757 -0.01,0.30663 -0.5397,6.66939 -1.1776,14.13946 -0.9807,11.48565 -1.0868,13.68935 -0.6877,14.2778 0.2596,0.38272 0.472,1.38712 0.472,2.232 0,3.18537 -3.488,4.77384 -5.9442,2.70705 z m 9.0427,-17.69348 -1.3113,-2.28307 3.182,-6.35642 c 3.0756,-6.14408 3.1631,-6.3851 2.6195,-7.21484 -0.3094,-0.47213 -0.4751,-0.99975 -0.3684,-1.1725 0.1687,-0.2729 5.0108,-3.19376 5.2945,-3.19376 0.058,0 0.9907,1.09532 2.0723,2.43404 l 1.9666,2.43404 -6.0176,8.76665 c -3.3097,4.82166 -6.0421,8.78967 -6.072,8.81779 -0.03,0.0281 -0.6445,-0.97625 -1.3656,-2.23193 z m -13.9391,-36.48186 c -2.7245,-1.34861 -4.6817,-4.25927 -4.6817,-6.96245 v -1.37417 l 3.0326,-0.60227 c 1.668,-0.33124 3.0957,-0.53921 3.1727,-0.46214 0.1378,0.13772 2.967,9.64838 2.967,9.97363 0,0.4753 -3.1971,0.0676 -4.4906,-0.5726 z"
     id="path1608" />
  <path
     style="fill:#585365;stroke-width:1"
     d="m 213.53428,183.91889 c 0.5335,-0.0808 1.4067,-0.0808 1.9402,0 0.5336,0.0808 0.097,0.14697 -0.9701,0.14697 -1.0671,0 -1.5037,-0.0661 -0.9701,-0.14697 z m -0.7381,-16.68065 c 0,-0.48507 0.08,-0.68351 0.178,-0.44097 0.098,0.24253 0.098,0.63941 0,0.88194 -0.098,0.24253 -0.178,0.0441 -0.178,-0.44097 z m -0.3195,-7.9375 c 0,-0.77611 0.076,-1.05207 0.1605,-0.61325 0.084,0.43882 0.081,1.07382 -0.01,1.41111 -0.088,0.33729 -0.1573,-0.0218 -0.1534,-0.79786 z m -72.4371,-2.71321 c -0.1622,-0.61718 -0.1159,-1.96224 0.064,-1.85118 0.4061,0.25103 0.6169,1.55715 0.2845,1.76263 -0.1759,0.10866 -0.3326,0.14851 -0.3484,0.0885 z m 8.3376,-0.25527 c -0.1136,-0.18379 -0.056,-0.42709 0.1276,-0.54068 0.1838,-0.11358 0.4271,-0.0562 0.5407,0.12764 0.1136,0.18379 0.056,0.42709 -0.1276,0.54067 -0.1838,0.11359 -0.4271,0.0562 -0.5407,-0.12763 z m -5.9759,-0.80024 c 0.1018,-0.16485 0.333,-0.2084 0.5136,-0.0968 0.4616,0.28526 0.4096,0.39651 -0.1852,0.39651 -0.2826,0 -0.4303,-0.13488 -0.3284,-0.29974 z m 3.1179,0.0367 c -0.089,-0.14465 0.072,-0.22862 0.358,-0.1866 0.7372,0.1082 1.0023,0.44962 0.3492,0.44962 -0.2996,0 -0.6178,-0.11836 -0.7072,-0.26302 z m -4.9407,-2.82513 c -0.1304,-0.21093 -0.094,-0.52617 0.08,-0.70052 0.1875,-0.18748 0.317,-0.0308 0.317,0.38352 0,0.80159 -0.065,0.85371 -0.3969,0.317 z m 7.4021,-0.32204 c 0,-0.45693 0.1193,-0.5762 0.3477,-0.34774 0.2285,0.22847 0.2285,0.46702 0,0.69548 -0.2284,0.22846 -0.3477,0.10919 -0.3477,-0.34774 z m -8.7579,-1.35231 c -0.1,-0.16169 0.043,-0.29399 0.3164,-0.29399 0.274,0 0.4164,0.1323 0.3165,0.29399 -0.1,0.16169 -0.2424,0.29398 -0.3165,0.29398 -0.074,0 -0.2165,-0.13229 -0.3164,-0.29398 z m 9.8778,0 c -0.1,-0.16169 0.042,-0.29399 0.3164,-0.29399 0.274,0 0.4164,0.1323 0.3164,0.29399 -0.1,0.16169 -0.2423,0.29398 -0.3164,0.29398 -0.074,0 -0.2165,-0.13229 -0.3164,-0.29398 z m -10.9326,-1.18168 c 0.1019,-0.16486 0.333,-0.20841 0.5137,-0.0968 0.4615,0.28526 0.4096,0.3965 -0.1853,0.3965 -0.2825,0 -0.4303,-0.13488 -0.3284,-0.29973 z m 11.9945,0 c 0.1018,-0.16486 0.333,-0.20841 0.5136,-0.0968 0.4616,0.28526 0.4096,0.3965 -0.1852,0.3965 -0.2825,0 -0.4303,-0.13488 -0.3284,-0.29973 z m 0.366,-1.15888 c -0.1093,-0.28483 -0.08,-0.59133 0.065,-0.68111 0.1453,-0.0898 0.2872,0.14325 0.3155,0.51787 0.061,0.81017 -0.1053,0.88145 -0.3809,0.16324 z m -10.2837,-0.89324 -1.7639,-0.24193 1.6549,-0.0554 c 0.9102,-0.0305 1.753,0.10333 1.8729,0.29736 0.1199,0.19403 0.169,0.32784 0.109,0.29736 -0.06,-0.0305 -0.9028,-0.1643 -1.8729,-0.29736 z m 6.8483,-0.11082 c 0.1583,-0.15796 0.984,-0.23444 1.835,-0.16994 l 1.5472,0.11726 -1.835,0.16995 c -1.0093,0.0935 -1.7055,0.0407 -1.5472,-0.11727 z m -2.8575,-4.01072 c 0.2546,-0.10191 0.5589,-0.0894 0.6761,0.0278 0.1173,0.11723 -0.091,0.20061 -0.463,0.18529 -0.4109,-0.0169 -0.4945,-0.10052 -0.2131,-0.21314 z m 68.2341,-6.46179 c 0,-0.6791 0.073,-0.95691 0.1613,-0.61736 0.089,0.33954 0.089,0.89517 0,1.23472 -0.089,0.33955 -0.1613,0.0617 -0.1613,-0.61736 z m 0.2988,-6.20301 c 0.017,-0.41097 0.1005,-0.49456 0.2131,-0.21314 0.1019,0.25466 0.089,0.55894 -0.028,0.67616 -0.1173,0.11722 -0.2006,-0.0911 -0.1853,-0.46302 z m 15.781,0.31758 c 0.2546,-0.10191 0.5589,-0.0894 0.6761,0.0278 0.1173,0.11723 -0.091,0.2006 -0.463,0.18529 -0.411,-0.0169 -0.4946,-0.10052 -0.2131,-0.21314 z m -2.2305,-0.8231 c -0.1219,-0.1972 -0.3939,-0.25204 -0.6045,-0.12189 -0.234,0.14466 -0.2809,0.0717 -0.1206,-0.18776 0.2009,-0.32499 0.3789,-0.32764 0.7601,-0.0113 0.4992,0.41434 0.6327,0.67949 0.3422,0.67949 -0.086,0 -0.2553,-0.16134 -0.3772,-0.35853 z m 6.259,-2.81647 c 0,-0.6791 0.073,-0.95691 0.1614,-0.61736 0.089,0.33954 0.089,0.89517 0,1.23472 -0.089,0.33955 -0.1614,0.0617 -0.1614,-0.61736 z m -0.7186,-6.87917 c 0.01,-0.58208 0.086,-0.7775 0.1757,-0.43426 0.089,0.34324 0.083,0.81949 -0.013,1.05833 -0.097,0.23885 -0.1698,-0.042 -0.1626,-0.62407 z m 0.3528,-4.23333 c 0.01,-0.58209 0.086,-0.7775 0.1757,-0.43426 0.089,0.34324 0.084,0.81949 -0.013,1.05833 -0.097,0.23884 -0.1698,-0.042 -0.1627,-0.62407 z m 0.3527,-4.23334 c 0.01,-0.58208 0.086,-0.7775 0.1757,-0.43426 0.09,0.34325 0.084,0.8195 -0.013,1.05834 -0.097,0.23884 -0.1699,-0.042 -0.1627,-0.62408 z m -13.3812,-3.60453 c 0.5362,-0.0811 1.33,-0.0789 1.7638,0.005 0.4339,0.0837 0,0.15008 -0.9749,0.14743 -0.9702,-0.003 -1.3252,-0.0712 -0.7889,-0.15225 z m 7.2702,-31.76144 c -0.4388,-0.55952 -0.4263,-0.572 0.1332,-0.13319 0.5877,0.46086 0.7746,0.75055 0.4842,0.75055 -0.073,0 -0.3511,-0.27781 -0.6174,-0.61736 z m 4.2334,-1.41111 c -0.4479,-0.57106 -0.4313,-0.57855 0.2214,-0.0998 0.388,0.28464 0.7717,0.56245 0.8525,0.61736 0.081,0.0549 -0.019,0.0998 -0.2214,0.0998 -0.2026,0 -0.5862,-0.27781 -0.8525,-0.61736 z m -110.6616,-7.29985 c 0.1332,-0.14807 0.094,-0.65885 -0.087,-1.13506 -0.181,-0.4762 -0.1901,-0.77985 -0.02,-0.67477 0.5179,0.32006 0.7069,1.59759 0.273,1.84575 -0.2243,0.12832 -0.2989,0.11215 -0.1658,-0.0359 z m 8.2397,-0.1723 c -0.1116,-0.18062 -0.068,-0.41176 0.097,-0.51365 0.1648,-0.10188 0.2997,0.0459 0.2997,0.3284 0,0.59485 -0.1112,0.64682 -0.3965,0.18525 z m 11.7743,0.26103 c -0.1622,-0.61719 -0.1159,-1.96224 0.064,-1.85118 0.4061,0.25102 0.6169,1.55715 0.2845,1.76263 -0.1759,0.10866 -0.3326,0.14851 -0.3484,0.0885 z m 8.3376,-0.25528 c -0.1136,-0.18378 -0.056,-0.42709 0.1276,-0.54067 0.1838,-0.11359 0.4271,-0.0562 0.5407,0.12763 0.1136,0.18379 0.056,0.42709 -0.1276,0.54068 -0.1838,0.11359 -0.4271,0.0562 -0.5407,-0.12764 z m -25.7528,-0.70555 c -0.1136,-0.18379 -0.056,-0.42709 0.1277,-0.54068 0.1837,-0.11358 0.427,-0.0562 0.5406,0.12764 0.1136,0.18379 0.056,0.42709 -0.1276,0.54067 -0.1838,0.11359 -0.4271,0.0562 -0.5407,-0.12763 z m 19.7769,-0.0947 c 0.1018,-0.16486 0.333,-0.20841 0.5136,-0.0968 0.4616,0.28526 0.4096,0.3965 -0.1852,0.3965 -0.2826,0 -0.4303,-0.13488 -0.3284,-0.29973 z m 3.1179,0.0367 c -0.089,-0.14466 0.072,-0.22863 0.358,-0.1866 0.7372,0.10819 1.0023,0.44961 0.3492,0.44961 -0.2996,0 -0.6178,-0.11835 -0.7072,-0.26301 z m -20.0513,-0.3895 c 0.1019,-0.16485 0.333,-0.20841 0.5137,-0.0968 0.4615,0.28526 0.4096,0.39651 -0.1853,0.39651 -0.2825,0 -0.4303,-0.13489 -0.3284,-0.29974 z m 113.3592,-1.96392 -1.2158,-1.32292 1.323,1.21573 c 1.2313,1.13158 1.4851,1.4301 1.2157,1.4301 -0.059,0 -0.6543,-0.59531 -1.3229,-1.32291 z m -118.357,-0.47171 c -0.1303,-0.21094 -0.094,-0.52617 0.08,-0.70052 0.1875,-0.18748 0.317,-0.0308 0.317,0.38352 0,0.80159 -0.065,0.85371 -0.397,0.317 z m 20.1084,0 c -0.1304,-0.21094 -0.094,-0.52617 0.08,-0.70052 0.1875,-0.18748 0.317,-0.0308 0.317,0.38352 0,0.80159 -0.065,0.85371 -0.3969,0.317 z m 7.4021,-0.32204 c 0,-0.45693 0.1193,-0.57621 0.3477,-0.34774 0.2285,0.22846 0.2285,0.46701 0,0.69547 -0.2284,0.22847 -0.3477,0.1092 -0.3477,-0.34773 z m -8.7579,-1.35232 c -0.1,-0.16169 0.043,-0.29398 0.3164,-0.29398 0.274,0 0.4164,0.13229 0.3165,0.29398 -0.1,0.16169 -0.2424,0.29398 -0.3165,0.29398 -0.074,0 -0.2165,-0.13229 -0.3164,-0.29398 z m 9.8778,0 c -0.1,-0.16169 0.042,-0.29398 0.3164,-0.29398 0.274,0 0.4164,0.13229 0.3164,0.29398 -0.1,0.16169 -0.2423,0.29398 -0.3164,0.29398 -0.074,0 -0.2165,-0.13229 -0.3164,-0.29398 z m -29.9826,-0.47612 c 0.1019,-0.16486 0.333,-0.20841 0.5137,-0.0968 0.4615,0.28526 0.4096,0.3965 -0.1853,0.3965 -0.2825,0 -0.4303,-0.13488 -0.3284,-0.29973 z m 9.8778,0 c 0.1019,-0.16486 0.333,-0.20841 0.5136,-0.0968 0.4616,0.28526 0.4096,0.3965 -0.1852,0.3965 -0.2825,0 -0.4303,-0.13488 -0.3284,-0.29973 z m 9.1722,-0.70556 c 0.1019,-0.16485 0.333,-0.2084 0.5137,-0.0968 0.4615,0.28526 0.4096,0.39651 -0.1853,0.39651 -0.2825,0 -0.4303,-0.13488 -0.3284,-0.29974 z m 11.9945,0 c 0.1018,-0.16485 0.333,-0.2084 0.5136,-0.0968 0.4616,0.28526 0.4096,0.39651 -0.1852,0.39651 -0.2825,0 -0.4303,-0.13488 -0.3284,-0.29974 z m -19.3113,-0.37642 c -0.1597,-0.31272 -0.1756,-1.6611 -0.018,-1.50328 0.2134,0.21338 0.3694,1.59148 0.1802,1.59148 -0.065,0 -0.1377,-0.0397 -0.1624,-0.0882 z m 19.6773,-0.78245 c -0.1093,-0.28483 -0.08,-0.59133 0.065,-0.68112 0.1453,-0.0898 0.2872,0.14326 0.3155,0.51787 0.061,0.81018 -0.1053,0.88145 -0.3809,0.16325 z m -10.2837,-0.89324 -1.7639,-0.24194 1.6549,-0.0554 c 0.9102,-0.0305 1.753,0.10333 1.8729,0.29736 0.1199,0.19402 0.169,0.32783 0.109,0.29735 -0.06,-0.0305 -0.9028,-0.16429 -1.8729,-0.29735 z m 6.8483,-0.11083 c 0.1583,-0.15796 0.984,-0.23443 1.835,-0.16994 l 1.5472,0.11727 -1.835,0.16994 c -1.0093,0.0935 -1.7055,0.0407 -1.5472,-0.11727 z m -20.9444,-0.21757 c -0.1116,-0.18063 -0.068,-0.41177 0.097,-0.51365 0.1649,-0.10189 0.2998,0.0459 0.2998,0.3284 0,0.59484 -0.1113,0.64681 -0.3966,0.18525 z m 18.0869,-3.79315 c 0.2546,-0.1019 0.5589,-0.0894 0.6761,0.0278 0.1173,0.11722 -0.091,0.2006 -0.463,0.18528 -0.4109,-0.0169 -0.4945,-0.10052 -0.2131,-0.21313 z"
     id="path1606" />
</svg>
