<?xml version="1.0" encoding="UTF-8" standalone="no"?>
<svg
   xmlns:dc="http://purl.org/dc/elements/1.1/"
   xmlns:cc="http://creativecommons.org/ns#"
   xmlns:rdf="http://www.w3.org/1999/02/22-rdf-syntax-ns#"
   xmlns:svg="http://www.w3.org/2000/svg"
   xmlns="http://www.w3.org/2000/svg"
   width="783.43951mm"
   height="438.32553mm"
   viewBox="0 0 783.43951 438.32553"
   version="1.1"
   id="svg8">
  <defs
     id="defs2" />
  <metadata
     id="metadata5">
    <rdf:RDF>
      <cc:Work
         rdf:about="">
        <dc:format>image/svg+xml</dc:format>
        <dc:type
           rdf:resource="http://purl.org/dc/dcmitype/StillImage" />
        <dc:title></dc:title>
      </cc:Work>
    </rdf:RDF>
  </metadata>
  <g
     transform="translate(-196.68544,505.80366)"
     id="layer1">
    <rect
       style="opacity:0.24918;fill:none;fill-rule:evenodd;stroke-width:0.900112;stroke-linecap:round;stroke-linejoin:round"
       id="rect893"
       width="58.044994"
       height="32.855656"
       x="54.896324"
       y="62.973343" />
    <path
       id="path1084"
       style="opacity:1;fill:#51ff00;fill-opacity:1;fill-rule:evenodd;stroke:none;stroke-width:0.900111;stroke-linecap:round;stroke-linejoin:round"
       d="m 600.27408,-505.80366 379.85085,230.32177 -135.91204,68.64594 v -21.8051 h -0.19431 l 0.4224,-0.52739 -35.7338,-15.68291 a 283.33927,149.69252 0 0 0 -209.25194,-49.02486 283.33927,149.69252 0 0 0 -0.30473,0 283.33927,149.69252 0 0 0 -234.05187,65.23468 h -0.65206 c -2.89877,1.90367 -13.47789,8.42038 -15.68991,9.78284 l 0.4574,38.65955 -139.82928,-80.73742 z m -0.5123,233.35166 a 297.74405,191.37693 0.273734 0 1 217.40494,60.43683 V -84.721003 A 297.74275,132.14444 0.138132 0 0 644.467,-124.94069 v -93.36979 h -76.22364 v 92.60024 a 297.74275,132.14444 0.138132 0 0 -188.4936,42.514564 V -209.81027 A 297.74405,191.37693 0.273734 0 1 599.76178,-272.452 Z m -389.68197,25.11215 12.90959,7.45315 3.91711,93.05094 a 16.396762,14.123946 0 0 1 9.06869,12.63925 16.396762,14.123946 0 0 1 -8.02852,12.13999 l 0.56239,13.34646 16.88269,41.23193 h -48.70632 l 13.39528,-40.26127 v -14.95494 a 16.396762,14.123946 0 0 1 -6.89885,-11.50217 v -0.0121 a 16.396762,14.123946 0 0 1 6.89885,-11.50216 z m 561.58445,24.8972 h -35.35974 v 32.14242 h 35.35974 z m -43.16644,0 h -35.35268 v 32.14242 h 35.35268 z m -217.64794,0 h -35.35919 v 32.14242 h 35.35919 z m -43.16631,0 h -35.35226 v 32.14242 h 35.35226 z m 303.98069,38.56952 h -35.35974 v 32.14242 h 35.35974 z m -42.70893,0 h -35.35255 v 32.14242 h 35.35255 z m -218.10545,0 h -35.35919 v 32.14242 h 35.35919 z m -42.70844,0 h -35.35262 v 32.14242 h 35.35262 z m 161.18344,18.3869 a 5.3175571,5.3175571 0 0 1 5.3177,5.31783 5.3175571,5.3175571 0 0 1 -5.3177,5.31782 5.3175571,5.3175571 0 0 1 -5.31753,-5.31782 5.3175571,5.3175571 0 0 1 5.31753,-5.31783 z" />
  </g>
</svg>
